<?xml version="1.0" encoding="utf-8"?>
<!-- Generator: Adobe Illustrator 22.0.1, SVG Export Plug-In . SVG Version: 6.00 Build 0)  -->
<svg version="1.1" id="Capa_1" xmlns="http://www.w3.org/2000/svg" xmlns:xlink="http://www.w3.org/1999/xlink" x="0px" y="0px"
	 viewBox="0 0 147.3 40" style="enable-background:new 0 0 147.3 40;" xml:space="preserve">
<style type="text/css">
	.st0{fill:#0063BD;}
</style>
<g>
	<path class="st0" d="M62.9,29.4h1.9l3.7,10.5h-1.7l-1.2-3.2h-3.5L61,39.9h-1.7L62.9,29.4z M65,35.3l-0.9-3.1l-0.2-1.1h-0.1
		l-0.2,1.1l-0.9,2.9H65C65,35.1,65,35.3,65,35.3z"/>
	<path class="st0" d="M76.6,32c-0.8-0.9-1.9-1.2-2.8-1.2c-2.4,0-3.6,2.1-3.6,3.9s1.2,3.8,3.6,3.8c1.1,0,2.3-0.5,3.1-1.4l1.2,0.9
		c-1.1,1.3-2.5,2.1-4.2,2.1c-3.5,0-5.2-2.7-5.2-5.3c0-2.7,1.9-5.4,5.2-5.4c1.5,0,2.8,0.4,3.9,1.7L76.6,32z"/>
	<path class="st0" d="M85.1,29.5V31h-2.4v8.8H81V31h-2.5v-1.5H85.1z"/>
	<path class="st0" d="M86.8,29.5h1.6v10.4h-1.6V29.5z"/>
	<path class="st0" d="M97,29.4h1.9l-3.6,10.5h-2.1l-3.7-10.5h1.9l2.4,7.4l0.4,1.6h0.1l0.3-1.6L97,29.4z"/>
	<path class="st0" d="M106,30.9h-4.2v2.9h4v1.5h-4c0,1,0,1.9,0,2.8h4.1v1.5H100V29.4h5.8v1.5H106z"/>
</g>
<path class="st0" d="M43.3,12.4c1,0.5,2.4-0.2,3.1-1.5c0.7-1.4,0.4-2.9-0.6-3.4S43.4,7.7,42.7,9C42,10.4,42.3,11.9,43.3,12.4"/>
<path class="st0" d="M127.3,19.6c-1,2.6-2.5,4.5-3.3,4.2c-0.8-0.3-0.6-2.7,0.4-5.3s2.5-4.5,3.3-4.2C128.5,14.6,128.3,17,127.3,19.6
	 M91.2,19.6c-1,2.6-2.5,4.5-3.3,4.2c-0.8-0.3-0.6-2.7,0.4-5.3s2.5-4.5,3.3-4.2C92.4,14.6,92.3,17,91.2,19.6 M75.9,19.6
	c-1,2.6-2.5,4.5-3.3,4.2c-0.8-0.3-0.6-2.7,0.4-5.3s2.5-4.5,3.3-4.2S77,17,75.9,19.6 M61.5,19.6c-1,2.6-2.5,4.5-3.3,4.2
	c-0.8-0.3-0.6-2.7,0.4-5.3s2.5-4.5,3.3-4.2S62.5,17,61.5,19.6 M146.3,9.9c-1,0.1-1.8,0.4-3.2,0.3c0.9-1.8,1.5-3,1.5-3
	c0.5-0.9,0-2.3-0.9-2.6c-1-0.4-2.4-0.1-3.1,1.3c0,0-0.8,1.7-1.9,4c-0.7,0-1.2-0.2-2-0.3s-1.6,0.5-1.7,1.3c0,0.9,0.6,1.9,1.8,2
	c0,0,0.2,0,0.5,0.1c-0.8,1.9-1.6,4-2.3,5.9l0,0c-0.9,2-4.7,5.7-4.7,4.2c0.1-2.5,3.2-9.5,3.2-9.5c0.4-0.7,0.2-1.8-0.4-2.1
	c-0.6-0.4-1.6-0.3-2.2,0.8c0,0,0,0,0,0.1c-0.3-0.5-0.7-0.9-1.2-1.2c-2.6-1.5-6.5,0.9-8.8,5.2c-0.7,1.3-1.1,2.6-1.4,3.9
	c-1,1.2-2.7,3.1-3.3,3.2c1-2.5,2.4-6.3,2.7-9.6c0.6-5.2-5.8-2-7.6,0c0.5-4.9-5.1-2.3-7.2-0.3c0.3-5-6.5-1.5-7.8,0.6l-0.5,0.6
	c0-0.4-0.1-0.8-0.2-1.1c-0.3-1.1-0.9-2-1.8-2.5c-2.6-1.5-6.5,0.9-8.8,5.2c-0.6,1.2-1.1,2.5-1.3,3.7c-1,1.3-3.8,4.5-3.6,2.9
	c0.5-4.6,6.5-16.7,6.5-16.7c0.5-0.9,0-2.3-0.9-2.6c-1-0.4-2.4-0.1-3.1,1.3c0,0-1.6,3.4-3.4,7.4c-0.3-0.5-0.7-0.9-1.2-1.2
	c-2.6-1.5-6.5,0.9-8.8,5.2c-0.4,0.8-0.8,1.7-1,2.5l0,0c0,0.1,0,0.1-0.1,0.2c0,0.1-0.1,0.3-0.1,0.4c-0.9,2.7-3.6,4.8-3.6,3.6
	c0.1-2.5,3.2-9.5,3.2-9.5c0.4-0.7,0.2-1.8-0.4-2.1c-0.6-0.4-1.6-0.3-2.2,0.8c0,0,0,0,0,0.1c-0.3-0.5-0.7-0.9-1.2-1.2
	c-2.6-1.5-6.5,0.9-8.8,5.2c-0.1,0.3-0.3,0.5-0.4,0.8l0,0l0,0v0.1C54.5,18,53.5,20,53.5,20c-0.4,0.9-3.9,4.7-3.7,3
	c0.5-4.6,6.7-16.9,6.7-16.9c0.5-0.9,0-2.2-0.9-2.6c-1-0.4-2.4-0.1-3.1,1.3c0,0-3.8,7.9-6.1,14.1v-0.1c-0.9,2.1-5,6.2-4.8,4.5
	c0.5-4.4,1.5-5.5,2.4-7.2c0.5-0.9,0.1-2.1-0.8-2.5c-1-0.4-2.4-0.1-3.1,1.3c0,0-2.6,4.4-3.1,9.7c-0.6,5.5,6.5,1.6,7.8-0.3
	c0,0.1,0,0.2,0,0.3c-0.2,2.1,0.7,2.8,1.9,2.8c2,0,4.7-1.7,5.9-3.1c0.2-0.3,0.7-0.8,0.9-1.4c0.1,1.9,0.8,3.4,2.1,4.1
	c1.2,0.7,2.7,0.5,4.2-0.3c1.4,2.3,7-0.9,8-2.9c0.3,1.4,0.9,2.6,2,3.2c1.3,0.7,2.9,0.5,4.5-0.4c0.3-0.2,0.6-0.4,0.9-0.7
	c0.7,3.4,6.6,0.1,7.8-1.6l0.6-0.7c0.2,1.6,0.9,2.8,2,3.4c1.3,0.7,2.9,0.5,4.5-0.4s3.2-2.6,4.3-4.8c0.3-0.6,0.6-1.3,0.8-1.9
	c0.1-0.4,0.2-0.7,0.3-1c0-0.1,0.1-0.2,0.1-0.4c1-1.2,3.9-4.6,3.7-3c-0.5,4.6-3.4,9.2-3.4,9.2c-0.5,0.9,0,2.3,0.9,2.6
	c1,0.4,2.4,0.1,3.1-1.3c0,0,2.2-4,3.5-8.2c1.2-1.5,3.4-3.8,3.2-2.4c-0.5,4.6-2.8,9.2-2.8,9.2c-0.5,0.9,0,2.3,0.9,2.6
	c1,0.4,2.4,0.1,3.1-1.3c0,0,1.8-3.7,2.9-7.8c1.1-1.3,3.7-4.4,3.5-2.8c-0.5,4.6-2.8,9.2-2.8,9.2c-0.4,0.7-0.2,1.6,0.3,2.2l0.1,0.1
	c0.1,0.1,0.2,0.1,0.2,0.2c0,0,0.1,0,0.1,0.1c0,0,0.1,0,0.1,0.1h0.1c0.1,0,0.1,0,0.2,0.1c0.1,0,0.2,0,0.2,0c0.1,0,0.2,0,0.2,0l0,0
	c2.1,0.1,5.3-2,6.5-3.7c0.3,1.5,0.9,2.6,2,3.2c1.2,0.7,2.7,0.5,4.2-0.3c1.3,2.3,6.7-0.7,7.9-2.8c0,0.2-0.1,0.4-0.1,0.6
	c-0.2,2,0.6,2.8,1.8,2.8c0,0,3.2,1,8-4.1c0.9-1,1-1.9,0.4-2.3c-1-0.7-1.8,0.6-2.3,1c-1,1.1-3.6,2.9-3.5,1.2c0.3-2.3,1.9-6.3,3.5-9.8
	c2.6,0.1,4.5-0.2,4.5-0.2c1.2-0.1,1.9-1.1,1.8-2C147.9,10.4,147.1,9.8,146.3,9.9"/>
<path class="st0" d="M35.9,6.6c-2.1,0.6-1.4,2.3-1.2,4c0.4,2.7-1.3,6.6-2.4,8.6c-1.2,2-3.6,4.6-4.7,5.2c0.7-5.1,3.3-10.8,4.1-16
	c0.6-3.5-2.2-5.8-4-6.8c-7.4-3.5-20-1-25.2,3.3c-1.2,1.1-3,3.3-2.6,5.4c0.5,2.8,8,4.1,7,1.2l0,0c-0.9-0.2-1.5-0.5-1.6-1
	C5,9,9.4,6.7,15.2,5.3c4.9-1.2,9.3-1.3,10.7-0.5c2.7,1.4-0.4,6.8-1.2,9.1c-1.1,2.9-2.1,5.8-2.2,8.7c-0.1,4.4,3.8,5.9,7.2,4
	c8.8-5.1,9.1-16.4,9.1-16.4C38.9,8.8,38.9,5.8,35.9,6.6"/>
</svg>
