<?xml version="1.0" encoding="utf-8"?>
<!-- Generator: Adobe Illustrator 22.0.1, SVG Export Plug-In . SVG Version: 6.00 Build 0)  -->
<svg version="1.1" id="Ebene_1" xmlns="http://www.w3.org/2000/svg" xmlns:xlink="http://www.w3.org/1999/xlink" x="0px" y="0px"
	 viewBox="0 0 43.6 20" style="enable-background:new 0 0 43.6 20;" xml:space="preserve">
<style type="text/css">
	.st0{fill:#0072CE;}
	.st1{fill:#343434;}
</style>
<g>
	<g>
		<path class="st0" d="M24.1,1.2h-9.5c-1.4,0-2.5,1.1-2.5,2.5v5.8c0,1.4,1.1,2.5,2.5,2.5H20c0.9,1.6,2.3,2.1,4,2.1
			c-0.7-0.8-1.3-1.5-1.4-2.1h1.5c1.4,0,2.5-1.1,2.5-2.5V3.7C26.6,2.3,25.5,1.2,24.1,1.2z M25.6,9.6c0,0.9-0.7,1.6-1.6,1.6h-9.5
			c-0.9,0-1.6-0.7-1.6-1.6V3.7c0-0.9,0.7-1.6,1.6-1.6h9.5c0.9,0,1.6,0.7,1.6,1.6V9.6z"/>
		<rect x="13.9" y="4.6" class="st1" width="6.9" height="0.6"/>
		<rect x="13.9" y="6.5" class="st1" width="3.4" height="0.6"/>
		<rect x="13.9" y="8.3" class="st1" width="6.9" height="0.6"/>
		<g>
			<path class="st1" d="M23.9,7.7l0,0.9c-0.1,0.1-0.3,0.1-0.4,0.2c-0.2,0-0.3,0.1-0.5,0.1c-0.5,0-0.9-0.1-1.2-0.4
				c-0.3-0.3-0.5-0.6-0.6-1.1h-0.5L20.8,7h0.3c0,0,0,0,0-0.1c0,0,0-0.1,0-0.1c0,0,0-0.1,0-0.1c0,0,0,0,0-0.1h-0.4l0.1-0.3h0.4
				c0.1-0.5,0.3-0.8,0.6-1.1C22.1,5,22.5,4.9,23,4.9c0.2,0,0.3,0,0.5,0.1c0.2,0,0.3,0.1,0.4,0.2v0.9c-0.1-0.1-0.3-0.2-0.4-0.3
				c-0.1-0.1-0.3-0.1-0.4-0.1c-0.2,0-0.4,0.1-0.5,0.2c-0.1,0.1-0.3,0.3-0.3,0.5h1.3l-0.1,0.3h-1.2c0,0,0,0.1,0,0.1c0,0,0,0.1,0,0.1
				c0,0,0,0,0,0.1c0,0,0,0,0,0.1h1.2l-0.1,0.3h-1c0,0.2,0.2,0.4,0.3,0.5C22.6,8,22.8,8,23.1,8c0.1,0,0.3,0,0.4-0.1
				C23.6,7.9,23.8,7.8,23.9,7.7z"/>
		</g>
		<polygon class="st1" points="31.1,1.2 29.8,0 24.6,5.3 24.6,5.3 24.1,7 25.8,6.5 25.8,6.5 		"/>
	</g>
	<g>
		<path class="st1" d="M0,19.9v-4.6h1.3c0.5,0,0.9,0,1.1,0c0.2,0,0.4,0.1,0.5,0.2c0.2,0.1,0.3,0.2,0.4,0.4c0.1,0.2,0.1,0.3,0.1,0.5
			c0,0.3-0.1,0.5-0.2,0.6c-0.1,0.2-0.4,0.3-0.6,0.4c0.3,0,0.6,0.1,0.8,0.3c0.2,0.2,0.3,0.5,0.3,0.8c0,0.3-0.1,0.5-0.2,0.6
			c-0.1,0.2-0.3,0.3-0.4,0.4c-0.2,0.1-0.4,0.1-0.6,0.2c-0.2,0-0.6,0.1-1.1,0.1L0,19.9L0,19.9z M1.2,17.1h0.3c0.3,0,0.5,0,0.6-0.1
			c0.1-0.1,0.2-0.2,0.2-0.4s-0.1-0.3-0.2-0.4c-0.1-0.1-0.3-0.1-0.6-0.1H1.2L1.2,17.1L1.2,17.1z M1.2,18.9h0.4c0.3,0,0.5,0,0.6-0.1
			c0.1-0.1,0.2-0.2,0.2-0.4c0-0.2-0.1-0.3-0.2-0.4c-0.1-0.1-0.3-0.1-0.6-0.1H1.2L1.2,18.9L1.2,18.9z"/>
		<path class="st1" d="M7.8,16.6v3.2h-1v-0.5c-0.1,0.2-0.3,0.4-0.5,0.5C6,19.9,5.8,20,5.6,20c-0.4,0-0.8-0.2-1-0.5
			c-0.3-0.3-0.4-0.7-0.4-1.3c0-0.5,0.1-0.9,0.4-1.2c0.3-0.3,0.6-0.5,1.1-0.5c0.2,0,0.4,0,0.6,0.1c0.2,0.1,0.3,0.3,0.4,0.5v-0.5H7.8z
			 M6.8,18.3c0-0.3-0.1-0.4-0.2-0.6c-0.1-0.1-0.3-0.2-0.5-0.2s-0.4,0.1-0.5,0.2c-0.1,0.1-0.2,0.3-0.2,0.6c0,0.3,0.1,0.4,0.2,0.6
			C5.6,19,5.8,19.1,6,19.1s0.4-0.1,0.5-0.2C6.7,18.7,6.8,18.5,6.8,18.3z"/>
		<path class="st1" d="M8.6,19.9v-3.2h1v0.6c0.1-0.3,0.3-0.4,0.5-0.6c0.2-0.1,0.4-0.2,0.7-0.2c0.2,0,0.4,0,0.5,0.1
			c0.2,0.1,0.3,0.2,0.4,0.3c0.1,0.1,0.1,0.2,0.2,0.4c0,0.2,0.1,0.4,0.1,0.7v1.8h-1.1v-1.7c0-0.3,0-0.4-0.1-0.6
			c-0.1-0.1-0.2-0.2-0.4-0.2c-0.2,0-0.4,0.1-0.5,0.3s-0.2,0.5-0.2,0.8v1.3L8.6,19.9L8.6,19.9z"/>
		<path class="st1" d="M12.9,19.9v-4.9H14v3.1l1.2-1.4h1.4l-1.4,1.5l1.6,1.7h-1.5L14,18.4v1.4H12.9z"/>
		<path class="st0" d="M17.8,19.9v-3.5h-1v-1.1h3.3v1.1h-1v3.5H17.8z"/>
		<path class="st0" d="M20.3,19.9v-3.2h1.1v0.8c0.1-0.3,0.3-0.5,0.4-0.6c0.2-0.1,0.4-0.2,0.7-0.2c0,0,0.1,0,0.1,0c0,0,0.1,0,0.1,0
			l-0.1,1c-0.1,0-0.1,0-0.2,0c-0.1,0-0.1,0-0.2,0c-0.3,0-0.5,0.1-0.6,0.3c-0.1,0.2-0.2,0.4-0.2,0.7v1.3L20.3,19.9L20.3,19.9z"/>
		<path class="st0" d="M26.6,16.6v3.2h-1v-0.5c-0.1,0.2-0.3,0.4-0.5,0.5c-0.2,0.1-0.4,0.2-0.6,0.2c-0.4,0-0.8-0.2-1-0.5
			c-0.3-0.3-0.4-0.7-0.4-1.3c0-0.5,0.1-0.9,0.4-1.2c0.3-0.3,0.6-0.5,1.1-0.5c0.2,0,0.4,0,0.6,0.1c0.2,0.1,0.3,0.3,0.4,0.5v-0.5H26.6
			z M25.6,18.3c0-0.3-0.1-0.4-0.2-0.6c-0.1-0.1-0.3-0.2-0.5-0.2s-0.4,0.1-0.5,0.2c-0.1,0.1-0.2,0.3-0.2,0.6c0,0.3,0.1,0.4,0.2,0.6
			c0.1,0.1,0.3,0.2,0.5,0.2s0.4-0.1,0.5-0.2C25.6,18.7,25.6,18.5,25.6,18.3z"/>
		<path class="st0" d="M27.5,19.9v-3.2h1v0.6c0.1-0.3,0.3-0.4,0.5-0.6c0.2-0.1,0.4-0.2,0.7-0.2c0.2,0,0.4,0,0.5,0.1
			c0.2,0.1,0.3,0.2,0.4,0.3c0.1,0.1,0.1,0.2,0.2,0.4c0,0.2,0.1,0.4,0.1,0.7v1.8h-1.1v-1.7c0-0.3,0-0.4-0.1-0.6s-0.2-0.2-0.4-0.2
			c-0.2,0-0.4,0.1-0.5,0.3s-0.2,0.5-0.2,0.8v1.3L27.5,19.9L27.5,19.9z"/>
		<path class="st0" d="M31.4,19.6l0.2-0.9c0.2,0.1,0.3,0.3,0.5,0.3c0.2,0.1,0.4,0.1,0.6,0.1c0.1,0,0.3,0,0.3-0.1
			c0.1,0,0.1-0.1,0.1-0.2c0-0.1-0.1-0.3-0.4-0.3c-0.1,0-0.2,0-0.2-0.1c-0.3-0.1-0.6-0.2-0.7-0.4c-0.1-0.1-0.2-0.3-0.2-0.6
			c0-0.3,0.1-0.6,0.4-0.7c0.2-0.2,0.5-0.3,0.9-0.3c0.2,0,0.4,0,0.6,0.1c0.2,0,0.4,0.1,0.6,0.2l-0.2,0.8c-0.1-0.1-0.3-0.2-0.5-0.2
			c-0.2-0.1-0.3-0.1-0.5-0.1c-0.1,0-0.2,0-0.3,0.1s-0.1,0.1-0.1,0.2c0,0.1,0.1,0.2,0.4,0.3c0.1,0,0.1,0,0.1,0
			c0.4,0.1,0.7,0.2,0.8,0.4c0.1,0.1,0.2,0.4,0.2,0.6c0,0.3-0.1,0.6-0.4,0.8c-0.3,0.2-0.6,0.3-1,0.3c-0.3,0-0.5,0-0.8-0.1
			C31.9,19.8,31.6,19.7,31.4,19.6z"/>
		<path class="st0" d="M35,19.9v-2.4h-0.5v-0.8H35V16c0-0.4,0.1-0.6,0.3-0.8c0.2-0.2,0.5-0.3,0.9-0.3c0.1,0,0.1,0,0.2,0
			c0.1,0,0.2,0,0.3,0v0.9c0,0-0.1,0-0.1,0c0,0-0.1,0-0.1,0c-0.1,0-0.2,0-0.2,0.1c0,0.1-0.1,0.2-0.1,0.3v0.5h0.6v0.8h-0.6v2.4
			L35,19.9L35,19.9z"/>
		<path class="st0" d="M40.5,18.5H38c0,0.3,0.1,0.4,0.2,0.6c0.1,0.1,0.3,0.2,0.5,0.2c0.2,0,0.3,0,0.4-0.1c0.1-0.1,0.2-0.2,0.3-0.3
			l0.8,0.3c-0.1,0.2-0.3,0.4-0.5,0.6c-0.3,0.1-0.6,0.2-0.9,0.2c-0.6,0-1-0.2-1.3-0.5c-0.3-0.3-0.5-0.7-0.5-1.2
			c0-0.5,0.2-0.9,0.5-1.2c0.3-0.3,0.8-0.5,1.3-0.5c0.5,0,0.9,0.2,1.3,0.5S40.4,17.9,40.5,18.5L40.5,18.5L40.5,18.5z M39.4,17.8
			c0-0.2-0.1-0.3-0.2-0.4c-0.1-0.1-0.3-0.2-0.4-0.2c-0.2,0-0.3,0-0.4,0.1c-0.1,0.1-0.2,0.3-0.2,0.5L39.4,17.8L39.4,17.8z"/>
		<path class="st0" d="M41.1,19.9v-3.2h1.1v0.8c0.1-0.3,0.3-0.5,0.4-0.6c0.2-0.1,0.4-0.2,0.7-0.2c0,0,0.1,0,0.1,0c0,0,0.1,0,0.1,0
			l-0.1,1c-0.1,0-0.1,0-0.2,0s-0.1,0-0.2,0c-0.3,0-0.5,0.1-0.6,0.3c-0.1,0.2-0.2,0.4-0.2,0.7v1.3L41.1,19.9L41.1,19.9z"/>
	</g>
</g>
</svg>
