<?xml version="1.0" encoding="utf-8"?>
<!-- Generator: Adobe Illustrator 22.0.1, SVG Export Plug-In . SVG Version: 6.00 Build 0)  -->
<svg version="1.1" id="Layer_1" xmlns="http://www.w3.org/2000/svg" xmlns:xlink="http://www.w3.org/1999/xlink" x="0px" y="0px"
	 viewBox="0 0 63.9 20" style="enable-background:new 0 0 63.9 20;" xml:space="preserve">
<style type="text/css">
	.st0{fill:#C10A27;}
	.st1{fill:#FFFFFF;}
	.st2{fill:#2B2523;}
</style>
<g>
	<g>
		<path class="st0" d="M5.1,9.5V5.1c0-1.4,1.2-2.6,2.6-2.6c1.4,0,2.6,1.2,2.6,2.6v4.5h2.5V5.1c0-2.8-2.3-5.1-5.1-5.1
			C4.9,0,2.6,2.3,2.6,5.1v4.5H5.1z"/>
		<g>
			<path class="st0" d="M7,5C7.4,4.6,8,4.6,8.4,5c0.4,0.3,1.1,0.5,1.6,0.3c0.5-0.2,1.1,0.1,1.3,0.6c0.2,0.5,0.8,0.9,1.4,1
				c0.5,0.1,1,0.6,1,1.1c0,0.5,0.4,1.2,0.8,1.5c0.5,0.3,0.7,0.9,0.4,1.4c-0.2,0.5-0.1,1.2,0.2,1.7c0.3,0.4,0.2,1.1-0.2,1.4
				c-0.4,0.4-0.6,1.1-0.5,1.6c0.1,0.5-0.2,1.1-0.7,1.3c-0.5,0.2-1,0.7-1.1,1.2c-0.1,0.5-0.7,0.9-1.2,0.9c-0.5,0-1.2,0.3-1.5,0.7
				c-0.3,0.4-1,0.6-1.4,0.3c-0.5-0.3-1.2-0.3-1.7,0c-0.5,0.3-1.1,0.1-1.4-0.3c-0.3-0.4-1-0.7-1.5-0.7c-0.5,0-1.1-0.3-1.2-0.9
				c-0.1-0.5-0.6-1.1-1.1-1.2c-0.5-0.2-0.8-0.7-0.7-1.3C1,15,0.7,14.3,0.3,13.9c-0.4-0.4-0.5-1-0.2-1.4c0.3-0.4,0.4-1.2,0.2-1.7
				c-0.2-0.5,0-1.1,0.5-1.4C1.3,9.2,1.6,8.5,1.7,8c0-0.5,0.4-1,1-1.1c0.5-0.1,1.1-0.5,1.4-1c0.2-0.5,0.8-0.7,1.3-0.6
				C5.8,5.5,6.6,5.3,7,5z"/>
			<g>
				<path class="st1" d="M7.7,7.3c-2.8,0-5,2.2-5,5c0,2.8,2.2,5,5,5c2.8,0,5-2.2,5-5C12.7,9.6,10.5,7.3,7.7,7.3z"/>
			</g>
			<path class="st0" d="M8,9.1c-0.3,0-0.6,0-0.9,0.1c-1.6,0.2-2.5,1.1-2.7,2.6l-0.1,1.1c-0.1,0.8,0,1.4,0.4,1.8
				c0.4,0.5,1.2,0.9,2.3,0.9h2c1.1,0,1.3-1.2,1.3-1.2l-2.6,0c-0.4,0-0.7,0-0.9-0.1c-0.3-0.1-0.5-0.3-0.6-0.7c0-0.2,0-0.5,0-0.7
				l0.1-1c0-0.3,0.1-0.5,0.2-0.6c0.1-0.2,0.2-0.5,0.5-0.7c0.1-0.1,0.5-0.3,1.4-0.3h1.4c1,0,1.2-1.2,1.2-1.2H8z"/>
		</g>
	</g>
	<g>
		<g>
			<path class="st2" d="M21.9,16.6c0,0.2-0.1,0.4-0.2,0.6c-0.1,0.2-0.3,0.3-0.5,0.4c-0.2,0.1-0.4,0.1-0.7,0.1c-0.2,0-0.4,0-0.6,0
				c-0.2,0-0.3-0.1-0.5-0.2v-0.8c0.2,0.1,0.4,0.2,0.5,0.2c0.2,0.1,0.4,0.1,0.5,0.1c0.1,0,0.2,0,0.3-0.1c0.1,0,0.1-0.1,0.1-0.2
				c0,0,0-0.1,0-0.1c0,0-0.1-0.1-0.1-0.1c-0.1,0-0.2-0.1-0.5-0.2c-0.2-0.1-0.4-0.2-0.5-0.3c-0.1-0.1-0.2-0.2-0.2-0.3
				c-0.1-0.1-0.1-0.3-0.1-0.4c0-0.3,0.1-0.6,0.3-0.7c0.2-0.2,0.5-0.3,0.9-0.3c0.4,0,0.7,0.1,1.1,0.2l-0.3,0.7
				c-0.3-0.1-0.6-0.2-0.8-0.2c-0.1,0-0.2,0-0.3,0.1c-0.1,0-0.1,0.1-0.1,0.2c0,0.1,0,0.1,0.1,0.2c0.1,0.1,0.3,0.1,0.6,0.3
				c0.3,0.1,0.5,0.3,0.6,0.4C21.8,16.1,21.9,16.3,21.9,16.6z"/>
			<path class="st2" d="M24.6,16.6c0,0.2-0.1,0.4-0.2,0.6c-0.1,0.2-0.3,0.3-0.5,0.4c-0.2,0.1-0.4,0.1-0.7,0.1c-0.2,0-0.4,0-0.6,0
				c-0.2,0-0.3-0.1-0.5-0.2v-0.8c0.2,0.1,0.4,0.2,0.5,0.2c0.2,0.1,0.4,0.1,0.5,0.1c0.1,0,0.2,0,0.3-0.1c0.1,0,0.1-0.1,0.1-0.2
				c0,0,0-0.1,0-0.1c0,0-0.1-0.1-0.1-0.1c-0.1,0-0.2-0.1-0.5-0.2c-0.2-0.1-0.4-0.2-0.5-0.3c-0.1-0.1-0.2-0.2-0.2-0.3
				c-0.1-0.1-0.1-0.3-0.1-0.4c0-0.3,0.1-0.6,0.3-0.7c0.2-0.2,0.5-0.3,0.9-0.3c0.4,0,0.7,0.1,1.1,0.2l-0.3,0.7
				c-0.3-0.1-0.6-0.2-0.8-0.2c-0.1,0-0.2,0-0.3,0.1c-0.1,0-0.1,0.1-0.1,0.2c0,0.1,0,0.1,0.1,0.2c0.1,0.1,0.3,0.1,0.6,0.3
				c0.3,0.1,0.5,0.3,0.6,0.4C24.6,16.1,24.6,16.3,24.6,16.6z"/>
			<path class="st2" d="M25.2,17.6v-3.4h0.9v2.7h1.3v0.7H25.2z"/>
			<path class="st2" d="M29.5,14.4c-0.4,0-0.8,0.1-1,0.4c-0.2,0.3-0.4,0.6-0.4,1.1c0,0.5,0.1,0.9,0.3,1.1c0.2,0.3,0.6,0.4,1,0.4
				c0.3,0,0.5,0,0.8-0.1v0.2c-0.2,0.1-0.5,0.1-0.8,0.1c-0.5,0-0.9-0.2-1.1-0.5c-0.3-0.3-0.4-0.7-0.4-1.3c0-0.3,0.1-0.7,0.2-0.9
				c0.1-0.3,0.3-0.5,0.6-0.6c0.2-0.1,0.5-0.2,0.9-0.2c0.3,0,0.6,0.1,0.9,0.2l-0.1,0.2C30,14.4,29.8,14.4,29.5,14.4z"/>
			<path class="st2" d="M32.9,17.6H31v-3.4h1.9v0.2h-1.6v1.3h1.5v0.2h-1.5v1.5h1.6V17.6z"/>
			<path class="st2" d="M33.9,16.1v1.5h-0.2v-3.4h0.8c0.4,0,0.7,0.1,0.9,0.2c0.2,0.2,0.3,0.4,0.3,0.7c0,0.2-0.1,0.4-0.2,0.6
				C35.4,15.9,35.2,16,35,16l0.9,1.5h-0.3l-0.9-1.5H33.9z M33.9,15.9h0.6c0.3,0,0.5-0.1,0.7-0.2c0.2-0.1,0.2-0.3,0.2-0.6
				c0-0.3-0.1-0.4-0.2-0.6c-0.2-0.1-0.4-0.2-0.8-0.2h-0.6V15.9z"/>
			<path class="st2" d="M37.3,17.6h-0.2v-3.2H36v-0.2h2.4v0.2h-1.1V17.6z"/>
			<path class="st2" d="M39,17.6v-3.4h0.2v3.4H39z"/>
			<path class="st2" d="M40.4,17.6h-0.2v-3.4H42v0.2h-1.6v1.4h1.5v0.2h-1.5V17.6z"/>
			<path class="st2" d="M42.5,17.6v-3.4h0.2v3.4H42.5z"/>
			<path class="st2" d="M45.2,14.4c-0.4,0-0.8,0.1-1,0.4c-0.2,0.3-0.4,0.6-0.4,1.1c0,0.5,0.1,0.9,0.3,1.1c0.2,0.3,0.6,0.4,1,0.4
				c0.3,0,0.5,0,0.8-0.1v0.2c-0.2,0.1-0.5,0.1-0.8,0.1c-0.5,0-0.9-0.2-1.1-0.5c-0.3-0.3-0.4-0.7-0.4-1.3c0-0.3,0.1-0.7,0.2-0.9
				c0.1-0.3,0.3-0.5,0.6-0.6c0.2-0.1,0.5-0.2,0.9-0.2c0.3,0,0.6,0.1,0.9,0.2L46,14.5C45.7,14.4,45.5,14.4,45.2,14.4z"/>
			<path class="st2" d="M48.3,16.4H47l-0.5,1.2h-0.3l1.4-3.4h0.2l1.3,3.4h-0.3L48.3,16.4z M47,16.2h1.2l-0.5-1.2
				c0-0.1-0.1-0.2-0.1-0.4c0,0.1-0.1,0.3-0.1,0.4L47,16.2z"/>
			<path class="st2" d="M50.4,17.6h-0.2v-3.2h-1.1v-0.2h2.4v0.2h-1.1V17.6z"/>
			<path class="st2" d="M53.9,17.6h-1.9v-3.4h1.9v0.2h-1.6v1.3h1.5v0.2h-1.5v1.5h1.6V17.6z"/>
		</g>
		<g>
			<g>
				<path class="st0" d="M52.8,6.8l-2.6,0l0,0.2c0,0.4,0.1,0.9,0.8,0.9c0,0,0.8,0,0.8,0h1c1,0,1.6,0.3,1.4,1.5L54,10.3
					c-0.2,1.2-1,1.4-1.8,1.4h-1l0.3-2.3c0-0.3-0.1-0.9-0.7-0.9l0,0h-0.9l-0.2,1.9L49.5,12c-0.1,0.4,0.3,0.7,1,0.7l2,0
					c2.1,0,2.6-0.7,2.9-1.2c0.2-0.3,0.3-0.6,0.3-1c0-0.1,0.2-1.3,0.2-1.3c0.1-0.7,0-1.3-0.4-1.7C55,7.1,54.1,6.8,52.8,6.8z"/>
				<path class="st0" d="M28.9,6.7L28.9,6.7L28.9,6.7l-0.3,0c-2.1,0-3.2,0.9-3.4,2.5l-0.1,1.1c-0.1,0.7,0,1.3,0.4,1.7
					c0.4,0.5,1.2,0.9,2.4,0.9h0.3c2,0,3.1-0.9,3.4-2.4l0-0.1l0.1-1.1c0.1-0.8,0-1.3-0.4-1.7C30.8,7,30,6.7,28.9,6.7z M30,9.3l-0.1,1
					c-0.1,0.4-0.2,0.8-0.4,1c-0.3,0.3-0.6,0.5-1.2,0.5H28h0c-0.5,0-0.9-0.2-1.1-0.5c-0.1-0.2-0.1-0.6-0.1-1l0.1-1
					c0.1-0.5,0.2-0.9,0.5-1.2c0.3-0.3,0.6-0.4,1.1-0.4h0h0.3h0c0.3,0,0.7,0.1,1,0.4C30,8.4,30,8.7,30,9.3z"/>
				<path class="st0" d="M63.4,7.5C63,7,62.2,6.7,61,6.7h0h0l-0.3,0c-2.1,0-3.2,0.9-3.4,2.5l-0.1,1.1c-0.1,0.7,0,1.3,0.4,1.7
					c0.4,0.5,1.2,0.9,2.4,0.9h0.3c2,0,3.1-0.9,3.4-2.4l0-0.1l0.1-1.1C63.9,8.5,63.8,7.9,63.4,7.5z M62.1,9.3l-0.1,1
					c-0.1,0.4-0.2,0.8-0.4,1c-0.3,0.3-0.7,0.5-1.2,0.5h-0.3h0c-0.5,0-0.9-0.2-1.1-0.5c-0.1-0.2-0.1-0.6-0.1-1l0.1-1
					c0.1-0.5,0.2-0.9,0.5-1.2c0.3-0.3,0.6-0.4,1.1-0.4h0H61l0,0c0.3,0,0.7,0.1,1,0.4C62.1,8.4,62.2,8.7,62.1,9.3z"/>
				<path class="st0" d="M45.6,6.7L45.6,6.7L45.6,6.7l-0.3,0c-2.1,0-3.2,0.9-3.4,2.5l-0.1,1.1c-0.1,0.7,0,1.3,0.4,1.7
					c0.4,0.5,1.2,0.9,2.4,0.9h0.3c2,0,3.1-0.9,3.4-2.4l0-0.1l0.1-1.1c0.1-0.8,0-1.3-0.4-1.7C47.5,7,46.7,6.7,45.6,6.7z M46.6,9.3
					l-0.1,1c-0.1,0.4-0.2,0.8-0.4,1c-0.3,0.3-0.6,0.5-1.2,0.5h-0.3h0c-0.5,0-0.9-0.2-1.1-0.5c-0.1-0.2-0.1-0.6-0.1-1l0.1-1
					c0.1-0.5,0.2-0.9,0.5-1.2c0.3-0.3,0.6-0.4,1.1-0.4h0h0.3l0,0c0.3,0,0.7,0.1,1,0.4C46.7,8.4,46.7,8.7,46.6,9.3z"/>
				<path class="st0" d="M39,7.1l-2.3,2.6l-1.6-2.6c-0.2-0.2-0.5-0.4-0.9-0.4h-0.7l-0.7,5.9h0.9c0.3,0,0.5-0.1,0.6-0.2
					c0.2-0.2,0.3-0.4,0.3-0.6l0.3-2.6l1.2,2.2c0.1,0.1,0.2,0.3,0.4,0.3h0c0.2,0,0.4-0.2,0.4-0.2l1.8-2.3l-0.4,3.4l0.8,0
					c0.3,0,0.5-0.1,0.6-0.2c0.2-0.2,0.3-0.4,0.3-0.6l0.6-5H40C39.5,6.8,39.2,6.9,39,7.1z"/>
				<path class="st0" d="M22,6.8c-0.3,0-0.6,0-0.8,0.1c-1.5,0.2-2.3,1-2.4,2.4l-0.1,1c-0.1,0.7,0,1.2,0.4,1.6
					c0.4,0.4,1.1,0.8,2.1,0.8h1.8c1,0,1.2-1.1,1.2-1.1l-2.4,0c-0.3,0-0.6,0-0.9-0.1c-0.3-0.1-0.5-0.3-0.5-0.7c0-0.1,0-0.4,0-0.6
					l0.1-0.9c0-0.2,0.1-0.5,0.1-0.6c0.1-0.2,0.2-0.4,0.5-0.6c0.1-0.1,0.5-0.3,1.3-0.3h1.3c0.9,0,1.1-1.1,1.1-1.1H22z"/>
			</g>
		</g>
	</g>
</g>
</svg>
