<?xml version="1.0" standalone="no"?>
<!DOCTYPE svg PUBLIC "-//W3C//DTD SVG 1.1//EN" "http://www.w3.org/Graphics/SVG/1.1/DTD/svg11.dtd" >
<svg xmlns="http://www.w3.org/2000/svg">
<metadata>Generated by IcoMoon</metadata>
<defs>
<font id="icomoon" horiz-adv-x="1024">
<font-face units-per-em="1024" ascent="960" descent="-64" />
<missing-glyph horiz-adv-x="1024" />
<glyph unicode="&#x20;" horiz-adv-x="512" d="" />
<glyph unicode="&#xe900;" glyph-name="account" d="M353.28 394.24c2.56-15.36 15.36-35.84 25.6-35.84h2.56c7.68-12.8 15.36-23.040 25.6-33.28h71.68c7.68 7.68 15.36 20.48 20.48 33.28 0 0 2.56-2.56 5.12-2.56 10.24 0 20.48 20.48 20.48 35.84s0 28.16-10.24 28.16h-2.56c0 43.52-12.8 99.84-76.8 99.84-61.44 0-69.12-56.32-66.56-99.84h-2.56c-15.36 0-15.36-12.8-12.8-25.6zM721.92 442.88l5.12 28.16c2.56 10.24-5.12 17.92-12.8 17.92h-199.68c5.12-12.8 10.24-30.72 10.24-51.2 5.12-2.56 7.68-7.68 10.24-12.8h168.96c7.68 0 17.92 7.68 17.92 17.92zM688.64 325.12c7.68 0 15.36 5.12 17.92 15.36l2.56 23.040c2.56 7.68-5.12 15.36-12.8 15.36h-158.72c-5.12-15.36-15.36-33.28-30.72-35.84 0 0 0-2.56-2.56-2.56v-12.8l184.32-2.56zM248.32 332.8l-33.28 217.6c0 25.6 20.48 48.64 48.64 48.64h494.080c25.6 0 48.64-20.48 48.64-48.64l-28.16-215.040h40.96l28.16 215.040c0 51.2-40.96 92.16-92.16 92.16h-491.52c-51.2 0-92.16-40.96-92.16-92.16l33.28-217.6h43.52zM197.12 304.64c-10.24 0-17.92-5.12-23.040-10.24-5.12-7.68-7.68-15.36-7.68-25.6l25.6-174.080h640l25.6 174.080c2.56 7.68-2.56 17.92-7.68 25.6s-15.36 10.24-23.040 10.24h-629.76zM727.040 678.4l7.68 33.28c0 2.56 0 7.68-2.56 10.24s-5.12 5.12-10.24 5.12h-442.88c-2.56 0-7.68-2.56-10.24-5.12s-2.56-7.68-2.56-10.24l7.68-33.28h453.12zM683.52 752.64l5.12 33.28c0 2.56 0 7.68-2.56 10.24s-5.12 5.12-7.68 5.12h-353.28c-2.56 0-7.68-2.56-7.68-5.12-2.56-2.56-2.56-5.12-2.56-10.24l7.68-33.28h360.96z" />
<glyph unicode="&#xe901;" glyph-name="address" d="M442.88 176.64v-69.12l-17.92 12.8c-2.56 2.56-64 53.76-128 125.44-87.040 99.84-130.56 189.44-130.56 266.24v7.68c0 153.6 122.88 276.48 276.48 276.48s276.48-122.88 276.48-276.48v-7.68c0-7.68 0-12.8 0-20.48l-53.76 46.080c-10.24 112.64-107.52 199.68-222.72 199.68-122.88 0-222.72-99.84-222.72-222.72v-7.68c0-125.44 166.4-284.16 222.72-330.24zM606.72 215.040h81.92v81.92h-81.92v-81.92zM442.88 632.32c64 0 115.2-51.2 115.2-115.2s-51.2-115.2-115.2-115.2-115.2 51.2-115.2 115.2 51.2 115.2 115.2 115.2zM442.88 581.12c-33.28 0-61.44-28.16-61.44-61.44s28.16-61.44 61.44-61.44 61.44 28.16 61.44 61.44c-2.56 33.28-28.16 61.44-61.44 61.44zM821.76 250.88l-15.36 12.8v-87.040c0-40.96-33.28-74.24-74.24-74.24h-168.96c-40.96 0-74.24 33.28-74.24 74.24v87.040l-15.36-12.8-35.84 40.96 209.92 192 209.92-192-35.84-40.96zM752.64 314.88l-104.96 94.72-104.96-94.72v-135.68c0-10.24 7.68-20.48 20.48-20.48h171.52c10.24 0 20.48 7.68 20.48 20.48l-2.56 135.68z" />
<glyph unicode="&#xe902;" glyph-name="univ-4" d="M236.466 40.702v0zM249.144 40.702c0.975 0 3.901 0 4.876 0s2.926 0 3.901 0c0.975 0 3.901 0 4.876 0.975 0.975 0 2.926 0 3.901 0.975 0.975 0 3.901 0 4.876 0.975 0.975 0 2.926 0 3.901 0.975s2.926 0.975 3.901 0.975c0.975 0 2.926 0.975 3.901 0.975s2.926 0.975 3.901 0.975c0.975 0 2.926 0.975 3.901 0.975s2.926 0.975 3.901 0.975c0.975 0 2.926 0.975 4.876 0.975 0.975 0 2.926 0.975 3.901 0.975 0.975 0.975 3.901 0.975 4.876 2.926 0.975 0 0.975 0.975 2.926 0.975 0.975 0.975 3.901 0.975 4.876 2.926 0.975 0 0.975 0.975 2.926 0.975 0.975 0.975 3.901 2.926 4.876 2.926l0.975 0.975c2.926 0.975 3.901 2.926 4.876 3.901l0.975 0.975c2.926 0.975 3.901 2.926 6.827 3.901h0.975c2.926 0.975 3.901 2.926 6.827 4.876v0c40.96 33.158 66.316 83.87 68.267 137.509v0c0 0.975 0 3.901 0 4.876 0 18.53-2.926 37.059-7.802 54.613-0.975 3.901-2.926 7.802-3.901 11.703 0 0.975 0 0.975-0.975 2.926-0.975 3.901-3.901 7.802-4.876 11.703 0 0 0 0.975-0.975 0.975-0.975 3.901-3.901 7.802-6.827 10.728v0c-2.926 3.901-3.901 7.802-6.827 10.728l-0.975 0.975c-2.926 3.901-4.876 6.827-7.802 10.728v0.975c-2.926 2.926-4.876 6.827-7.802 9.752l-0.975 0.975c-2.926 2.926-6.827 4.876-9.752 9.752l-0.975 0.975c-6.827 4.876-13.653 10.728-21.455 15.604l-0.975 0.975c-3.901 2.926-6.827 3.901-10.728 6.827l-0.975 0.975c-3.901 0.975-7.802 3.901-10.728 4.876h-0.975c-3.901 0.975-7.802 2.926-11.703 3.901l-2.926 0.975c-3.901 0.975-7.802 2.926-11.703 3.901h-0.975c-3.901 0.975-7.802 0.975-11.703 2.926h-2.926c-3.901 0.975-7.802 0.975-13.653 0.975h-2.926c-3.901 0-9.752 0-13.653 0-32.183 0-65.341-9.752-93.623-25.356 0 0-0.975 0-0.975-0.975l-0.975-0.975c-53.638-33.158-84.846-91.672-84.846-154.088 0-101.425 80.945-182.37 182.37-182.37v0c2.926 0 4.876 0 9.752 0-0.975 5.851 0 5.851 1.95 5.851zM85.304 222.096c0 83.87 68.267 152.137 152.137 152.137s152.137-68.267 152.137-152.137v0c0-83.87-68.267-152.137-152.137-152.137-84.846 0.975-152.137 69.242-152.137 152.137v0 0zM799.178 40.702c0.975 0 3.901 0 4.876 0s2.926 0 3.901 0c0.975 0 3.901 0 4.876 0.975 0.975 0 2.926 0 3.901 0.975 0.975 0 3.901 0 4.876 0.975 0.975 0 2.926 0 3.901 0.975s2.926 0.975 3.901 0.975c0.975 0 2.926 0.975 3.901 0.975s2.926 0.975 3.901 0.975c0.975 0 2.926 0.975 3.901 0.975s2.926 0.975 3.901 0.975c0.975 0 2.926 0.975 4.876 0.975 0.975 0 2.926 0.975 3.901 0.975 0.975 0.975 3.901 0.975 4.876 2.926 0.975 0 0.975 0.975 2.926 0.975 0.975 0.975 3.901 0.975 4.876 2.926 0.975 0 0.975 0.975 2.926 0.975 0.975 0.975 3.901 2.926 4.876 2.926l0.975 0.975c2.926 0.975 3.901 2.926 4.876 3.901l0.975 0.975c2.926 0.975 3.901 2.926 6.827 3.901h0.975c2.926 0.975 3.901 2.926 6.827 4.876v0c40.96 33.158 66.316 83.87 68.267 137.509v0c0 0.975 0 3.901 0 4.876 0 18.53-2.926 37.059-7.802 54.613-0.975 3.901-2.926 7.802-3.901 11.703 0 0.975 0 0.975-0.975 2.926-0.975 3.901-3.901 7.802-4.876 11.703 0 0 0 0.975-0.975 0.975-0.975 3.901-3.901 7.802-6.827 10.728v0c-2.926 3.901-3.901 7.802-6.827 10.728l-0.975 0.975c-2.926 3.901-4.876 6.827-7.802 10.728v0.975c-2.926 2.926-4.876 6.827-7.802 9.752 0 0 0 0.975-0.975 0.975-2.926 2.926-6.827 4.876-9.752 9.752l-0.975 0.975c-6.827 4.876-13.653 10.728-21.455 15.604l-0.975 0.975c-3.901 2.926-6.827 3.901-10.728 6.827l-0.975 0.975c-3.901 0.975-7.802 3.901-10.728 4.876h-0.975c-3.901 0.975-7.802 2.926-11.703 3.901l-2.926 0.975c-3.901 0.975-7.802 2.926-11.703 3.901h-0.975c-3.901 0.975-7.802 0.975-11.703 2.926h-2.926c-3.901 0.975-7.802 0.975-13.653 0.975h-2.926c-3.901 0-9.752 0-13.653 0-33.158 0-65.341-9.752-93.623-25.356 0 0-0.975 0-0.975-0.975l-0.975-0.975c-53.638-33.158-84.846-91.672-84.846-154.088 0-101.425 80.945-182.37 182.37-182.37v0c2.926 0 4.876 0 9.752 0 0.975 5.851 1.95 5.851 1.95 5.851zM635.338 222.096c0 83.87 68.267 152.137 152.137 152.137s152.137-68.267 152.137-152.137v0c0-83.87-68.267-152.137-152.137-152.137-83.87 0.975-152.137 69.242-152.137 152.137v0 0zM640.215 720.443c13.653-13.653 30.232-19.505 47.787-19.505 37.059 0 68.267 29.257 68.267 66.316 0 6.827-0.975 13.653-2.926 18.53v0c9.752 2.926 15.604 2.926 22.43 2.926-10.728 6.827-21.455 14.629-30.232 24.381-10.728 21.455-29.257 36.084-51.688 40.96-30.232 3.901-61.44 0.975-91.672-4.876-3.901-2.926-3.901-2.926-2.926-6.827 0.975-0.975 0.975-3.901 0.975-6.827s0-3.901 0-6.827c-0.975-0.975-2.926-0.975-3.901-0.975 0 0-2.926-2.926-0.975-4.876 0-2.926 0.975-6.827 0.975-6.827l4.876-10.728c0-4.876 0-9.752 0.975-14.629 0.975-3.901 2.926-6.827 4.876-9.752 2.926-2.926 9.752-10.728 9.752-10.728 0.975 0 0.975 0 2.926 0.975 0-0.975 0-2.926 0-4.876 0-11.703 3.901-24.381 9.752-33.158-131.657 26.331-265.265-35.109-330.606-150.187-39.010-79.97 171.642-171.642 171.642-171.642l-59.49-133.608c4.876-17.554 7.802-36.084 7.802-54.613 0-0.975 0-2.926 0-4.876l196.023 194.072-39.010 35.109c6.827 9.752 11.703 6.827 19.505 19.505 24.381 42.91-76.069 105.326-113.128 118.979 28.282 13.653 58.514 21.455 90.697 24.381 10.728-55.589 33.158-149.211 154.088-199.924 21.455-0.975 29.257-0.975 33.158-2.926-3.901 1.95-147.261 105.326-119.954 313.051z" />
<glyph unicode="&#xe903;" glyph-name="cart" d="M847.36 732.16c33.28 0 48.64-20.48 48.64-43.52v-215.040c0-23.040-17.92-43.52-40.96-43.52l-455.68-51.2c-35.84-5.12-40.96-51.2 2.56-51.2h432.64c48.64 0 48.64-71.68 0-71.68h-440.32c-99.84 0-138.24 107.52-58.88 166.4l38.4 28.16-140.8 304.64h-66.56c-51.2 0-51.2 81.92 0 81.92h81.92c40.96 0 51.2-17.92 64-48.64l28.16-58.88 506.88 2.56zM360.96 128c0-38.4-30.72-69.12-69.12-69.12s-69.12 30.72-69.12 69.12 30.72 69.12 69.12 69.12c40.96 2.56 69.12-28.16 69.12-69.12zM401.92 591.36h115.2l-25.6 76.8h-122.88l33.28-76.8zM555.52 458.24l-28.16 92.16h-107.52l46.080-99.84 89.6 7.68zM532.48 668.16l23.040-76.8h110.080l-17.92 76.8h-115.2zM696.32 473.6l-23.040 76.8h-107.52l28.16-89.6 102.4 12.8zM832 668.16h-143.36l17.92-76.8h130.56v76.8h-5.12zM839.68 128c0-38.4-30.72-69.12-69.12-69.12s-69.12 30.72-69.12 69.12 30.72 69.12 69.12 69.12c35.84 2.56 69.12-28.16 69.12-69.12zM832 550.4h-117.76l17.92-69.12 99.84 10.24v58.88z" />
<glyph unicode="&#xe904;" glyph-name="check" d="M888.32 647.68l-107.52 112.64c-10.24 10.24-23.040 10.24-35.84-5.12l-317.44-337.92-151.040 158.72c-12.8 12.8-23.040 15.36-35.84 5.12l-107.52-112.64c-10.24-10.24-7.68-23.040 5.12-35.84l286.72-304.64 460.8 483.84c12.8 12.8 12.8 25.6 2.56 35.84z" />
<glyph unicode="&#xe905;" glyph-name="chevron_left" d="M711.68 133.12l-343.040 343.040c-15.36 15.36-40.96 15.36-56.32 0s-15.36-40.96 0-56.32l343.040-343.040c15.36-15.36 40.96-15.36 56.32 0s15.36 40.96 0 56.32zM655.36 819.2l-343.040-343.040c-15.36-15.36-15.36-40.96 0-56.32s40.96-15.36 56.32 0l343.040 343.040c15.36 15.36 15.36 40.96 0 56.32-15.36 17.92-40.96 17.92-56.32 0z" />
<glyph unicode="&#xe906;" glyph-name="chevron_right" d="M312.32 762.88l343.040-343.040c15.36-15.36 40.96-15.36 56.32 0s15.36 40.96 0 56.32l-343.040 343.040c-15.36 15.36-40.96 15.36-56.32 0s-15.36-40.96 0-56.32zM368.64 76.8l343.040 343.040c15.36 15.36 15.36 40.96 0 56.32s-40.96 15.36-56.32 0l-343.040-343.040c-15.36-15.36-15.36-40.96 0-56.32 15.36-17.92 40.96-17.92 56.32 0z" />
<glyph unicode="&#xe907;" glyph-name="click_and_collect" d="M755.2 657.92v0 0l-64 28.16-15.36-2.56c-17.92 79.36-64 133.12-120.32 133.12-7.68 0-12.8 0-20.48-2.56-20.48 20.48-46.080 30.72-74.24 30.72-84.48 0-128-112.64-128-215.040l-76.8-12.8-10.24-519.68 104.96-46.080 424.96 66.56-20.48 540.16zM622.080 675.84l-33.28-5.12c0 33.28-7.68 61.44-17.92 87.040 20.48-10.24 38.4-40.96 51.2-81.92zM532.48 660.48l-51.2-7.68c5.12 38.4 20.48 71.68 35.84 89.6 10.24-20.48 15.36-48.64 15.36-81.92zM424.96 611.84l-92.16-12.8-56.32 10.24 148.48 23.040c0-5.12 0-10.24 0-20.48 0 2.56 0 0 0 0zM386.56 637.44c2.56 81.92 33.28 151.040 74.24 151.040 7.68 0 17.92-2.56 25.6-5.12-30.72-30.72-51.2-79.36-56.32-140.8l-43.52-5.12zM460.8 532.48c-17.92 0-33.28 15.36-33.28 33.28s15.36 33.28 33.28 33.28 33.28-15.36 33.28-33.28c0-20.48-12.8-33.28-33.28-33.28zM481.28 619.52c0 7.68 0 15.36 0 20.48l140.8 23.040c0-7.68 2.56-12.8 2.56-20.48l-143.36-23.040zM665.6 563.2c-17.92 0-33.28 15.36-33.28 33.28s15.36 33.28 33.28 33.28c17.92 0 33.28-15.36 33.28-33.28s-12.8-33.28-33.28-33.28zM678.4 650.24c0 7.68-2.56 15.36-5.12 23.040l12.8 2.56 40.96-17.92-48.64-7.68z" />
<glyph unicode="&#xe908;" glyph-name="conf" d="M573.44 448c0-35.346-28.654-64-64-64s-64 28.654-64 64c0 35.346 28.654 64 64 64s64-28.654 64-64zM509.44 286.72c-87.040 0-158.72 71.68-158.72 158.72s71.68 158.72 158.72 158.72 158.72-71.68 158.72-158.72c0-87.040-71.68-158.72-158.72-158.72zM878.080 514.56l-92.16 17.92c-5.12 17.92-10.24 35.84-20.48 53.76l51.2 79.36c2.56 7.68 2.56 17.92-2.56 25.6l-64 64c-5.12 5.12-17.92 5.12-25.6 2.56l-79.36-53.76c-17.92 10.24-33.28 17.92-56.32 23.040l-17.92 92.16c2.56 7.68-7.68 12.8-17.92 12.8h-94.72c-10.24 0-17.92-7.68-17.92-15.36l-17.92-94.72c-17.92-5.12-35.84-10.24-51.2-20.48l-76.8 51.2c-7.68 2.56-17.92 2.56-25.6-2.56l-66.56-64c-5.12-5.12-5.12-17.92-2.56-25.6l53.76-79.36c-10.24-17.92-17.92-33.28-20.48-51.2l-92.16-17.92c-10.24 0-15.36-10.24-15.36-17.92v-94.72c0-10.24 7.68-17.92 15.36-17.92l92.16-17.92c5.12-17.92 12.8-35.84 20.48-53.76l-51.2-76.8c-2.56-7.68-2.56-17.92 2.56-25.6l64-64c5.12-5.12 17.92-7.68 25.6-2.56l76.8 51.2c17.92-10.24 33.28-17.92 51.2-20.48l17.92-94.72c2.56-10.24 10.24-15.36 17.92-15.36h94.72c10.24 0 17.92 7.68 17.92 15.36l17.92 92.16c17.92 5.12 35.84 10.24 56.32 20.48l79.36-53.76c7.68-2.56 17.92-2.56 25.6 2.56l64 64c5.12 5.12 7.68 17.92 2.56 25.6l-51.2 76.8c10.24 17.92 17.92 33.28 23.040 56.32l92.16 17.92c10.24 2.56 15.36 10.24 15.36 17.92v94.72c-5.12 10.24-15.36 20.48-17.92 23.040z" />
<glyph unicode="&#xe909;" glyph-name="contact" d="M453.12 107.52h294.4c17.92 0 30.72 15.36 30.72 30.72v616.96c0 17.92-12.8 33.28-30.72 33.28h-471.040c-17.92 0-30.72-15.36-30.72-30.72v-619.52c0-17.92 15.36-30.72 30.72-30.72h176.64zM327.68 135.68h-48.64v619.52h471.040l-5.12-619.52h-417.28zM650.24 660.48h-276.48c-7.68 0-15.36-7.68-15.36-15.36s7.68-15.36 15.36-15.36h279.040c7.68 0 15.36 7.68 15.36 15.36s-7.68 15.36-17.92 15.36zM650.24 568.32h-276.48c-7.68 0-15.36-7.68-15.36-15.36s7.68-15.36 15.36-15.36h279.040c7.68 0 15.36 7.68 15.36 15.36s-7.68 15.36-17.92 15.36zM650.24 476.16h-276.48c-7.68 0-15.36-7.68-15.36-15.36s7.68-15.36 15.36-15.36h279.040c7.68 0 15.36 7.68 15.36 15.36s-7.68 15.36-17.92 15.36zM650.24 384h-276.48c-7.68 0-15.36-7.68-15.36-15.36s7.68-15.36 15.36-15.36h279.040c7.68 0 15.36 7.68 15.36 15.36s-7.68 15.36-17.92 15.36zM650.24 291.84h-276.48c-7.68 0-15.36-7.68-15.36-15.36s7.68-15.36 15.36-15.36h276.48c7.68 0 15.36 7.68 15.36 15.36 2.56 10.24-5.12 15.36-15.36 15.36z" />
<glyph unicode="&#xe90a;" glyph-name="cookies" d="M314.88 391.68c0 5.12 0 10.24 0 17.92-79.36 23.040-138.24 74.24-138.24 135.68 0 12.8 0 33.28 0 33.28 17.92-43.52 87.040-79.36 163.84-92.16l43.52 61.44c7.68 12.8 20.48 25.6 30.72 35.84 12.8 10.24 25.6 17.92 40.96 25.6 17.92 7.68 38.4 12.8 58.88 17.92-2.56 5.12-2.56 7.68-2.56 12.8 0 10.24 7.68 17.92 17.92 17.92s17.92-7.68 17.92-17.92c0-2.56 0-5.12-2.56-7.68 2.56 0 5.12 0 7.68 0 40.96 0 84.48-7.68 128-25.6 0 104.96-125.44 189.44-276.48 189.44-151.040-2.56-276.48-87.040-276.48-192v-81.92c0-84.48 81.92-156.16 192-179.2-2.56 15.36-5.12 30.72-5.12 48.64zM496.64 739.84c10.24 0 17.92-7.68 17.92-17.92s-7.68-17.92-17.92-17.92-17.92 7.68-17.92 17.92c0 7.68 7.68 17.92 17.92 17.92zM422.4 675.84c10.24 0 17.92-7.68 17.92-17.92s-7.68-17.92-17.92-17.92-17.92 7.68-17.92 17.92c0 7.68 7.68 17.92 17.92 17.92zM353.28 716.8c10.24 0 17.92-7.68 17.92-17.92s-7.68-17.92-17.92-17.92-17.92 7.68-17.92 17.92 7.68 17.92 17.92 17.92zM309.76 632.32c10.24 0 17.92-7.68 17.92-17.92s-7.68-17.92-17.92-17.92-17.92 7.68-17.92 17.92c0 7.68 7.68 17.92 17.92 17.92zM258.56 680.96c10.24 0 17.92-7.68 17.92-17.92s-7.68-17.92-17.92-17.92-17.92 7.68-17.92 17.92c-2.56 10.24 7.68 17.92 17.92 17.92zM739.84 547.84c-17.92 12.8-38.4 20.48-56.32 30.72-43.52 17.92-87.040 28.16-128 28.16-64 0-120.32-23.040-151.040-69.12l-33.28-53.76-10.24-17.92c-12.8-17.92-17.92-40.96-20.48-64-2.56-20.48 0-43.52 7.68-64 17.92-64 71.68-133.12 148.48-179.2 61.44-38.4 128-58.88 186.88-58.88 64 0 120.32 23.040 148.48 69.12 0 0 43.52 69.12 43.52 71.68 56.32 87.040-5.12 225.28-135.68 307.2zM739.84 348.16c0-10.24-7.68-17.92-17.92-17.92s-17.92 7.68-17.92 17.92c0 10.24 7.68 17.92 17.92 17.92s17.92-7.68 17.92-17.92zM714.24 483.84c10.24 0 17.92-7.68 17.92-17.92s-7.68-17.92-17.92-17.92-17.92 7.68-17.92 17.92c0 10.24 7.68 17.92 17.92 17.92zM634.88 394.24c0-10.24-7.68-17.92-17.92-17.92-7.68 0-12.8 5.12-15.36 10.24-2.56 2.56-2.56 5.12-2.56 7.68 0 10.24 7.68 17.92 17.92 17.92 5.12 0 10.24-2.56 12.8-5.12s5.12-7.68 5.12-12.8zM660.48 471.040c0-10.24-7.68-17.92-17.92-17.92s-17.92 7.68-17.92 17.92c0 10.24 7.68 17.92 17.92 17.92 10.24 2.56 17.92-7.68 17.92-17.92zM570.88 540.16c7.68 0 15.36-5.12 17.92-12.8 0-2.56 2.56-5.12 2.56-7.68 0-10.24-7.68-17.92-17.92-17.92-5.12 0-12.8 2.56-15.36 7.68-2.56 2.56-2.56 7.68-2.56 10.24-5.12 10.24 5.12 20.48 15.36 20.48zM801.28 215.040c-43.52-69.12-168.96-69.12-271.36-5.12-51.2 33.28-92.16 76.8-112.64 122.88-10.24 20.48-15.36 40.96-15.36 61.44 0 23.040 2.56 43.52 15.36 61.44 5.12 7.68 10.24 17.92 15.36 23.040 2.56 2.56 2.56 5.12 2.56 5.12 0-2.56 0-2.56 0-5.12-2.56-23.040 5.12-53.76 23.040-81.92 10.24-17.92 25.6-38.4 43.52-56.32 20.48-23.040 46.080-43.52 74.24-61.44 87.040-53.76 197.12-74.24 245.76-38.4-2.56 2.56-15.36-15.36-20.48-25.6zM816.64 378.88c0-10.24-7.68-17.92-17.92-17.92s-17.92 7.68-17.92 17.92c0 10.24 7.68 17.92 17.92 17.92s17.92-7.68 17.92-17.92z" />
<glyph unicode="&#xe90b;" glyph-name="corporate" d="M698.88 632.32l-186.88 181.76-376.32-366.080c-5.12-7.68-7.68-15.36-7.68-23.040v0c0-25.6 30.72-38.4 51.2-20.48l145.92 143.36 186.88 184.32 186.88-181.76 145.92-143.36c17.92-17.92 51.2-5.12 51.2 20.48v0c0 7.68-2.56 15.36-7.68 20.48l-189.44 184.32zM512 663.040l-284.16-276.48v-307.2h565.76v307.2l-281.6 276.48zM499.2 153.6h-107.52v107.52h107.52v-107.52zM499.2 289.28h-107.52v107.52h107.52v-107.52zM634.88 153.6h-107.52v107.52h107.52v-107.52zM634.88 289.28h-107.52v107.52h107.52v-107.52z" />
<glyph unicode="&#xe90c;" glyph-name="devolution" d="M138.24 532.48h588.8v-81.92c0-2.56 2.56-7.68 5.12-10.24s5.12-5.12 10.24-5.12c5.12 0 7.68 2.56 10.24 5.12l138.24 138.24c2.56 2.56 5.12 5.12 5.12 10.24s-2.56 7.68-5.12 10.24l-135.68 135.68c-2.56 2.56-7.68 5.12-10.24 5.12-5.12 0-7.68-2.56-10.24-5.12s-5.12-5.12-5.12-10.24v-81.92h-588.8c-2.56 0-7.68-2.56-10.24-5.12s-5.12-5.12-5.12-7.68v-81.92c0-2.56 2.56-7.68 5.12-10.24s5.12-5.12 7.68-5.12zM880.64 368.64h-588.8v81.92c0 2.56-2.56 7.68-5.12 10.24s-5.12 5.12-10.24 5.12-7.68-2.56-10.24-5.12l-138.24-138.24c-2.56-2.56-2.56-5.12-2.56-10.24 0-2.56 2.56-7.68 5.12-10.24l135.68-138.24c2.56-2.56 7.68-5.12 10.24-5.12s7.68 2.56 10.24 5.12c2.56 2.56 5.12 5.12 5.12 10.24v81.92h588.8c2.56 0 7.68 2.56 10.24 5.12s5.12 5.12 5.12 10.24v81.92c0 2.56-2.56 7.68-5.12 10.24-5.12 2.56-7.68 5.12-10.24 5.12z" />
<glyph unicode="&#xe90d;" glyph-name="edit" d="M688.64 778.24c-10.24 10.24-10.24 25.6 0 35.84s25.6 10.24 35.84 0l97.28-97.28c10.24-10.24 10.24-25.6 0-35.84-5.12-5.12-10.24-7.68-17.92-7.68-5.12 0-12.8 2.56-17.92 7.68l-97.28 97.28zM832 125.44h-640c-12.8 0-25.6-10.24-25.6-25.6 0-12.8 10.24-25.6 25.6-25.6h642.56c12.8 0 25.6 10.24 25.6 25.6-2.56 12.8-12.8 25.6-28.16 25.6zM202.24 197.12c-5.12 5.12-7.68 15.36-7.68 23.040l35.84 133.12c0 5.12 2.56 7.68 7.68 10.24l384 384c10.24 10.24 25.6 10.24 35.84 0l97.28-97.28c5.12-5.12 7.68-10.24 7.68-17.92s-2.56-12.8-7.68-17.92l-384-384c-2.56-2.56-7.68-5.12-10.24-7.68l-130.56-33.28c-2.56 0-5.12 0-5.12 0-10.24 0-17.92 2.56-23.040 7.68zM256 250.88l81.92 23.040 360.96 360.96-58.88 58.88-360.96-360.96-23.040-81.92z" />
<glyph unicode="&#xe90e;" glyph-name="error" d="M729.6 665.6c-58.88 58.88-135.68 89.6-217.6 89.6s-158.72-30.72-217.6-89.6-89.6-135.68-89.6-217.6 30.72-158.72 89.6-217.6 135.68-89.6 217.6-89.6 158.72 30.72 217.6 89.6 89.6 135.68 89.6 217.6-30.72 158.72-89.6 217.6v0zM581.12 442.88l76.8-76.8c5.12-5.12 5.12-15.36 0-23.040l-43.52-43.52c-2.56-2.56-7.68-5.12-10.24-5.12-5.12 0-7.68 2.56-10.24 5.12l-76.8 76.8c-2.56 2.56-5.12 2.56-5.12 0l-76.8-76.8c-2.56-2.56-7.68-5.12-10.24-5.12-5.12 0-7.68 2.56-10.24 5.12l-43.52 43.52c-2.56 2.56-5.12 7.68-5.12 10.24 0 5.12 2.56 7.68 5.12 10.24l76.8 76.8c2.56 2.56 2.56 5.12 0 5.12l-79.36 79.36c-10.24 5.12-10.24 10.24-10.24 15.36s2.56 7.68 5.12 10.24l43.52 43.52c2.56 2.56 7.68 5.12 10.24 5.12 5.12 0 7.68-2.56 10.24-5.12l79.36-79.36c2.56-2.56 5.12-2.56 5.12 0l79.36 79.36c2.56 2.56 7.68 5.12 10.24 5.12 5.12 0 7.68-2.56 10.24-5.12l43.52-43.52c2.56-2.56 5.12-7.68 5.12-10.24 0-5.12-2.56-7.68-5.12-10.24l-74.24-81.92c-2.56-2.56-2.56-5.12 0-5.12v0z" />
<glyph unicode="&#xe90f;" glyph-name="univ-9" d="M729.478-8.411c-6.827 0-13.653 0-19.505 0-59.49 0-119.954 0-180.419 0-8.777 0-10.728 1.95-10.728 10.728 0 197.973 0 396.922 0 594.895 0 9.752 1.95 11.703 11.703 13.653 36.084 4.876 65.341 23.406 87.771 53.638 4.876 5.851 6.827 13.653 11.703 20.48 0.975 1.95 5.851 3.901 8.777 1.95 20.48-8.777 39.985-16.579 60.465-25.356 4.876-1.95 5.851-3.901 3.901-8.777-16.579-39.985-15.604-78.994 5.851-117.029 3.901-5.851 5.851-10.728 10.728-15.604 8.777-9.752 1.95-19.505 0-29.257-6.827-23.406-15.604-45.836-25.356-69.242-5.851-14.629-14.629-29.257-18.53-44.861-6.827-26.331-9.752-55.589-4.876-83.87 4.876-29.257 9.752-58.514 16.579-86.796 4.876-21.455 11.703-43.886 18.53-65.341 4.876-18.53 6.827-38.034 11.703-55.589 1.95-10.728 4.876-23.406 5.851-34.133 1.95-16.579 5.851-34.133 8.777-50.712-0.975-3.901-2.926-4.876-2.926-8.777zM763.611 604.038c0.975-23.406-20.48-31.208-39.010-29.257-1.95 0-4.876 6.827-6.827 10.728 0 0 4.876 3.901 6.827 4.876 4.876 0.975 9.752 0.975 13.653 1.95 6.827 3.901 8.777 14.629 1.95 20.48-4.876 3.901-10.728 5.851-14.629 10.728-1.95 1.95-4.876 8.777-3.901 9.752 0.975 3.901 6.827 6.827 9.752 5.851 13.653-4.876 25.356-13.653 30.232-28.282 1.95 0 0.975-3.901 1.95-6.827zM260.389 606.964c0 14.629 16.579 34.133 31.208 35.109 1.95 0 6.827-1.95 8.777-4.876 1.95-3.901 3.901-6.827-1.95-10.728-6.827-4.876-14.629-9.752-18.53-15.604-4.876-8.777-0.975-15.604 9.752-16.579 1.95 0 4.876-0.975 6.827-0.975 4.876 0 9.752-0.975 6.827-6.827-0.975-3.901-4.876-8.777-6.827-8.777-16.579-4.876-37.059 3.901-36.084 29.257zM493.47 602.088c0 4.876-0.975 8.777-6.827 9.752-3.901 0-8.777 1.95-11.703 3.901-36.084 10.728-62.415 34.133-78.994 68.267-1.95 3.901-3.901 6.827-9.752 4.876-19.505-8.777-39.985-16.579-59.49-25.356-5.851-1.95-5.851-3.901-3.901-9.752 4.876-18.53 11.703-36.084 11.703-54.613 0-29.257-10.728-57.539-30.232-79.97-1.95-3.901-1.95-9.752-1.95-13.653 0-1.95 0.975-4.876 1.95-6.827 5.851-19.505 11.703-39.010 19.505-57.539 8.777-20.48 19.505-39.985 25.356-60.465 5.851-24.381 8.777-48.762 6.827-74.118-3.901-39.985-13.653-78.019-21.455-117.029-4.876-21.455-11.703-43.886-18.53-65.341-1.95-8.777-3.901-16.579-5.851-25.356-1.95-11.703-4.876-25.356-5.851-39.010-1.95-18.53-5.851-38.034-8.777-55.589-0.975-9.752 1.95-10.728 10.728-10.728 59.49 0 118.004 0 177.493 0 3.901 0 5.851 0 10.728 0 0 1.95 0 3.901 0 5.851 0 148.236 0 296.472 0 446.659-0.975 50.712-0.975 102.4-0.975 156.038zM463.238 560.152c8.777 0 16.579-6.827 16.579-16.579 0-6.827-8.777-16.579-15.604-16.579-8.777 0-16.579 8.777-16.579 16.579s8.777 16.579 15.604 16.579zM463.238 444.099c8.777 0 16.579-8.777 18.53-16.579 0-6.827-8.777-18.53-16.579-18.53-6.827 0-16.579 9.752-16.579 18.53-1.95 5.851 7.802 15.604 14.629 16.579zM481.768 309.516c0-9.752-8.777-16.579-16.579-16.579s-16.579 8.777-16.579 16.579c0 6.827 9.752 16.579 15.604 16.579 6.827 0.975 17.554-9.752 17.554-16.579zM466.164 207.116c8.777 0 15.604-5.851 15.604-14.629 0-9.752-6.827-15.604-16.579-15.604-10.728 0-18.53 5.851-16.579 15.604-0.975 9.752 4.876 14.629 17.554 14.629zM464.213 58.88c-8.777 0-16.579 6.827-18.53 14.629 0 9.752 6.827 16.579 18.53 16.579 8.777 0 16.579-6.827 16.579-15.604 0.975-5.851-8.777-14.629-16.579-15.604zM595.87 704.488c-16.579 6.827-31.208 15.604-43.886 29.257-5.851 5.851-11.703 13.653-19.505 15.604-13.653 3.901-13.653 11.703-11.703 21.455 0.975 14.629-3.901 26.331-15.604 36.084-5.851 4.876-11.703 10.728-18.53 16.579-11.703 10.728-15.604 30.232-9.752 42.91 6.827 15.604 24.381 25.356 39.985 23.406 18.53-1.95 30.232-16.579 34.133-36.084 0-3.901 3.901-5.851 5.851-8.777 1.95 3.901 6.827 6.827 6.827 10.728-3.901 25.356-19.505 45.836-48.762 47.787-31.208 1.95-53.638-26.331-53.638-49.737 0-18.53 6.827-31.208 20.48-43.886 13.653-10.728 26.331-21.455 24.381-42.91-0.975-9.752-0.975-18.53-13.653-19.505-1.95 0-4.876-1.95-5.851-3.901-5.851-4.876-11.703-10.728-18.53-15.604-13.653-8.777-25.356-16.579-39.985-24.381-9.752-5.851-10.728-6.827-4.876-16.579 3.901-5.851 8.777-10.728 11.703-15.604 20.48-23.406 45.836-35.109 79.97-38.034 8.777 0.975 20.48 1.95 31.208 6.827 23.406 9.752 42.91 24.381 54.613 47.787 5.851 10.728 5.851 12.678-4.876 16.579zM557.836 695.71c-31.208 0-62.415 0-93.623 0-0.975 0-1.95 0-3.901 0.975s-3.901 1.95-5.851 3.901v0 0c0.975 0.975 1.95 1.95 3.901 1.95 0.975 0.975 1.95 1.95 3.901 1.95 21.455 15.604 47.787 9.752 72.168 9.752 10.728 0 21.455-6.827 33.158-10.728 0-0.975 0-1.95 0.975-3.901-2.926 0-6.827-3.901-10.728-3.901z" />
<glyph unicode="&#xe910;" glyph-name="favourite" d="M788.48 701.44c-23.040 20.48-61.44 38.4-102.4 38.4-56.32 0-120.32-28.16-176.64-112.64-56.32 84.48-122.88 112.64-176.64 112.64-43.52 0-79.36-15.36-102.4-38.4-51.2-43.52-74.24-104.96-61.44-179.2 17.92-107.52 209.92-220.16 343.040-363.52 133.12 143.36 325.12 253.44 343.040 363.52 7.68 71.68-12.8 135.68-66.56 179.2zM793.6 532.48c-7.68-48.64-89.6-117.76-166.4-184.32-38.4-33.28-79.36-69.12-117.76-104.96-38.4 35.84-79.36 71.68-117.76 104.96-79.36 66.56-158.72 135.68-166.4 184.32-7.68 51.2 5.12 94.72 40.96 125.44v0 0c15.36 15.36 40.96 23.040 64 23.040 46.080 0 92.16-30.72 130.56-87.040l48.64-71.68 48.64 71.68c38.4 56.32 84.48 87.040 130.56 87.040 23.040 0 48.64-7.68 64-23.040v0 0c35.84-33.28 51.2-71.68 40.96-125.44z" />
<glyph unicode="&#xe911;" glyph-name="favourite_2" d="M788.48 701.44c-23.040 20.48-61.44 38.4-102.4 38.4-56.32 0-120.32-28.16-176.64-112.64-56.32 84.48-122.88 112.64-176.64 112.64-43.52 0-79.36-15.36-102.4-38.4-51.2-43.52-74.24-104.96-61.44-179.2 17.92-107.52 209.92-220.16 343.040-363.52 133.12 143.36 325.12 253.44 343.040 363.52 7.68 74.24-12.8 138.24-66.56 179.2z" />
<glyph unicode="&#xe912;" glyph-name="univ-7" d="M275.992 707.452c0-60.863-49.339-110.202-110.202-110.202s-110.202 49.339-110.202 110.202c0 60.863 49.339 110.202 110.202 110.202s110.202-49.339 110.202-110.202zM166.385 551.444c0 0 33.158 12.678 110.202 0 78.019-12.678 154.088 23.406 229.181 71.192 34.133 19.505 65.341 41.935 93.623 68.267 0 0-112.152-191.147-258.438-205.775 0 0-6.827-89.722 41.935-136.533 47.787-45.836 100.45 33.158 216.503 57.539 116.053 23.406 192.122 3.901 258.438-78.994 50.712-62.415 86.796-134.583 110.202-212.602 2.926-24.381-62.415 171.642-234.057 198.949s-223.33-155.063-276.968-178.469c-52.663-21.455-163.84-51.688-242.834 51.688s-170.667 269.166-47.787 364.739zM526.18 693.116c-2.926 0-3.901 0.975-5.851 2.926-44.861 105.326-212.602 84.846-213.577 84.846-2.926 0-5.851 0.975-5.851 3.901s0.975 5.851 3.901 5.851c31.208 2.926 62.415 2.926 93.623-2.926 65.341-10.728 112.152-41.935 131.657-88.747 0.975-2.926 0-5.851-2.926-6.827 0 0.975 0 0.975-0.975 0.975zM537.59 749.349c-2.926 0-3.901 0.975-5.851 2.926-47.787 103.375-199.924 85.821-201.874 85.821-2.926 0-5.851 0.975-5.851 3.901s0.975 5.851 3.901 5.851c0.975 0 160.914 19.505 213.577-91.672 0.975-2.926 0-5.851-2.926-6.827 0.975 1.95 0.975 0-0.975 0zM82.895 47.177h858.21c6.827 0 12.678 7.802 12.678 17.554s-5.851 17.554-12.678 17.554h-858.21c-6.827 0-12.678-7.802-12.678-17.554s6.827-17.554 12.678-17.554v0z" />
<glyph unicode="&#xe913;" glyph-name="filter" d="M458.24 688.64c25.6 0 48.64-20.48 48.64-48.64s-20.48-48.64-48.64-48.64-48.64 23.040-48.64 48.64 23.040 48.64 48.64 48.64zM151.040 616.96h215.040c10.24-40.96 48.64-71.68 92.16-71.68s81.92 30.72 92.16 71.68h320c12.8 0 23.040 10.24 23.040 23.040s-10.24 23.040-23.040 23.040h-320c-10.24 40.96-48.64 71.68-92.16 71.68s-81.92-30.72-92.16-71.68h-215.040c-12.8 0-23.040-10.24-23.040-23.040s10.24-23.040 23.040-23.040zM727.040 399.36c-25.6 0-48.64 20.48-48.64 48.64 0 25.6 20.48 48.64 48.64 48.64s48.64-20.48 48.64-48.64c0-25.6-20.48-48.64-48.64-48.64zM872.96 471.040h-51.2c-10.24 40.96-48.64 71.68-92.16 71.68s-81.92-30.72-92.16-71.68h-486.4c-12.8 0-23.040-10.24-23.040-23.040s10.24-23.040 23.040-23.040h483.84c10.24-40.96 48.64-71.68 92.16-71.68s81.92 30.72 92.16 71.68h51.2c12.8 0 23.040 10.24 23.040 23.040 2.56 12.8-7.68 23.040-20.48 23.040zM314.88 207.36c-25.6 0-48.64 20.48-48.64 48.64s20.48 48.64 48.64 48.64c25.6 0 48.64-20.48 48.64-48.64s-23.040-48.64-48.64-48.64zM872.96 279.040h-465.92c-10.24 40.96-48.64 71.68-92.16 71.68s-81.92-30.72-92.16-71.68h-71.68c-12.8 0-23.040-10.24-23.040-23.040s10.24-23.040 23.040-23.040h69.12c10.24-40.96 48.64-71.68 92.16-71.68s81.92 30.72 92.16 71.68h465.92c12.8 0 23.040 10.24 23.040 23.040s-7.68 23.040-20.48 23.040z" />
<glyph unicode="&#xe914;" glyph-name="hamburguer" d="M184.32 611.84h657.92c30.72 0 56.32 25.6 56.32 56.32s-25.6 56.32-56.32 56.32h-657.92c-30.72-2.56-56.32-28.16-56.32-58.88s25.6-53.76 56.32-53.76zM839.68 504.32h-655.36c-30.72 0-56.32-25.6-56.32-56.32s25.6-56.32 56.32-56.32h657.92c30.72 0 56.32 25.6 56.32 56.32-2.56 30.72-28.16 56.32-58.88 56.32zM839.68 284.16h-655.36c-30.72 0-56.32-25.6-56.32-56.32s25.6-56.32 56.32-56.32h657.92c30.72 0 56.32 25.6 56.32 56.32-7.68 30.72-28.16 56.32-58.88 56.32z" />
<glyph unicode="&#xe915;" glyph-name="historical" d="M384 243.2h-192l25.6 468.48h337.92l12.8-243.2c0-7.68 7.68-12.8 12.8-12.8 7.68 0 12.8 7.68 12.8 12.8l-12.8 256c0 7.68-5.12 12.8-12.8 12.8h-363.52c-7.68-2.56-12.8-7.68-12.8-15.36l-25.6-494.080c0-2.56 0-7.68 2.56-10.24 2.56 2.56 5.12 0 10.24 0h204.8c7.68 0 12.8 5.12 12.8 12.8s-5.12 12.8-12.8 12.8zM289.28 688.64c-7.68 0-12.8-5.12-12.8-12.8v-61.44c0-58.88 48.64-104.96 104.96-104.96s104.96 48.64 104.96 104.96v61.44c0 7.68-5.12 12.8-12.8 12.8s-12.8-5.12-12.8-12.8v-61.44c0-43.52-35.84-79.36-79.36-79.36s-79.36 35.84-79.36 79.36v61.44c0 7.68-7.68 12.8-12.8 12.8zM844.8 440.32h-35.84l-7.68 143.36c0 7.68-5.12 12.8-12.8 12.8h-20.48v12.8c0 25.6-20.48 46.080-46.080 46.080s-46.080-20.48-46.080-46.080v-12.8h-17.92c-7.68 0-12.8-5.12-12.8-12.8l-7.68-143.36h-209.92c-7.68 0-12.8-5.12-12.8-12.8v-256c0-7.68 5.12-12.8 12.8-12.8h417.28c7.68 0 12.8 5.12 12.8 12.8v256c0 7.68-7.68 12.8-12.8 12.8zM701.44 611.84c0 10.24 10.24 20.48 20.48 20.48s20.48-10.24 20.48-20.48v-12.8h-40.96v12.8zM670.72 568.32h104.96l7.68-128h-117.76l5.12 128zM832 414.72v-38.4h-391.68v38.4h391.68zM440.32 186.88v163.84h391.68v-163.84h-391.68z" />
<glyph unicode="&#xe916;" glyph-name="legal_advice" d="M440.32 204.8c0 15.36-12.8 28.16-28.16 28.16h-217.6c-15.36 0-28.16-12.8-28.16-28.16 0-5.12 0-10.24 2.56-12.8h-40.96v-58.88h348.16v56.32h-40.96c2.56 5.12 5.12 10.24 5.12 15.36zM401.92 693.76l181.76-115.2c15.36-7.68 30.72-2.56 40.96 10.24l7.68 12.8c10.24 15.36 5.12 33.28-10.24 43.52l-176.64 112.64c-15.36 10.24-33.28 5.12-43.52-10.24l-7.68-12.8c-7.68-12.8-5.12-30.72 7.68-40.96zM896 250.88v5.12c0 2.56 0 2.56 0 5.12 0 7.68-2.56 12.8-5.12 17.92-2.56 10.24-7.68 17.92-15.36 23.040-2.56 2.56-2.56 2.56-5.12 5.12l-5.12 2.56c-2.56 2.56-7.68 5.12-10.24 7.68s-7.68 5.12-10.24 7.68c-2.56 2.56-7.68 5.12-10.24 7.68-7.68 5.12-12.8 10.24-20.48 15.36l-20.48 15.36c-7.68 5.12-15.36 10.24-20.48 12.8-7.68 5.12-15.36 7.68-20.48 12.8l-138.24 76.8c-7.68 5.12-15.36 7.68-23.040 12.8s-15.36 7.68-23.040 12.8l-5.12-17.92-35.84 15.36 38.4 61.44-181.76 115.2-94.72-148.48 181.76-115.2 38.4 61.44 30.72-25.6-7.68-10.24c7.68-5.12 12.8-10.24 20.48-15.36s12.8-10.24 20.48-15.36l122.88-92.16c7.68-5.12 15.36-10.24 20.48-12.8 7.68-5.12 15.36-10.24 20.48-12.8l20.48-15.36c7.68-5.12 15.36-7.68 23.040-12.8 2.56-2.56 7.68-5.12 10.24-5.12 2.56-2.56 7.68-5.12 10.24-5.12 2.56-2.56 7.68-5.12 10.24-5.12l5.12-2.56c2.56 0 2.56-2.56 5.12-2.56 7.68-2.56 17.92-5.12 28.16-5.12 5.12 0 10.24 2.56 17.92 2.56 2.56 0 2.56 0 5.12 2.56h5.12c2.56 2.56 7.68 2.56 10.24 5.12 7.68 7.68 7.68 10.24 7.68 15.36zM232.96 422.4l176.64-112.64c15.36-10.24 33.28-5.12 43.52 10.24l7.68 12.8c7.68 12.8 5.12 30.72-7.68 40.96l-181.76 115.2c-15.36 7.68-30.72 2.56-40.96-10.24l-7.68-12.8c-7.68-15.36-2.56-33.28 10.24-43.52z" />
<glyph unicode="&#xe917;" glyph-name="less" d="M839.68 504.32h-655.36c-30.72 0-56.32-25.6-56.32-56.32s25.6-56.32 56.32-56.32h657.92c30.72 0 56.32 25.6 56.32 56.32-2.56 30.72-28.16 56.32-58.88 56.32z" />
<glyph unicode="&#xe918;" glyph-name="login" d="M128 102.4h765.44c0 0 7.68 56.32-12.8 89.6-23.040 35.84-102.4 58.88-176.64 89.6-76.8 33.28-97.28 43.52-97.28 43.52l-20.48 71.68c0 0 48.64 23.040 58.88 89.6 20.48-5.12 35.84 48.64 35.84 66.56 5.12 20.48 0 43.52-23.040 38.4 2.56 5.12 2.56 7.68 2.56 10.24v0c5.12 30.72 7.68 56.32 5.12 69.12-2.56 35.84-28.16 76.8-66.56 99.84h-2.56c-20.48 10.24-51.2 20.48-89.6 23.040-33.28-2.56-61.44-7.68-81.92-23.040-5.12-2.56-10.24-10.24-12.8-12.8-2.56 0-28.16-7.68-43.52-28.16-20.48-30.72-12.8-107.52-10.24-143.36-20.48 5.12-25.6-20.48-23.040-35.84 0-15.36 20.48-69.12 35.84-66.56 10.24-69.12 58.88-89.6 58.88-89.6l-17.92-74.24c0 0-20.48-12.8-94.72-43.52-76.8-33.28-153.6-56.32-176.64-89.6-15.36-28.16-12.8-84.48-12.8-84.48z" />
<glyph unicode="&#xe919;" glyph-name="logout" d="M650.24 634.88v117.76c0 17.92-15.36 33.28-33.28 33.28h-417.28c-17.92 0-33.28-15.36-33.28-33.28v-478.72c0-12.8 7.68-23.040 17.92-30.72l256-133.12c10.24-5.12 25.6 2.56 25.6 15.36v130.56h151.040c17.92 0 33.28 15.36 33.28 33.28v184.32h-66.56v-133.12c0-10.24-7.68-17.92-17.92-17.92h-99.84v286.72c0 12.8-7.68 23.040-17.92 30.72l-151.040 76.8h268.8c10.24 0 17.92-7.68 17.92-17.92v-66.56l66.56 2.56zM737.28 691.2l110.080-110.080c12.8-12.8 12.8-35.84 0-48.64l-110.080-110.080c-12.8-12.8-35.84-15.36-48.64 0-12.8 12.8-12.8 35.84 0 48.64l48.64 48.64h-192c-10.24 0-17.92 5.12-25.6 10.24-15.36 17.92-12.8 46.080 7.68 58.88 5.12 2.56 10.24 5.12 17.92 5.12h192l-48.64 48.64c-12.8 12.8-15.36 35.84 0 48.64 12.8 15.36 33.28 12.8 48.64 0z" />
<glyph unicode="&#xe91a;" glyph-name="minus" d="M842.24 558.080h-660.48c-28.16 0-51.2-23.040-51.2-51.2v-117.76c0-28.16 23.040-51.2 51.2-51.2h657.92c28.16 0 51.2 23.040 51.2 51.2v117.76c2.56 28.16-20.48 51.2-48.64 51.2z" />
<glyph unicode="&#xe91b;" glyph-name="more" d="M842.24 558.080h-220.16v220.16c0 28.16-23.040 51.2-51.2 51.2h-117.76c-28.16 0-51.2-23.040-51.2-51.2v-220.16h-220.16c-28.16 0-51.2-23.040-51.2-51.2v-117.76c0-28.16 23.040-51.2 51.2-51.2h220.16v-220.16c0-28.16 23.040-51.2 51.2-51.2h117.76c28.16 0 51.2 23.040 51.2 51.2v220.16h220.16c28.16 0 51.2 23.040 51.2 51.2v117.76c0 28.16-23.040 51.2-51.2 51.2z" />
<glyph unicode="&#xe91c;" glyph-name="more_circle" d="M512 793.6c-189.44 0-345.6-156.16-345.6-345.6s156.16-345.6 345.6-345.6 345.6 156.16 345.6 345.6-156.16 345.6-345.6 345.6zM686.080 412.16h-138.24v-138.24h-69.12v138.24h-138.24v69.12h138.24v138.24h69.12v-138.24h138.24v-69.12z" />
<glyph unicode="&#xe91d;" glyph-name="ok_sign" d="M778.24 601.6c-28.16 46.080-64 84.48-112.64 112.64-46.080 28.16-97.28 40.96-153.6 40.96s-107.52-12.8-153.6-40.96-84.48-64-112.64-112.64c-28.16-46.080-40.96-97.28-40.96-153.6s12.8-107.52 40.96-153.6 64-84.48 112.64-112.64c46.080-28.16 97.28-40.96 153.6-40.96s107.52 12.8 153.6 40.96 84.48 64 112.64 112.64c28.16 46.080 40.96 97.28 40.96 153.6s-12.8 107.52-40.96 153.6v0zM711.68 494.080l-217.6-217.6c-5.12-5.12-10.24-7.68-17.92-7.68s-12.8 2.56-17.92 7.68l-145.92 145.92c-5.12 5.12-7.68 10.24-7.68 17.92s2.56 12.8 7.68 17.92l35.84 35.84c5.12 5.12 10.24 7.68 17.92 7.68s12.8-2.56 17.92-7.68l89.6-89.6 163.84 163.84c5.12 5.12 10.24 7.68 17.92 7.68s12.8-2.56 17.92-7.68l35.84-35.84c5.12-5.12 7.68-10.24 7.68-17.92 2.56-10.24 0-15.36-5.12-20.48v0z" />
<glyph unicode="&#xe91e;" glyph-name="option_vertical" d="M609.28 734.72c0 53.76-43.52 97.28-97.28 97.28s-97.28-43.52-94.72-97.28c0-53.76 43.52-97.28 97.28-97.28s94.72 46.080 94.72 97.28zM609.28 158.72c0 53.76-43.52 97.28-97.28 97.28s-97.28-43.52-97.28-97.28 43.52-94.72 97.28-94.72 97.28 43.52 97.28 94.72zM609.28 448c0 53.76-43.52 97.28-97.28 97.28s-97.28-43.52-97.28-97.28 43.52-97.28 97.28-97.28 97.28 43.52 97.28 97.28z" />
<glyph unicode="&#xe91f;" glyph-name="order" d="M281.6 829.44h53.76v-757.76h-53.76v757.76zM174.207 213.172l43.067 32.175 111.848-149.71-43.067-32.175-111.848 149.71zM285.863 99.095l111.848 149.71 43.067-32.175-111.848-149.71-43.067 32.175zM286.72 76.8h40.96v-12.8h-40.96v12.8zM688.64 824.32h53.76v-757.76h-53.76v757.76zM581.23 681.064l111.848 149.71 43.067-32.175-111.848-149.71-43.067 32.175zM694.952 800.398l43.067 32.175 111.848-149.71-43.067-32.175-111.848 149.71zM693.76 832h40.96v-12.8h-40.96v12.8z" />
<glyph unicode="&#xe920;" glyph-name="univ-2" d="M684.617 663.528c0-33.932-27.508-61.44-61.44-61.44s-61.44 27.508-61.44 61.44c0 33.932 27.508 61.44 61.44 61.44s61.44-27.508 61.44-61.44zM289.646 123.246c-10.728 0-19.505-9.752-19.505-19.505 0-10.728 9.752-19.505 19.505-19.505 10.728 0 19.505 9.752 19.505 19.505s-9.752 19.505-19.505 19.505zM289.646-6.461c0 0 4.876 55.589 19.505 67.291h-39.985c0 0.975 22.43-44.861 20.48-67.291zM686.568 903.436c-0.975 0.975-2.926 0.975-3.901 0.975s-0.975 0-1.95 0v-0.975l-290.621-119.954c-1.95 12.678-2.926 20.48-2.926 20.48s-1.95 13.653-0.975-22.43l-62.415-26.331c-2.926-0.975-3.901-3.901-2.926-5.851 0-1.95 1.95-2.926 3.901-2.926 0.975 0 1.95 0 1.95 0l25.356 10.728c-5.851-40.96-5.851-80.945 0.975-121.905 6.827-58.514 108.251-76.069 108.251-76.069-126.781 84.846-111.177 196.023-108.251 197.973 0 0 33.158 13.653 33.158 13.653 0-9.752 0.975-19.505 1.95-33.158 4.876-90.697 108.251-179.444 108.251-179.444-8.777-40.96-21.455-78.994-27.307-120.93-5.851-43.886-8.777-87.771-11.703-132.632-2.926-53.638-6.827-107.276-4.876-160.914 0.975-27.307 2.926-53.638 6.827-80.945 1.95-13.653 3.901-26.331 6.827-39.985 1.95-8.777 5.851-17.554 8.777-27.307 7.802 214.552 31.208 255.512 37.059 271.116 10.728 29.257 27.307-18.53 31.208-28.282 2.926-9.752 6.827-19.505 8.777-30.232 35.109-125.806 103.375-184.32 103.375-184.32-78.019 118.979-73.143 275.017-76.069 348.16-2.926 74.118 57.539 113.128 55.589 164.815s-82.895 64.366-82.895 64.366c-111.177 30.232-148.236 122.88-158.964 170.667l292.571 121.905 18.53-40.96c45.836-33.158 50.712 19.505 50.712 19.505-19.505 19.505-41.935 29.257-68.267 31.208z" />
<glyph unicode="&#xe921;" glyph-name="univ-1" d="M569.705 749.856c0-46.859-37.987-84.846-84.846-84.846s-84.846 37.987-84.846 84.846c0 46.859 37.987 84.846 84.846 84.846s84.846-37.987 84.846-84.846zM252.587 303.86c0 0-46.811-199.924-41.935-206.75 0 0 54.613 130.682 103.375 173.592-29.257-3.901-47.787 11.703-61.44 33.158zM463.238 498.712c0 0 22.43-42.91 103.375-42.91 52.663 0.975 104.35 16.579 152.137 41.935 0 0-134.583-38.034-196.023 35.109 0 0-0.975 3.901-2.926 10.728 2.926 0 3.901 0 5.851 0 85.821 3.901 148.236 84.846 148.236 84.846-77.044-43.886-135.558-42.91-170.667-35.109-14.629 31.208-39.985 60.465-81.92 53.638-118.004-18.53-179.444-177.493-179.444-263.314 0-115.078 65.341-92.648 125.806-96.549 60.465-5.851 119.954-10.728 50.712-80.945-67.291-68.267-138.484-146.286-138.484-146.286s141.41 77.044 189.196 128.731c47.787 51.688 87.771 120.93 29.257 146.286-57.539 25.356-121.905 28.282-110.202 60.465 13.653 33.158 75.093 103.375 75.093 103.375zM541.257 136.899l-7.802-57.539-119.954-39.985-263.314-11.703 0.975-36.084h720.701c7.802 0 0 897.219 0 897.219l-70.217 15.604-39.010-353.036-68.267-28.282-60.465-168.716 56.564-128.731-17.554-48.762-131.657-39.985zM331.581 660.602c5.851 10.728 3.901 20.48-7.802 28.282l-33.158 18.53c-13.653 5.851-22.43 3.901-28.282-7.802l-106.301-185.295c-5.851-13.653-5.851-21.455 5.851-28.282l38.034-20.48c10.728-5.851 20.48-5.851 28.282 5.851l103.375 189.196z" />
<glyph unicode="&#xe922;" glyph-name="payment" d="M714.24 606.72v0c33.28 0 61.44-10.24 84.48-25.6v79.36h-670.72v-238.080c0-23.040 17.92-40.96 40.96-40.96h343.040c0 30.72 25.6 58.88 56.32 64v12.8c-2.56 81.92 64 148.48 145.92 148.48zM314.88 442.88c0-10.24-7.68-20.48-20.48-20.48h-104.96c-10.24 0-20.48 7.68-20.48 20.48v2.56c0 10.24 7.68 20.48 20.48 20.48h107.52c10.24-2.56 17.92-10.24 17.92-23.040v0zM757.76 796.16h-588.8c-23.040 0-40.96-17.92-40.96-40.96v-25.6h670.72v25.6c0 23.040-17.92 40.96-40.96 40.96zM798.72 445.44h43.52v12.8c0 38.4-17.92 71.68-43.52 94.72-23.040 17.92-51.2 30.72-81.92 30.72h-2.56c-69.12 0-125.44-56.32-125.44-125.44v-12.8h43.52v12.8c0 46.080 35.84 81.92 81.92 81.92h2.56c46.080 0 81.92-35.84 81.92-81.92v-12.8zM865.28 417.28c-2.56 0-7.68 2.56-10.24 2.56v0h-279.040c-2.56 0-7.68 0-10.24-2.56-17.92-5.12-30.72-20.48-30.72-38.4v-238.080c0-23.040 17.92-40.96 40.96-40.96h279.040c23.040 0 40.96 17.92 40.96 40.96v238.080c0 17.92-12.8 35.84-30.72 38.4zM768 284.16c-2.56-17.92-12.8-33.28-30.72-40.96v-61.44c0-7.68-5.12-12.8-12.8-12.8h-17.92c-7.68 0-12.8 5.12-12.8 12.8v61.44c-15.36 7.68-28.16 23.040-30.72 40.96 0 2.56 0 5.12 0 7.68s0 2.56 0 5.12c0 5.12 2.56 7.68 2.56 12.8 7.68 20.48 25.6 35.84 48.64 35.84s40.96-15.36 48.64-35.84c2.56-2.56 2.56-7.68 2.56-12.8 0-2.56 0-2.56 0-5.12 2.56-2.56 2.56-5.12 2.56-7.68z" />
<glyph unicode="&#xe923;" glyph-name="payment_method" d="M839.68 706.56c-10.24 10.24-25.6 17.92-40.96 17.92h-576c-15.36 0-28.16-5.12-40.96-17.92-10.24-10.24-17.92-25.6-17.92-40.96v-437.76c0-15.36 5.12-28.16 17.92-40.96 10.24-10.24 25.6-17.92 40.96-17.92h576c15.36 0 28.16 5.12 40.96 17.92 10.24 10.24 17.92 25.6 17.92 40.96v437.76c0 17.92-5.12 30.72-17.92 40.96zM811.52 227.84c0-2.56 0-5.12-2.56-7.68s-5.12-2.56-7.68-2.56h-578.56c-2.56 0-5.12 0-7.68 2.56s-2.56 5.12-2.56 7.68v220.16h599.040v-220.16zM811.52 586.24h-599.040v81.92c0 2.56 0 5.12 2.56 7.68s5.12 2.56 7.68 2.56h576c2.56 0 5.12 0 7.68-2.56s2.56-5.12 2.56-7.68l2.56-81.92zM258.56 309.76h92.16v-46.080h-92.16v46.080zM396.8 309.76h138.24v-46.080h-138.24v46.080z" />
<glyph unicode="&#xe924;" glyph-name="privacity" d="M704 496.64v202.24l-133.12 133.12h-442.88v-768h576v2.56c107.52 12.8 192 102.4 192 215.040s-84.48 202.24-192 215.040zM560.64 775.68l87.040-87.040h-87.040v87.040zM176.64 112.64v673.28h335.36v-143.36h143.36v-145.92c-84.48-10.24-153.6-66.56-179.2-143.36-84.48 0-204.8 0-204.8 0s-48.64 0-48.64-48.64c0-23.040 0-143.36 0-143.36h276.48c12.8-17.92 28.16-33.28 43.52-48.64h-366.080zM680.96 112.64c-92.16 0-168.96 74.24-168.96 168.96 0 92.16 74.24 168.96 168.96 168.96 92.16 0 168.96-74.24 168.96-168.96-2.56-92.16-76.8-168.96-168.96-168.96zM514.56 496.64c0-53.726-43.554-97.28-97.28-97.28s-97.28 43.554-97.28 97.28c0 53.726 43.554 97.28 97.28 97.28s97.28-43.554 97.28-97.28zM755.2 314.88c0 15.36-2.56 35.84-12.8 53.76s-33.28 33.28-61.44 30.72c-28.16 0-51.2-12.8-61.44-30.72s-12.8-38.4-12.8-53.76c0-2.56 0-7.68 0-10.24h-20.48v-120.32h192v120.32h-20.48c-2.56 2.56-2.56 7.68-2.56 10.24zM706.56 304.64h-53.76c0 2.56 0 7.68 0 10.24 0 10.24 2.56 23.040 5.12 28.16 5.12 5.12 7.68 7.68 23.040 10.24 15.36 0 17.92-5.12 20.48-10.24 5.12-5.12 5.12-17.92 5.12-28.16 0-2.56 0-7.68 0-10.24z" />
<glyph unicode="&#xe925;" glyph-name="question_sign" d="M506.88 832c-212.48-2.56-381.44-176.64-378.88-389.12s176.64-381.44 389.12-378.88 381.44 176.64 378.88 389.12-176.64 381.44-389.12 378.88zM506.88 215.040v0c-35.84 0-58.88 25.6-56.32 56.32 0 30.72 25.6 53.76 56.32 53.76h2.56c33.28 0 56.32-25.6 56.32-58.88-5.12-30.72-28.16-51.2-58.88-51.2zM642.56 486.4c-7.68-10.24-25.6-25.6-46.080-40.96l-23.040-15.36c-12.8-10.24-20.48-20.48-23.040-28.16s-2.56-10.24-2.56-23.040v-2.56h-89.6v7.68c0 30.72 2.56 48.64 15.36 64 20.48 23.040 64 53.76 66.56 53.76 5.12 5.12 12.8 10.24 15.36 15.36 10.24 12.8 12.8 23.040 12.8 33.28 0 12.8-5.12 25.6-12.8 38.4-7.68 10.24-23.040 15.36-43.52 15.36s-35.84-7.68-43.52-20.48c-10.24-15.36-12.8-28.16-12.8-43.52v-2.56h-92.16v5.12c2.56 56.32 23.040 97.28 58.88 120.32 23.040 15.36 53.76 23.040 87.040 23.040 43.52 0 81.92-10.24 112.64-33.28 30.72-20.48 46.080-53.76 46.080-97.28-2.56-25.6-10.24-48.64-25.6-69.12z" />
<glyph unicode="&#xe926;" glyph-name="quick_view" d="M921.6 460.8c-7.68 12.8-163.84 266.24-409.6 266.24s-401.92-253.44-409.6-266.24c-5.12-7.68-5.12-20.48 0-28.16 7.68-10.24 163.84-266.24 409.6-266.24s401.92 256 409.6 266.24c5.12 10.24 5.12 20.48 0 28.16v0zM512 222.72c-184.32 0-317.44 174.080-353.28 225.28 35.84 51.2 168.96 225.28 353.28 225.28s317.44-174.080 353.28-225.28c-35.84-51.2-168.96-225.28-353.28-225.28v0zM512 632.32c-102.4 0-186.88-84.48-186.88-186.88s84.48-186.88 186.88-186.88 186.88 84.48 186.88 186.88c0 110.080-81.92 186.88-186.88 186.88v0zM512 320c-71.68 0-130.56 58.88-130.56 130.56s58.88 130.56 130.56 130.56 130.56-58.88 130.56-130.56c2.56-74.24-56.32-130.56-130.56-130.56v0zM512 519.68c-38.4 0-71.68-30.72-71.68-71.68 0-38.4 30.72-71.68 71.68-71.68 38.4 0 71.68 30.72 71.68 71.68 0 38.4-30.72 71.68-71.68 71.68v0z" />
<glyph unicode="&#xe927;" glyph-name="univ-5" d="M657.31 784.457c0-52.245-42.353-94.598-94.598-94.598s-94.598 42.353-94.598 94.598c0 52.245 42.353 94.598 94.598 94.598s94.598-42.353 94.598-94.598zM337.432 258.804c0 0-64.366-148.236-231.131 0 0 0 49.737-107.276 115.078-120.93s133.608 22.43 181.394 76.069c-26.331 6.827-49.737 22.43-65.341 44.861zM917.699 785.432c0 65.341-40.96 118.979-89.722 118.979s-89.722-53.638-89.722-118.979c0-61.44 35.109-113.128 79.97-118.979l-10.728-145.31c-49.737-11.703-129.707-19.505-181.394 27.307 2.926 1.95-30.232 138.484-118.979 115.078-21.455-4.876-40.96-15.604-57.539-29.257-25.356-0.975-60.465-4.876-111.177-12.678-120.93-19.505-197.973-143.36-197.973-143.36 105.326 78.994 193.097 82.895 242.834 75.093-37.059-68.267-49.737-151.162-44.861-204.8 12.678-128.731 84.846-95.573 153.112-93.623 68.267 2.926 135.558 2.926 68.267-82.895s-139.459-180.419-139.459-180.419 148.236 103.375 196.023 167.741c46.811 64.366 82.895 145.31 14.629 166.766s-140.434 15.604-131.657 53.638c10.728 38.034 68.267 123.855 68.267 123.855s30.232-44.861 120.93-35.109c41.935 4.876 82.895 18.53 118.979 38.034l-2.926-27.307c0-3.901 2.926-7.802 7.802-7.802 3.901 0 7.802 3.901 6.827 6.827l2.926 38.034c10.728 6.827 19.505 11.703 29.257 19.505 0 0-10.728-3.901-29.257-8.777l11.703 140.434c46.811 1.95 83.87 54.613 83.87 118.004zM753.859 784.457c0 57.539 34.133 105.326 75.093 105.326 41.935 0 75.093-46.811 75.093-105.326 0-56.564-33.158-102.4-72.168-105.326-0.975 0-0.975 0-2.926 0-0.975 0-2.926 0-3.901 0-40.96 3.901-71.192 48.762-71.192 105.326z" />
<glyph unicode="&#xe928;" glyph-name="univ-13" d="M780.434 768.863c0-46.32-37.55-83.87-83.87-83.87s-83.87 37.55-83.87 83.87c0 46.32 37.55 83.87 83.87 83.87s83.87-37.55 83.87-83.87zM643.901 675.24c-41.935 32.183-96.549 29.257-174.568-36.084-47.787-41.935-75.093-102.4-77.044-165.79l48.762 71.192c48.762 71.192 89.722 47.787 91.672 40.96 2.926-6.827-7.802-95.573-15.604-171.642-7.802-77.044-22.43-96.549-102.4-166.766-47.787-41.935-110.202-63.39-173.592-58.514 0 0-13.653-6.827 60.465-13.653s159.939 19.505 206.75 54.613c44.861 34.133 116.053 102.4 147.261 100.45 30.232-0.975 78.994-60.465 102.4-100.45 22.43-39.985 21.455-186.27 21.455-186.27s32.183 155.063 29.257 221.379c-3.901 66.316-93.623 137.509-118.004 155.063-23.406 17.554-29.257 96.549 7.802 114.103s14.629-11.703 122.88-17.554c108.251-4.876 147.261 33.158 147.261 33.158l-111.177-3.901c-125.806-4.876-93.623 54.613-141.41 93.623-15.604 13.653-30.232 5.851-72.168 36.084zM316.952 737.646h237.958c6.827 0 11.703 7.802 11.703 17.554s-4.876 17.554-11.703 17.554h-237.958c-6.827 0-11.703-7.802-11.703-17.554-0.975-10.728 4.876-17.554 11.703-17.554v0zM135.558 576.731h237.958c6.827 0 11.703 7.802 11.703 17.554s-4.876 17.554-11.703 17.554h-237.958c-6.827 0-11.703-7.802-11.703-17.554-0.975-9.752 5.851-17.554 11.703-17.554v0zM198.949 415.817c0-9.752 4.876-17.554 11.703-17.554h237.958c6.827 0 11.703 7.802 11.703 17.554s-4.876 17.554-11.703 17.554h-237.958c-6.827 0-11.703-7.802-11.703-17.554v0zM281.844 298.789h-214.552c-6.827 0-11.703-7.802-11.703-17.554s4.876-17.554 11.703-17.554h214.552c6.827 0 11.703 7.802 11.703 17.554s-4.876 17.554-11.703 17.554v0z" />
<glyph unicode="&#xe929;" glyph-name="sales_conditions" d="M747.52 832h-471.040c-17.92 0-30.72-15.36-30.72-30.72v-619.52c0-17.92 15.36-30.72 30.72-30.72h48.64v-69.12c0-7.68 7.68-15.36 15.36-15.36 5.12 0 10.24 2.56 12.8 5.12l35.84 40.96 35.84-40.96c5.12-7.68 15.36-7.68 23.040-2.56 2.56 2.56 5.12 7.68 5.12 12.8v69.12h294.4c17.92 0 30.72 15.36 30.72 30.72v616.96c0 17.92-12.8 33.28-30.72 33.28zM401.92 145.92c-5.12 7.68-15.36 7.68-23.040 2.56 0 0 0 0-2.56-2.56l-17.92-23.040v61.44c20.48-7.68 43.52-7.68 61.44 0v-61.44l-17.92 23.040zM448 268.8c0-33.28-25.6-58.88-58.88-58.88v0c-33.28 0-58.88 25.6-58.88 58.88s25.6 58.88 58.88 58.88 58.88-28.16 58.88-58.88v0zM744.96 179.2h-291.84v23.040c35.84 35.84 35.84 92.16 2.56 128-35.84 35.84-92.16 35.84-128 2.56s-35.84-92.16-2.56-128c0 0 0 0 2.56-2.56v-23.040h-48.64v619.52h471.040l-5.12-619.52zM650.24 704h-276.48c-7.68 0-15.36-7.68-15.36-15.36s7.68-15.36 15.36-15.36h279.040c7.68 0 15.36 7.68 15.36 15.36s-7.68 15.36-17.92 15.36zM650.24 611.84h-276.48c-7.68 0-15.36-7.68-15.36-15.36s7.68-15.36 15.36-15.36h279.040c7.68 0 15.36 7.68 15.36 15.36s-7.68 15.36-17.92 15.36zM650.24 519.68h-276.48c-7.68 0-15.36-7.68-15.36-15.36s7.68-15.36 15.36-15.36h279.040c7.68 0 15.36 7.68 15.36 15.36s-7.68 15.36-17.92 15.36zM650.24 427.52h-276.48c-7.68 0-15.36-7.68-15.36-15.36s7.68-15.36 15.36-15.36h279.040c7.68 0 15.36 7.68 15.36 15.36s-7.68 15.36-17.92 15.36zM650.24 335.36h-128c-7.68 0-15.36-7.68-15.36-15.36s7.68-15.36 15.36-15.36h128c7.68 0 15.36 7.68 15.36 15.36 2.56 10.24-5.12 15.36-15.36 15.36z" />
<glyph unicode="&#xe92a;" glyph-name="search" d="M872.96 197.12l-130.56 133.12c-12.8 15.36-35.84 23.040-56.32 23.040l-81.92 81.92c66.56 102.4 53.76 235.52-35.84 325.12-97.28 97.28-261.12 97.28-363.52-5.12s-102.4-263.68 0-366.080c89.6-89.6 230.4-99.84 330.24-28.16l81.92-81.92c0-20.48 5.12-40.96 20.48-58.88l135.68-135.68c28.16-28.16 76.8-28.16 104.96 0 25.6 35.84 25.6 81.92-5.12 112.64zM276.48 468.48c-58.88 58.88-58.88 158.72 0 217.6s158.72 58.88 217.6 0 58.88-158.72 0-217.6-156.16-61.44-217.6 0z" />
<glyph unicode="&#xe92b;" glyph-name="univ-3" d="M720.701 810.789c0-51.706-41.916-93.623-93.623-93.623s-93.623 41.916-93.623 93.623c0 51.706 41.916 93.623 93.623 93.623s93.623-41.916 93.623-93.623zM188.221 101.79c-30.232-17.554-21.455-61.44-21.455-61.44 312.076-115.078 648.533 11.703 648.533 11.703-412.526-86.796-626.103 49.737-627.078 49.737zM858.21 566.004c0.975 0.975 0.975 5.851 0 6.827s-5.851 0.975-6.827 0v0c-5.851 2.926-11.703 2.926-15.604-0.975l-39.010-31.208c-3.901-3.901-5.851-11.703-2.926-15.604l-163.84-141.41c-2.926 0.975-6.827 2.926-9.752 3.901-67.291 21.455-140.434 15.604-129.707 53.638 9.752 38.034 67.291 122.88 67.291 122.88s29.257-44.861 119.954-35.109c58.514 8.777 114.103 30.232 161.89 64.366 0 0-144.335-56.564-222.354 14.629 0-0.975-33.158 134.583-120.93 111.177-128.731-33.158-176.518-219.429-166.766-311.101 12.678-128.731 84.846-94.598 152.137-91.672 24.381 0.975 50.712 0.975 68.267-2.926l-131.657-114.103-17.554 18.53c-0.975 0.975-5.851 0.975-6.827 0s-0.975-5.851 0-6.827l17.554-17.554-35.109-29.257c-0.975-0.975-0.975-3.901 0-6.827 0.975-0.975 3.901-0.975 6.827 0l35.109 29.257 17.554-18.53c0.975-0.975 3.901-0.975 6.827 0 0.975 0.975 0.975 5.851 0 6.827l-17.554 18.53 135.558 117.029c20.48-8.777 21.455-30.232-12.678-76.069-67.291-84.846-137.509-179.444-137.509-179.444s147.261 102.4 194.072 166.766c40.96 56.564 73.143 125.806 35.109 156.038l161.89 140.434c3.901-0.975 9.752-0.975 14.629 0.975l36.084 30.232c3.901 4.876 5.851 10.728 5.851 16.579v0z" />
<glyph unicode="&#xe92c;" glyph-name="univ-6" d="M156.038 155.429c-32.183-31.208-32.183-83.87-0.975-116.053s83.87-33.158 116.053-0.975c32.183 31.208 32.183 83.87 0.975 116.053-32.183 30.232-83.87 32.183-116.053 0.975v0zM522.893 807.229c0-53.322-43.226-96.549-96.549-96.549s-96.549 43.226-96.549 96.549c0 53.322 43.226 96.549 96.549 96.549s96.549-43.226 96.549-96.549zM590.994 219.824c48.762-53.638 118.979-89.722 186.27-77.044s118.979 123.855 118.979 123.855c-171.642-152.137-236.983 0-236.983 0-16.579-22.43-39.985-39.010-68.267-46.811zM863.086 491.72c0 0-79.97 127.756-203.825 147.261-51.688 7.802-87.771 11.703-113.128 12.678-17.554 14.629-39.010 24.381-60.465 31.208-92.648 24.381-127.756-117.029-127.756-117.029-79.97-75.093-230.156-15.604-230.156-15.604 50.712-36.084 107.276-57.539 168.716-67.291 92.648-10.728 123.855 36.084 123.855 36.084s59.49-87.771 69.242-125.806-64.366-33.158-133.608-55.589c-69.242-21.455-33.158-104.35 15.604-172.617s201.874-172.617 201.874-172.617-72.168 97.524-141.41 186.27 0 87.771 69.242 84.846 144.335-37.059 157.013 95.573c6.827 55.589-7.802 140.434-44.861 209.676 52.663 7.802 142.385 2.926 249.661-77.044z" />
<glyph unicode="&#xe92d;" glyph-name="times" d="M151.040 709.12l622.080-622.080c28.16-28.16 74.24-28.16 102.4 0s28.16 74.24 0 102.4l-622.080 622.080c-28.16 28.16-74.24 28.16-102.4 0s-30.72-71.68 0-102.4zM253.44 89.6l619.52 619.52c28.16 28.16 28.16 74.24 0 102.4s-74.24 28.16-102.4 0l-619.52-619.52c-28.16-28.16-28.16-74.24 0-102.4 28.16-33.28 71.68-33.28 102.4 0z" />
<glyph unicode="&#xe92e;" glyph-name="transport" d="M122.88 350.72v355.84c0 20.48 15.36 35.84 35.84 35.84h355.84c20.48 0 35.84-15.36 35.84-35.84v-355.84c0-7.68-5.12-12.8-12.8-12.8h-401.92c-5.12 0-12.8 5.12-12.8 12.8zM409.6 227.84c0-40.96-33.28-74.24-74.24-74.24s-74.24 33.28-74.24 74.24 33.28 74.24 74.24 74.24 74.24-33.28 74.24-74.24zM373.76 227.84c0 20.48-15.36 35.84-35.84 35.84s-35.84-15.36-35.84-35.84 15.36-35.84 35.84-35.84 35.84 15.36 35.84 35.84zM273.92 302.080h-166.4c-7.68 0-12.8-5.12-12.8-12.8v-35.84c0-7.68 5.12-12.8 12.8-12.8h133.12c2.56 25.6 15.36 46.080 33.28 61.44zM798.72 227.84c0-40.96-33.28-74.24-74.24-74.24s-74.24 33.28-74.24 74.24 33.28 74.24 74.24 74.24c40.96 0 74.24-33.28 74.24-74.24zM760.32 227.84c0 20.48-15.36 35.84-35.84 35.84s-35.84-15.36-35.84-35.84 15.36-35.84 35.84-35.84 35.84 15.36 35.84 35.84zM929.28 291.84v-35.84c0-7.68-5.12-12.8-12.8-12.8h-97.28c-7.68 46.080-48.64 84.48-97.28 84.48s-89.6-35.84-97.28-84.48h-194.56c-2.56 23.040-15.36 46.080-33.28 58.88h184.32v340.48c0 12.8 10.24 23.040 23.040 23.040h112.64c30.72 0 61.44-15.36 79.36-40.96l71.68-107.52c10.24-15.36 15.36-33.28 15.36-53.76v-161.28h28.16c12.8 0 17.92-5.12 17.92-10.24zM808.96 514.56l-58.88 81.92c-2.56 5.12-5.12 5.12-10.24 5.12h-89.6c-7.68 0-12.8-5.12-12.8-12.8v-81.92c0-7.68 5.12-12.8 12.8-12.8h148.48c10.24 2.56 15.36 12.8 10.24 20.48z" />
<glyph unicode="&#xe92f;" glyph-name="trash" d="M632.32 158.72c12.8 0 23.040 10.24 23.040 23.040v289.28c0 12.8-10.24 23.040-23.040 23.040s-23.040-10.24-23.040-23.040v-286.72c0-15.36 10.24-25.6 23.040-25.6zM775.68 734.72h-143.36v48.64c0 25.6-20.48 48.64-48.64 48.64h-143.36c-25.6 0-48.64-20.48-48.64-48.64v-48.64h-143.36c-25.6 0-48.64-20.48-48.64-48.64v-48.64c0-25.6 20.48-48.64 48.64-48.64v-432.64c0-53.76 43.52-94.72 97.28-94.72h335.36c53.76 0 94.72 43.52 94.72 94.72v435.2c25.6 0 48.64 20.48 48.64 48.64v48.64c0 25.6-23.040 46.080-48.64 46.080zM440.32 757.76c0 12.8 10.24 23.040 23.040 23.040h97.28c12.8 0 23.040-10.24 23.040-23.040v-23.040c-23.040 0-143.36 0-143.36 0v23.040zM727.040 158.72c0-25.6-20.48-48.64-48.64-48.64h-335.36c-25.6 0-48.64 20.48-48.64 48.64v432.64h432.64v-432.64zM752.64 637.44h-481.28c-12.8 0-23.040 10.24-23.040 23.040s10.24 23.040 23.040 23.040h481.28c12.8 0 23.040-10.24 23.040-23.040s-10.24-23.040-23.040-23.040zM391.68 158.72c12.8 0 23.040 10.24 23.040 23.040v289.28c0 12.8-10.24 23.040-23.040 23.040s-23.040-10.24-23.040-23.040v-286.72c0-15.36 10.24-25.6 23.040-25.6zM512 158.72c12.8 0 23.040 10.24 23.040 23.040v289.28c0 12.8-10.24 23.040-23.040 23.040s-23.040-10.24-23.040-23.040v-286.72c0-15.36 10.24-25.6 23.040-25.6z" />
<glyph unicode="&#xe930;" glyph-name="triangle_bottom" d="M138.24 627.2l345.6-345.6c15.36-15.36 40.96-15.36 56.32 0l343.040 343.040c0 0 0 2.56 2.56 2.56h-747.52z" />
<glyph unicode="&#xe931;" glyph-name="triangle_top" d="M885.76 268.8l-345.6 345.6c-15.36 15.36-40.96 15.36-56.32 0l-343.040-343.040c0 0 0-2.56-2.56-2.56h747.52z" />
<glyph unicode="&#xe932;" glyph-name="usage_conditions" d="M778.24 693.76v0c0 0 0 2.56 0 0 0 2.56 0 2.56 0 0 0 2.56 0 5.12 0 5.12v0c0 0 0 0 0 2.56v0c0 0 0 0 0 2.56v0c0 0 0 0-2.56 2.56l-143.36 143.36c0 0 0 0-2.56 2.56v0c0 0 0 0-2.56 0v0c0 0 0 0-2.56 0v0h-363.52c-7.68 0-15.36-7.68-15.36-15.36v-678.4c0-7.68 7.68-15.36 15.36-15.36h238.080v-84.48c0-5.12 2.56-10.24 7.68-12.8s10.24-2.56 15.36 0l61.44 38.4 61.44-38.4c2.56-2.56 5.12-2.56 7.68-2.56s5.12 0 7.68 2.56 7.68 7.68 7.68 12.8v84.48h94.72c7.68 0 15.36 7.68 15.36 15.36v535.040zM634.88 798.72l89.6-89.6h-89.6v89.6zM491.52 363.52c0 2.56-2.56 7.68-2.56 10.24s5.12 5.12 7.68 5.12c5.12 2.56 12.8 7.68 17.92 12.8s7.68 12.8 7.68 20.48c0 2.56 2.56 7.68 2.56 10.24 0 0 2.56 0 5.12 0s2.56 0 5.12 0 5.12 0 7.68 0 10.24 0 15.36 2.56c7.68 2.56 12.8 7.68 17.92 10.24 2.56 2.56 7.68 5.12 10.24 5.12s7.68-5.12 10.24-5.12c5.12-5.12 10.24-7.68 17.92-10.24 5.12-2.56 7.68-2.56 15.36-2.56 2.56 0 5.12 0 7.68 0s5.12 0 5.12 0 2.56 0 5.12 0c0-2.56 2.56-5.12 2.56-10.24 2.56-7.68 2.56-12.8 7.68-20.48 5.12-5.12 10.24-10.24 17.92-12.8 2.56-2.56 7.68-5.12 7.68-5.12 0-2.56-2.56-7.68-2.56-10.24-2.56-7.68-5.12-12.8-5.12-23.040 0-7.68 2.56-15.36 5.12-23.040 0-2.56 2.56-7.68 2.56-10.24s-5.12-5.12-7.68-5.12c-5.12-2.56-12.8-7.68-17.92-12.8s-7.68-12.8-7.68-20.48c0-2.56-2.56-7.68-2.56-10.24 0 0-2.56 0-5.12 0s-2.56 0-5.12 0-5.12 0-7.68 0-10.24 0-15.36-2.56c-7.68-2.56-12.8-7.68-17.92-10.24-2.56-2.56-7.68-5.12-10.24-5.12s-7.68 5.12-10.24 5.12c-5.12 5.12-10.24 7.68-17.92 10.24-5.12 2.56-7.68 2.56-15.36 2.56-2.56 0-5.12 0-7.68 0s-5.12 0-5.12 0-2.56 0-5.12 0c0 2.56-2.56 5.12-2.56 10.24-2.56 7.68-2.56 12.8-7.68 20.48-5.12 5.12-10.24 10.24-17.92 12.8-2.56 2.56-7.68 5.12-7.68 5.12 0 2.56 2.56 7.68 2.56 10.24 2.56 7.68 5.12 12.8 5.12 23.040 0 7.68-2.56 15.36-5.12 23.040zM637.44 84.48l-46.080 28.16c-5.12 2.56-12.8 2.56-17.92 0l-43.52-28.16v143.36c2.56 0 2.56 0 5.12 0s5.12 0 5.12 0 5.12 0 5.12 0 5.12-2.56 7.68-5.12c7.68-5.12 15.36-12.8 28.16-12.8s23.040 7.68 28.16 12.8c2.56 2.56 7.68 5.12 7.68 5.12s2.56 0 5.12 0 2.56 0 5.12 0 2.56 0 5.12 0l5.12-143.36zM668.16 174.080v66.56c5.12 5.12 7.68 12.8 7.68 20.48 0 2.56 2.56 7.68 2.56 10.24s5.12 5.12 7.68 5.12c7.68 5.12 17.92 10.24 20.48 23.040 2.56 10.24 0 23.040-2.56 30.72-2.56 5.12-2.56 7.68-2.56 10.24s2.56 7.68 2.56 10.24 7.68 20.48 2.56 30.72c-5.12 12.8-12.8 17.92-20.48 23.040-2.56 2.56-7.68 5.12-7.68 5.12 0 2.56-2.56 5.12-2.56 10.24-2.56 7.68-5.12 20.48-15.36 28.16-7.68 5.12-17.92 5.12-23.040 5.12-2.56 0-5.12 0-7.68 0s-5.12 0-5.12 0-5.12 0-5.12 0-5.12 2.56-7.68 5.12c-7.68 5.12-15.36 12.8-28.16 12.8s-23.040-7.68-28.16-12.8c-2.56-2.56-7.68-5.12-7.68-5.12s-2.56 0-5.12 0-2.56 0-5.12 0-5.12 0-7.68 0c-5.12 0-15.36 0-23.040-5.12-10.24-7.68-12.8-17.92-15.36-28.16 0-2.56-2.56-7.68-2.56-10.24s-5.12-5.12-7.68-5.12c-7.68-5.12-17.92-10.24-20.48-23.040-2.56-10.24 0-23.040 2.56-30.72 2.56-5.12 2.56-7.68 2.56-10.24s-2.56-7.68-2.56-10.24-7.68-20.48-2.56-30.72c5.12-12.8 12.8-17.92 20.48-23.040 2.56-2.56 7.68-5.12 7.68-5.12 0-2.56 2.56-5.12 2.56-10.24 2.56-7.68 2.56-12.8 7.68-20.48v-66.56h-222.72v647.68h327.68v-128c0-7.68 7.68-15.36 15.36-15.36h128v-504.32c0 0-79.36 0-79.36 0zM337.92 678.4h204.8c7.68 0 15.36 7.68 15.36 15.36s-7.68 15.36-15.36 15.36h-204.8c-7.68 0-15.36-7.68-15.36-15.36s7.68-15.36 15.36-15.36zM688.64 629.76h-350.72c-7.68 0-15.36-7.68-15.36-15.36s7.68-15.36 15.36-15.36h348.16c7.68 0 15.36 7.68 15.36 15.36s-5.12 15.36-12.8 15.36zM624.64 547.84h-286.72c-7.68 0-15.36-7.68-15.36-15.36s7.68-15.36 15.36-15.36h286.72c7.68 0 15.36 7.68 15.36 15.36 0 10.24-7.68 15.36-15.36 15.36zM688.64 547.84c-7.68 0-15.36-7.68-15.36-15.36s7.68-15.36 15.36-15.36c7.68 0 15.36 7.68 15.36 15.36s-7.68 15.36-15.36 15.36z" />
<glyph unicode="&#xe933;" glyph-name="univ-8" d="M967.436 178.834c-20.48 0-38.034 3.901-54.613 12.678-20.48 8.777-39.010 12.678-59.49 12.678s-38.034-3.901-58.514-12.678c-16.579-8.777-36.084-12.678-54.613-12.678-20.48 0-38.034 3.901-54.613 12.678-20.48 8.777-39.010 12.678-59.49 12.678s-38.034-3.901-58.514-12.678c-16.579-8.777-36.084-12.678-54.613-12.678-20.48 0-38.034 3.901-54.613 12.678-17.554 8.777-38.034 12.678-58.514 12.678s-39.010-3.901-59.49-12.678c-16.579-8.777-36.084-12.678-54.613-12.678-20.48 0-38.034 3.901-54.613 12.678-17.554 8.777-38.034 12.678-55.589 12.678-20.48 0-38.034-3.901-58.514-12.678-17.554-8.777-38.034-12.678-58.514-12.678v82.895c20.48 0 38.034 3.901 58.514 12.678 17.554 8.777 38.034 12.678 58.514 12.678s38.034-3.901 55.589-12.678c17.554-8.777 36.084-12.678 55.589-12.678 17.554 0 36.084 3.901 54.613 12.678 19.505 8.777 38.034 12.678 58.514 12.678s39.010-3.901 58.514-12.678c19.505-8.777 36.084-12.678 55.589-12.678 20.48 0 36.084 3.901 54.613 12.678 19.505 8.777 38.034 12.678 59.49 12.678 17.554 0 38.034-3.901 58.514-12.678 16.579-8.777 34.133-12.678 54.613-12.678 17.554 0 38.034 3.901 55.589 12.678s38.034 12.678 58.514 12.678c20.48 0 39.010-3.901 58.514-12.678 16.579-8.777 36.084-12.678 54.613-12.678l-0.975-82.895zM880.806 506.856c0-54.938-44.536-99.474-99.474-99.474s-99.474 44.536-99.474 99.474c0 54.938 44.536 99.474 99.474 99.474s99.474-44.536 99.474-99.474zM340.358 327.88c20.48 8.777 39.010 12.678 58.514 12.678s38.034-3.901 58.514-12.678c17.554-8.777 36.084-12.678 55.589-12.678s36.084 3.901 54.613 12.678c20.48 8.777 39.010 12.678 58.514 12.678 20.48 0 38.034-3.901 58.514-12.678 13.653-7.802 29.257-11.703 45.836-12.678 0 3.901-0.975 8.777-2.926 12.678 0 0-16.579 78.019-75.093 116.053-114.103 76.069-291.596-38.034-368.64-120.93-2.926-2.926-2.926-6.827-3.901-8.777 2.926 0 4.876 0 7.802 0 17.554 0.975 35.109 4.876 52.663 13.653zM617.374 508.455l-103.375-12.678c0 0 0.975 39.010 76.069 120.93 102.4 111.177 252.587 99.474 252.587 99.474-241.859-78.994-225.28-207.726-225.28-207.726z" />
<glyph unicode="&#xe934;" glyph-name="pdf" d="M371.2 440.32c0 17.92-12.8 28.16-35.84 28.16-10.24 0-15.36 0-17.92-2.56v-58.88c2.56 0 7.68 0 15.36 0 23.040 0 38.4 12.8 38.4 33.28zM509.44 468.48c-10.24 0-15.36 0-20.48-2.56v-130.56c2.56 0 10.24 0 15.36 0 40.96 0 66.56 23.040 66.56 69.12 0 40.96-23.040 64-61.44 64zM773.12 545.28h-15.36v79.36c0 0 0 0 0 2.56s0 5.12-2.56 7.68l-130.56 148.48c0 0 0 0 0 0s-2.56 2.56-2.56 2.56c0 0 0 0 0 0s-2.56 0-2.56 0c0 0 0 0 0 0s-2.56 0-2.56 0h-325.12c-15.36 0-25.6-12.8-25.6-25.6v-215.040h-15.36c-20.48 0-38.4-17.92-38.4-38.4v-197.12c0-20.48 17.92-38.4 38.4-38.4h15.36v-135.68c0-15.36 12.8-25.6 25.6-25.6h437.76c15.36 0 25.6 12.8 25.6 25.6v135.68h15.36c20.48 0 38.4 17.92 38.4 38.4v197.12c2.56 20.48-12.8 38.4-35.84 38.4zM291.84 760.32h307.2v-135.68c0-7.68 5.12-12.8 12.8-12.8h117.76v-66.56h-437.76v215.040zM619.52 407.040c0-38.4-12.8-64-33.28-79.36-20.48-17.92-53.76-25.6-92.16-25.6-23.040 0-40.96 2.56-51.2 2.56v194.56c15.36 2.56 38.4 5.12 61.44 5.12 38.4 0 61.44-7.68 81.92-20.48 20.48-17.92 33.28-40.96 33.28-76.8zM271.36 302.080v197.12c12.8 2.56 33.28 5.12 61.44 5.12s48.64-5.12 61.44-15.36c12.8-10.24 20.48-25.6 20.48-46.080s-7.68-35.84-17.92-46.080c-15.36-15.36-38.4-20.48-64-20.48-5.12 0-10.24 0-15.36 0v-71.68l-46.080-2.56zM732.16 143.36h-440.32v128h437.76l2.56-128zM770.56 463.36h-76.8v-46.080h71.68v-35.84h-71.68v-79.36h-46.080v197.12h120.32v-35.84z" />
<glyph unicode="&#xe935;" glyph-name="shop-andorra" d="M578.56 619.52c0 35.84-30.72 66.56-66.56 66.56s-66.56-30.72-66.56-66.56v-30.72h133.12c0 0 0 30.72 0 30.72zM619.52 547.84v-35.84c0-10.24-7.68-20.48-20.48-20.48-10.24 0-20.48 7.68-20.48 20.48v35.84h-133.12v-35.84c0-10.24-7.68-20.48-20.48-20.48-10.24 0-20.48 7.68-20.48 20.48v35.84h-51.2l-30.72-340.48h378.88l-33.28 340.48h-48.64zM647.68 376.32c0 0-2.56-79.36-64-115.2-23.040-15.36-51.2-5.12-51.2 28.16 0 20.48 7.68 40.96 15.36 61.44 5.12 17.92 33.28 64-2.56 66.56-30.72 2.56-58.88-2.56-81.92-12.8-20.48-5.12-43.52-15.36-51.2-30.72-2.56-5.12 7.68-2.56 10.24-5.12 5.12-20.48-46.080-10.24-48.64 7.68-2.56 15.36 10.24 30.72 17.92 38.4 35.84 30.72 125.44 48.64 176.64 23.040 12.8-7.68 33.28-23.040 28.16-48.64-5.12-35.84-23.040-76.8-28.16-112.64 7.68 5.12 23.040 23.040 33.28 35.84 7.68 15.36 20.48 43.52 15.36 61.44-2.56 12.8-5.12 23.040 7.68 28.16 23.040 5.12 23.040-15.36 23.040-25.6zM512 849.92c-222.72 0-401.92-179.2-401.92-401.92s179.2-401.92 401.92-401.92 401.92 179.2 401.92 401.92-179.2 401.92-401.92 401.92zM724.48 168.96c-2.56 0-2.56 0 0 0h-424.96c-5.12 0-10.24 2.56-15.36 5.12-2.56 5.12-2.56 12.8-2.56 17.92l33.28 378.88c0 10.24 10.24 17.92 20.48 17.92h71.68v33.28c0 58.88 48.64 107.52 107.52 107.52s107.52-48.64 107.52-107.52v-33.28h71.68c10.24 0 17.92-7.68 20.48-17.92l28.16-378.88c0-2.56 0-2.56 0-5.12 0-7.68-7.68-17.92-17.92-17.92z" />
<glyph unicode="&#xe936;" glyph-name="shop-online" d="M276.48 322.56h465.92v281.6h-465.92v-281.6zM483.84 368.64c-10.24 0-15.36 7.68-15.36 15.36 0 10.24 7.68 15.36 15.36 15.36 10.24 0 15.36-7.68 15.36-15.36s-5.12-15.36-15.36-15.36zM545.28 368.64c-10.24 0-15.36 7.68-15.36 15.36 0 10.24 7.68 15.36 15.36 15.36 10.24 0 15.36-7.68 15.36-15.36 2.56-7.68-5.12-15.36-15.36-15.36zM401.92 552.96c5.12 5.12 12.8 7.68 20.48 5.12l15.36-10.24c2.56-2.56 5.12-5.12 5.12-5.12l7.68-23.040h145.92c2.56 0 5.12-2.56 5.12-5.12 2.56-2.56 2.56-5.12 0-7.68l-28.16-84.48c-2.56-5.12-5.12-5.12-7.68-5.12h-99.84c-5.12 0-5.12 2.56-7.68 5.12l-40.96 104.96-12.8 7.68c-5.12 2.56-7.68 12.8-2.56 17.92zM512 849.92c-222.72 0-401.92-179.2-401.92-401.92s179.2-401.92 401.92-401.92 401.92 179.2 401.92 401.92-179.2 401.92-401.92 401.92zM783.36 248.32h-87.040v20.48c0 7.68-5.12 15.36-15.36 15.36s-15.36-5.12-15.36-15.36v-20.48h-23.040v20.48c0 7.68-5.12 15.36-15.36 15.36-7.68 0-15.36-5.12-15.36-15.36v-20.48h-373.76c-25.6 0-48.64 23.040-48.64 48.64 0 5.12 5.12 12.8 10.24 12.8h33.28v312.32c0 15.36 10.24 23.040 23.040 23.040h504.32c15.36 0 23.040-10.24 23.040-23.040v-317.44h35.84c5.12 0 12.8-5.12 12.8-12.8 0-20.48-23.040-43.52-48.64-43.52z" />
<glyph unicode="&#xe937;" glyph-name="shop-rent" d="M568.32 302.080h-25.6c-2.56-33.28-5.12-64-5.12-87.040 0-10.24-2.56-20.48-2.56-23.040 0-12.8 10.24-20.48 20.48-20.48 12.8 0 20.48 10.24 20.48 20.48 0 2.56 0 12.8-2.56 23.040 0 23.040-5.12 56.32-5.12 87.040zM468.48 552.96c-12.8 0-20.48-10.24-20.48-20.48 0-2.56 0-15.36 2.56-30.72 2.56-33.28 5.12-81.92 5.12-125.44h5.12v20.48c0 5.12 2.56 5.12 5.12 5.12 5.12 0 5.12-2.56 5.12-5.12v-20.48h5.12c2.56 43.52 5.12 92.16 5.12 125.44 0 15.36 2.56 28.16 2.56 30.72 5.12 10.24-5.12 20.48-15.36 20.48zM460.8 317.44v25.6c0 5.12 2.56 5.12 5.12 5.12 5.12 0 5.12-2.56 5.12-5.12v-25.6h5.12c0 7.68 0 17.92 0 25.6 0 5.12 0 12.8 0 20.48h-25.6c0-5.12 0-15.36 0-20.48 0-7.68 0-17.92 0-25.6h10.24zM384 519.68h7.68v-35.84h-7.68v35.84zM481.28 302.080h-25.6c-2.56-33.28-5.12-64-5.12-87.040 0-10.24-2.56-20.48-2.56-23.040 0-12.8 10.24-20.48 20.48-20.48 12.8 0 20.48 10.24 20.48 20.48 0 2.56 0 12.8-2.56 23.040 0 23.040-2.56 56.32-5.12 87.040zM547.84 317.44v25.6c0 5.12 2.56 5.12 5.12 5.12 5.12 0 5.12-2.56 5.12-5.12v-25.6h5.12c0 7.68 0 17.92 0 25.6 0 5.12 0 12.8 0 20.48h-25.6c0-5.12 0-15.36 0-20.48 0-7.68 0-17.92 0-25.6h10.24zM629.76 519.68h7.68v-35.84h-7.68v35.84zM512 849.92c-222.72 0-401.92-179.2-401.92-401.92s179.2-401.92 401.92-401.92 401.92 179.2 401.92 401.92-179.2 401.92-401.92 401.92zM409.6 471.040h-15.36v-238.080h7.68c5.12 0 5.12-2.56 5.12-5.12 0-5.12-2.56-5.12-5.12-5.12h-7.68v-17.92c0-5.12-2.56-5.12-5.12-5.12-5.12 0-5.12 2.56-5.12 5.12v17.92h-7.68c-5.12 0-5.12 2.56-5.12 5.12s2.56 5.12 5.12 5.12h7.68v238.080h-15.36c-5.12 0-5.12 2.56-5.12 5.12 0 5.12 2.56 5.12 5.12 5.12h5.12v38.4c-2.56 0-5.12 5.12-5.12 5.12 0 5.12 2.56 5.12 5.12 5.12h28.16c5.12 0 5.12-2.56 5.12-5.12s-2.56-5.12-5.12-5.12v-38.4h7.68c5.12 0 5.12-2.56 5.12-5.12 2.56-5.12-2.56-5.12-5.12-5.12zM499.2 368.64c0-5.12-2.56-5.12-5.12-5.12 0-5.12 0-15.36 0-20.48 0-10.24 0-23.040 0-33.28 2.56-33.28 5.12-69.12 5.12-89.6 2.56-12.8 2.56-20.48 2.56-23.040 0-17.92-15.36-33.28-33.28-33.28s-33.28 15.36-33.28 33.28c0 5.12 0 12.8 2.56 23.040 2.56 23.040 5.12 56.32 5.12 89.6v0c0 10.24 0 23.040 0 33.28 0 5.12 0 12.8 0 20.48-5.12 0-5.12 5.12-5.12 5.12 0 5.12 2.56 5.12 5.12 5.12-2.56 43.52-5.12 92.16-5.12 125.44-2.56 15.36-2.56 28.16-2.56 30.72 0 17.92 15.36 33.28 33.28 33.28s33.28-15.36 33.28-33.28c0-5.12 0-15.36-2.56-30.72-2.56-33.28-5.12-81.92-5.12-125.44 2.56 2.56 5.12 0 5.12-5.12zM586.24 368.64c0-5.12-2.56-5.12-5.12-5.12 0-5.12 0-15.36 0-20.48 0-10.24 0-23.040 0-33.28v0c2.56-33.28 5.12-69.12 5.12-89.6 2.56-12.8 2.56-20.48 2.56-23.040 0-17.92-15.36-33.28-33.28-33.28s-33.28 15.36-33.28 33.28c0 5.12 0 12.8 2.56 23.040 2.56 23.040 5.12 56.32 5.12 89.6 0 10.24 0 23.040 0 33.28 0 5.12 0 12.8 0 20.48-5.12 0-5.12 5.12-5.12 5.12 0 5.12 2.56 5.12 5.12 5.12-2.56 43.52-5.12 92.16-5.12 125.44-2.56 15.36-2.56 28.16-2.56 30.72 0 17.92 15.36 33.28 33.28 33.28s33.28-15.36 33.28-33.28c0-5.12 0-15.36-2.56-30.72-2.56-33.28-5.12-81.92-5.12-125.44 2.56 2.56 5.12 0 5.12-5.12zM657.92 471.040h-15.36v-238.080h7.68c5.12 0 5.12-2.56 5.12-5.12 0-5.12-2.56-5.12-5.12-5.12h-7.68v-17.92c0-5.12-2.56-5.12-5.12-5.12-5.12 0-5.12 2.56-5.12 5.12v17.92h-7.68c-5.12 0-5.12 2.56-5.12 5.12s2.56 5.12 5.12 5.12h7.68v238.080h-17.92c-5.12 0-5.12 2.56-5.12 5.12 0 5.12 2.56 5.12 5.12 5.12h5.12v38.4c-2.56 0-5.12 5.12-5.12 5.12 0 5.12 2.56 5.12 5.12 5.12h28.16c5.12 0 5.12-2.56 5.12-5.12s-2.56-5.12-5.12-5.12v-38.4h5.12c5.12 0 5.12-2.56 5.12-5.12 5.12-5.12 0-5.12 0-5.12zM762.88 494.080l-33.28 23.040v-273.92c-5.12-5.12-10.24-7.68-15.36-12.8-15.36-12.8-28.16-23.040-40.96-35.84v358.4l-161.28 115.2-166.4-115.2v-355.84h-56.32v317.44l-25.6-17.92-33.28 46.080 71.68 48.64v89.6h69.12v-43.52l122.88 84.48 15.36 10.24 15.36-10.24 268.8-181.76-30.72-46.080zM555.52 552.96c-12.8 0-20.48-10.24-20.48-20.48 0-2.56 0-15.36 2.56-30.72 2.56-33.28 5.12-81.92 5.12-125.44h5.12v20.48c0 5.12 2.56 5.12 5.12 5.12 5.12 0 5.12-2.56 5.12-5.12v-20.48h5.12c2.56 43.52 5.12 92.16 5.12 125.44 0 15.36 2.56 28.16 2.56 30.72 5.12 10.24-5.12 20.48-15.36 20.48z" />
<glyph unicode="&#xe938;" glyph-name="shop-click-collect" d="M770.56 460.8c12.8 0 23.040 10.24 30.72 20.48l-33.28 38.4c-12.8-7.68-25.6-20.48-25.6-33.28s15.36-25.6 28.16-25.6zM512 849.92c-222.72 0-401.92-179.2-401.92-401.92s179.2-401.92 401.92-401.92 401.92 179.2 401.92 401.92-179.2 401.92-401.92 401.92zM750.080 552.96c0 35.84 51.2 35.84 51.2 2.56 0-15.36-15.36-25.6-28.16-33.28l30.72-35.84 10.24 17.92 5.12-2.56-12.8-17.92c7.68-7.68 15.36-15.36 20.48-23.040h-7.68l-17.92 20.48c-10.24-12.8-20.48-23.040-35.84-23.040-17.92 0-33.28 15.36-33.28 33.28 0 12.8 10.24 28.16 28.16 38.4-2.56 2.56-10.24 12.8-10.24 23.040zM514.56 581.12c17.92 0 33.28-5.12 46.080-20.48l-12.8-10.24c-10.24 10.24-23.040 15.36-33.28 15.36-28.16 0-43.52-23.040-43.52-46.080s15.36-46.080 43.52-46.080c12.8 0 28.16 5.12 35.84 17.92l12.8-10.24c-12.8-15.36-30.72-25.6-51.2-25.6-40.96 0-64 30.72-64 64s25.6 61.44 66.56 61.44zM409.6 578.56h20.48v-122.88h-20.48v122.88zM327.68 578.56h20.48v-104.96h46.080v-17.92h-66.56v122.88zM256 581.12c17.92 0 33.28-5.12 46.080-20.48l-12.8-10.24c-10.24 10.24-23.040 15.36-33.28 15.36-28.16 0-43.52-23.040-43.52-46.080s15.36-46.080 43.52-46.080c12.8 0 28.16 5.12 35.84 17.92l12.8-10.24c-12.8-15.36-30.72-25.6-51.2-25.6-40.96 0-64 30.72-64 64s25.6 61.44 66.56 61.44zM215.040 302.080c-40.96 0-64 30.72-64 64s23.040 64 64 64c17.92 0 33.28-5.12 46.080-20.48l-12.8-12.8c-10.24 10.24-23.040 15.36-33.28 15.36-28.16 0-43.52-23.040-43.52-46.080s15.36-46.080 43.52-46.080c12.8 0 28.16 5.12 35.84 17.92l12.8-10.24c-10.24-17.92-28.16-25.6-48.64-25.6zM435.2 166.4l-28.16-15.36-28.16 56.32-43.52-38.4v130.56c-33.28 0-61.44 28.16-61.44 64s28.16 64 64 64c35.84 0 64-28.16 64-64 0-17.92-7.68-35.84-20.48-46.080l87.040-97.28h-58.88l25.6-53.76zM488.96 304.64h-66.56v122.88h20.48v-104.96h46.080v-17.92zM570.88 304.64h-66.56v122.88h20.48v-104.96h46.080v-17.92zM586.24 581.12h20.48v-56.32l48.64 53.76h23.040l-48.64-53.76 48.64-69.12h-23.040l-38.4 56.32-10.24-10.24v-46.080h-20.48v125.44zM657.92 409.6h-48.64v-35.84h48.64v-17.92h-48.64c0-12.8 0-23.040 0-33.28h48.64v-17.92h-69.12v122.88h69.12v-17.92zM734.72 302.080c-40.96 0-64 30.72-64 64s23.040 64 64 64c17.92 0 33.28-5.12 46.080-20.48l-10.24-12.8c-10.24 10.24-23.040 15.36-33.28 15.36-28.16 0-43.52-23.040-43.52-46.080s15.36-46.080 43.52-46.080c12.8 0 28.16 5.12 35.84 17.92l12.8-10.24c-12.8-17.92-30.72-25.6-51.2-25.6zM842.24 409.6v-104.96h-20.48v104.96h-28.16v17.92h76.8v-17.92h-28.16zM345.6 343.040v-151.040l35.84 33.28 28.16-61.44 12.8 7.68-28.16 58.88h51.2zM796.16 555.52c0 15.36-7.68 20.48-17.92 20.48-12.8 0-20.48-10.24-20.48-20.48 0-12.8 10.24-20.48 15.36-28.16 7.68 5.12 23.040 15.36 23.040 28.16z" />
<glyph unicode="&#xe939;" glyph-name="video" d="M1000.96 463.36c-7.68 258.56-215.040 465.92-473.6 473.6-138.24 5.12-271.36-48.64-366.080-148.48-92.16-97.28-140.8-222.72-138.24-355.84 7.68-258.56 215.040-465.92 473.6-473.6 5.12 0 10.24 0 15.36 0 133.12 0 258.56 53.76 350.72 148.48 94.72 94.72 143.36 222.72 138.24 355.84zM791.040 179.2c-74.24-76.8-171.52-117.76-279.040-117.76-5.12 0-7.68 0-12.8 0-202.24 7.68-366.080 171.52-373.76 373.76-2.56 104.96 35.84 204.8 107.52 281.6 74.24 76.8 171.52 117.76 279.040 117.76 5.12 0 7.68 0 12.8 0 202.24-7.68 366.080-171.52 373.76-373.76 2.56-104.96-35.84-204.8-107.52-281.6zM673.28 476.16l-217.6 156.16c-23.040 15.36-56.32 0-56.32-28.16v-312.32c0-28.16 33.28-46.080 56.32-28.16l217.6 156.16c17.92 12.8 17.92 43.52 0 56.32z" />
<glyph unicode="&#xe93a;" glyph-name="size" d="M947.2 276.48l-417.28 220.16v28.16c0 0 0 0 0 0 66.56 15.36 110.080 56.32 110.080 110.080 0 61.44-48.64 110.080-110.080 110.080-56.32 0-104.96-40.96-110.080-94.72 0 0 0-2.56 0-2.56s0 0 0 0c0-10.24 7.68-20.48 20.48-20.48 10.24 0 20.48 7.68 20.48 20.48v0c2.56 17.92 10.24 28.16 17.92 35.84 12.8 15.36 33.28 23.040 53.76 23.040 38.4 0 69.12-30.72 69.12-69.12 0-15.36-5.12-28.16-17.92-40.96-15.36-12.8-35.84-25.6-61.44-30.72 0 0-30.72-10.24-30.72-10.24v-58.88l-414.72-220.16c-23.040-10.24-38.4-33.28-38.4-58.88 0-35.84 33.28-66.56 74.24-66.56 0 0 2.56 0 2.56 0h793.6c0 0 2.56 0 2.56 0 40.96 0 74.24 30.72 74.24 66.56 0 25.6-15.36 48.64-38.4 58.88zM911.36 192v0h-798.72c-17.92 0-35.84 12.8-35.84 25.6 0 10.24 5.12 17.92 15.36 23.040v0 0l419.84 222.72 417.28-220.16c10.24-5.12 15.36-12.8 15.36-23.040 2.56-15.36-15.36-28.16-33.28-28.16z" />
<glyph unicode="&#xe93b;" glyph-name="rent-snow-ski" d="M660.48 704c0-36.76-29.8-66.56-66.56-66.56s-66.56 29.8-66.56 66.56c0 36.76 29.8 66.56 66.56 66.56s66.56-29.8 66.56-66.56zM499.2 637.44c-89.6-23.040-125.44-153.6-117.76-220.16 10.24-89.6 58.88-66.56 107.52-64 46.080 2.56 94.72 2.56 46.080-58.88-48.64-58.88-97.28-125.44-97.28-125.44s102.4 71.68 135.68 117.76c33.28 46.080 58.88 102.4 10.24 117.76-46.080 15.36-97.28 12.8-92.16 38.4 7.68 25.6 46.080 87.040 46.080 87.040s20.48-30.72 84.48-25.6c64 7.68 115.2 46.080 115.2 46.080s-102.4-40.96-156.16 10.24c2.56-2.56-20.48 94.72-81.92 76.8zM724.48 168.96c0 0-235.52-89.6-455.68-7.68 0 0-5.12 30.72 15.36 43.52 0 0 151.040-97.28 440.32-35.84zM416.666 243.328v0c0 2.56 0 2.56 0 5.12l332.8 286.72c0 0 2.56 0 5.12 0s0-2.56 0-5.12v0l-337.92-286.72c2.56-2.56 0-2.56 0 0zM457.293 249.395v0l-30.72 30.72c0 0 0 2.56 0 5.12 0 0 2.56 0 5.12 0l28.16-30.72c0 0 0-2.56 0-5.12s0-2.56-2.56 0v0zM748.826 538.906l7.68-10.24c0-2.56 0-5.12 0-5.12l-33.28-30.72c-2.56 0-5.12 0-5.12 0l-7.68 10.24c0 2.56 0 5.12 0 5.12l33.28 30.72c0 0 2.56 0 5.12 0z" />
<glyph unicode="&#xe93c;" glyph-name="rent-snow-snowboard" d="M586.24 742.4c0-33.932-27.508-61.44-61.44-61.44s-61.44 27.508-61.44 61.44c0 33.932 27.508 61.44 61.44 61.44s61.44-27.508 61.44-61.44zM811.52 683.52c-10.24-5.12-23.040-10.24-33.28-12.8-23.040-5.12-46.080-10.24-71.68-10.24s-48.64 0-74.24 0h-35.84c-15.36 0-28.16 0-40.96 0-28.16-5.12-53.76-12.8-76.8-25.6s-46.080-25.6-66.56-40.96c-40.96-30.72-76.8-66.56-107.52-107.52 38.4 30.72 81.92 58.88 122.88 84.48 20.48 12.8 43.52 23.040 66.56 33.28 5.12 2.56 12.8 5.12 17.92 7.68 5.12-23.040 5.12-79.36 5.12-110.080-7.68 2.56-15.36 5.12-25.6 7.68-12.8 2.56-23.040 2.56-35.84 2.56-2.56 0-7.68 0-10.24 0h-5.12c-2.56 0-5.12-2.56-7.68-2.56-7.68-5.12-15.36-10.24-20.48-17.92-7.68-10.24-12.8-23.040-12.8-35.84-2.56-10.24-2.56-20.48 0-30.72l20.48-15.36c7.68 12.8 12.8 23.040 20.48 33.28 5.12 7.68 7.68 12.8 15.36 17.92 2.56 2.56 2.56 2.56 2.56 2.56v0 0 0c0 0 2.56 0 5.12 0 7.68 0 17.92 0 25.6 0 10.24 0 20.48 0 28.16 0 17.92 0 38.4 2.56 56.32 5.12 0-7.68-2.56-15.36-5.12-20.48l-5.12-15.36c-2.56-2.56-2.56-5.12-5.12-10.24 0-2.56-2.56-5.12-5.12-10.24l-2.56-5.12c0-2.56-2.56-5.12-2.56-7.68-10.24-17.92-15.36-35.84-17.92-56.32 0-10.24 0-20.48 0-28.16l28.16-23.040c2.56 15.36 7.68 28.16 12.8 43.52 5.12 12.8 12.8 25.6 20.48 38.4 0 0 2.56 2.56 2.56 5.12l2.56 5.12v-2.56c0 0 46.080 64 56.32 102.4 7.68 33.28-17.92 110.080-25.6 135.68 2.56 0 5.12 0 7.68 0 25.6 0 51.2 0 79.36 5.12s51.2 12.8 74.24 25.6c12.8 5.12 23.040 15.36 33.28 23.040 10.24 10.24 17.92 20.48 20.48 33.28-10.24-10.24-20.48-17.92-30.72-23.040zM248.32 506.88c-15.36 15.36-40.96 12.8-53.76-2.56-15.36-15.36-12.8-40.96 2.56-53.76l394.24-348.16c15.36-15.36 40.96-12.8 53.76 2.56s12.8 40.96-2.56 53.76l-394.24 348.16z" />
<glyph unicode="&#xe93d;" glyph-name="rent-snow-skimo" d="M391.68 693.76c30.72 0 53.76 25.6 53.76 53.76s-25.6 53.76-53.76 53.76-53.76-25.6-53.76-53.76 23.040-53.76 53.76-53.76v0zM839.68 427.52c0-5.12 0-10.24-2.56-15.36 0-2.56-2.56-5.12-2.56-7.68s-2.56-5.12-5.12-7.68c-7.68-7.68-15.36-15.36-25.6-20.48-5.12-2.56-10.24-5.12-15.36-7.68s-10.24-5.12-15.36-7.68l-30.72-12.8c-30.72-12.8-58.88-28.16-89.6-43.52l-10.24 33.28 5.12 2.56c12.8 7.68 23.040 12.8 35.84 20.48l15.36 7.68h2.56l2.56 2.56 5.12 2.56 2.56 2.56c0 0 2.56 2.56 2.56 5.12l2.56 2.56v2.56c2.56 7.68 5.12 15.36 2.56 20.48 0 7.68-2.56 12.8-7.68 17.92 5.12-12.8 7.68-28.16 0-38.4 0 0 0 0 0-2.56l-7.68-7.68-5.12-2.56h-5.12v-2.56l-10.24-5.12c-15.36-5.12-28.16-12.8-40.96-17.92l-79.36 271.36c2.56 7.68 7.68 15.36 7.68 23.040-5.12-2.56-7.68-7.68-12.8-10.24l-20.48 71.68-12.8-5.12 25.6-76.8c-10.24-7.68-20.48-15.36-28.16-23.040-7.68-5.12-15.36-10.24-23.040-15.36 0 0-2.56 0-5.12 0v0 0 0 0 0c0 0-25.6 23.040-33.28 35.84-7.68 15.36-40.96 61.44-79.36 61.44-40.96 0-30.72-61.44-30.72-97.28 0-33.28 5.12-174.080 5.12-174.080v0c0-15.36 0-30.72 0-46.080-10.24-12.8-17.92-28.16-25.6-40.96-10.24-15.36-15.36-33.28-23.040-48.64-2.56-7.68-7.68-17.92-10.24-25.6 0-2.56 0-5.12-2.56-7.68v-7.68c0-2.56 0-5.12 0-7.68s0-5.12 0-7.68c0-17.92 2.56-35.84 0-53.76 2.56 7.68 7.68 17.92 7.68 25.6 2.56 7.68 2.56 17.92 5.12 28.16 0 2.56 0 5.12 0 5.12 0 2.56 0 2.56 2.56 5.12l2.56 5.12c0 2.56 2.56 2.56 2.56 5.12 2.56 7.68 7.68 15.36 12.8 23.040 7.68 15.36 17.92 28.16 28.16 43.52s20.48 28.16 30.72 43.52l2.56 5.12 20.48 71.68 92.16 7.68c0 0 0-2.56 2.56-2.56l2.56-2.56c0-2.56 2.56-5.12 2.56-7.68 2.56-5.12 5.12-12.8 7.68-17.92 7.68-25.6 15.36-51.2 20.48-79.36 2.56-7.68 2.56-12.8 5.12-20.48v0-2.56h-2.56l-143.36-76.8c-23.040-12.8-48.64-25.6-71.68-40.96-46.080-28.16-94.72-56.32-140.8-84.48 48.64 23.040 99.84 46.080 145.92 71.68 25.6 12.8 48.64 25.6 74.24 38.4l143.36 76.8c0 0 2.56 0 2.56 2.56l2.56-2.56c5.12-5.12 12.8-10.24 20.48-12.8 5.12-2.56 10.24-2.56 15.36-5.12-5.12-2.56-10.24-5.12-15.36-10.24-17.92-12.8-38.4-23.040-56.32-35.84-38.4-23.040-74.24-48.64-110.080-74.24 40.96 20.48 79.36 40.96 117.76 64 10.24 5.12 20.48 10.24 28.16 15.36l28.16 15.36 58.88 33.28c7.68 5.12 15.36 10.24 25.6 15.36l17.92-53.76-15.36 56.32c10.24 5.12 20.48 12.8 30.72 17.92l28.16 15.36 15.36 7.68c5.12 2.56 10.24 5.12 15.36 7.68l15.36 7.68c5.12 2.56 10.24 5.12 15.36 7.68 10.24 5.12 20.48 12.8 28.16 17.92 10.24 7.68 17.92 15.36 23.040 25.6 0 2.56 2.56 5.12 5.12 7.68 0 2.56 2.56 5.12 2.56 7.68-5.12 2.56-5.12 7.68-7.68 12.8zM560.64 327.68c0 28.16-5.12 58.88-15.36 87.040-5.12 15.36-12.8 28.16-23.040 43.52l-2.56 2.56c0 0 0 2.56-2.56 2.56-2.56 2.56-2.56 2.56-5.12 5.12s-7.68 5.12-12.8 7.68c-7.68 2.56-15.36 5.12-23.040 5.12-15.36 2.56-30.72 0-46.080-2.56l-2.56 115.2c2.56-2.56 5.12-5.12 7.68-7.68 7.68-10.24 17.92-17.92 28.16-23.040 0 0 2.56-2.56 5.12-2.56s2.56-2.56 5.12-2.56 2.56-2.56 5.12-2.56h10.24c0 0 2.56 0 5.12 0s5.12 0 7.68 0c2.56 0 7.68 2.56 10.24 5.12 5.12 2.56 10.24 7.68 15.36 12.8s7.68 7.68 12.8 12.8c5.12 7.68 12.8 15.36 15.36 25.6l84.48-256c-10.24-5.12-20.48-10.24-30.72-15.36-15.36-7.68-33.28-15.36-48.64-25.6 0 0 0 5.12 0 12.8zM629.76 286.72c-12.8-7.68-25.6-15.36-38.4-23.040-10.24 7.68-17.92 15.36-23.040 25.6v0c17.92 10.24 35.84 17.92 51.2 28.16l28.16 15.36 10.24-33.28c-10.24-2.56-20.48-7.68-28.16-12.8v0zM279.040 670.72h43.52c5.12 0 7.68-2.56 7.68-7.68v-125.44c0-5.12-2.56-7.68-7.68-7.68h-43.52c-5.12 0-7.68 2.56-7.68 7.68v125.44c0 2.56 5.12 7.68 7.68 7.68z" />
<glyph unicode="&#xe93e;" glyph-name="rent-snow-others" d="M586.496 576.87c-5.12-10.24-7.68-17.92-12.8-25.6-2.56-5.12-5.12-10.24-10.24-15.36 15.36 7.68 23.040 15.36 30.72 17.92 0 7.68-2.56 15.36-7.68 23.040zM566.016 638.31c5.12-2.56 7.68-7.68 10.24-15.36s7.68-15.36 12.8-25.6c5.12 7.68 7.68 15.36 10.24 20.48-10.24 5.12-17.92 12.8-33.28 20.48zM586.496 669.030c-10.24 0-17.92 2.56-28.16 5.12-15.36 5.12-38.4 12.8-94.72 7.68-79.36-5.12-110.080-61.44-115.2-92.16v-5.12c2.56-15.36 10.24-30.72 20.48-43.52 15.36-20.48 43.52-46.080 94.72-48.64 58.88-2.56 79.36 2.56 94.72 7.68 10.24 2.56 17.92 5.12 28.16 5.12 12.8 0 33.28 0 58.88-2.56 48.64-2.56 107.52-7.68 130.56-2.56 40.96 7.68 97.28 38.4 94.72 87.040 0 2.56 0 2.56 0 5.12 0 43.52-53.76 74.24-94.72 81.92-23.040 5.12-79.36 0-130.56-2.56-25.6 0-46.080-2.56-58.88-2.56zM463.616 520.55c-69.12 2.56-87.040 56.32-89.6 66.56 2.56 12.8 20.48 64 89.6 66.56 10.24 0 20.48 0 28.16 0v-23.040c-10.24-2.56-17.92-7.68-25.6-10.24h-28.16v-10.24l10.24-2.56c0-2.56-2.56-5.12-2.56-10.24l-5.12-2.56 2.56-2.56-10.24-5.12 10.24-5.12-2.56-2.56 5.12-2.56c0-2.56 0-5.12 2.56-10.24l-10.24-2.56v-10.24h28.16c7.68-2.56 15.36-5.12 25.6-10.24v-23.040c-5.12 0-15.36 0-28.16 0v0zM770.816 648.55c17.92-2.56 35.84-10.24 51.2-20.48 10.24-7.68 23.040-20.48 20.48-35.84v-5.12c2.56-15.36-10.24-28.16-20.48-35.84-15.36-10.24-30.72-17.92-51.2-20.48s-79.36 0-122.88 2.56c-25.6 2.56-46.080 2.56-61.44 2.56-12.8 0-25.6-2.56-35.84-5.12-12.8-5.12-25.6-7.68-40.96-7.68v17.92c10.24-2.56 20.48-5.12 33.28-5.12v7.68c0 0 15.36-2.56 23.040 15.36 2.56 7.68 10.24 20.48 15.36 30.72-5.12 12.8-12.8 23.040-15.36 30.72-7.68 17.92-20.48 15.36-23.040 15.36v7.68c-10.24 0-23.040-2.56-33.28-5.12v17.92c12.8 0 28.16-2.56 40.96-7.68s23.040-5.12 35.84-5.12 35.84 0 61.44 2.56c43.52 2.56 102.4 5.12 122.88 2.56v0zM537.856 546.15c2.56 0 5.12 5.12 5.12 15.36 0 15.36 2.56 58.88 2.56 58.88h2.56c0 0-2.56-43.52-2.56-58.88-2.56-12.8-5.12-15.36-7.68-15.36-2.56-2.56-5.12 0-7.68 2.56-5.12 5.12-2.56 64-2.56 69.12h2.56c0-17.92 0-64 2.56-69.12 0-2.56 2.56-2.56 5.12-2.56v0zM688.896 630.63c56.32 2.56 58.88-38.4 58.88-40.96 0-10.24-2.56-20.48-10.24-28.16-15.36-15.36-43.52-15.36-46.080-15.36v-10.24c0 0 33.28 0 53.76 20.48 10.24 10.24 12.8 23.040 12.8 35.84 0 0 0 0 0 2.56 0 0-5.12 53.76-69.12 48.64v-12.8zM670.976 553.83h56.32c2.56 2.56 7.68 5.12 10.24 7.68 7.68 7.68 10.24 17.92 10.24 28.16-2.56 12.8-7.68 23.040-17.92 30.72h-56.32c0 0-43.52-2.56-64-2.56-2.56-5.12-10.24-17.92-15.36-30.72 7.68-12.8 12.8-25.6 15.36-30.72 15.36 2.56 61.44-2.56 61.44-2.56zM758.016 589.67c0-12.8-5.12-25.6-12.8-35.84h38.4c7.68 10.24 12.8 20.48 12.8 33.28s-5.12 25.6-12.8 33.28h-38.4c7.68-7.68 12.8-17.92 12.8-30.72 0 2.56 0 0 0 0zM585.472 436.070c53.76 0 104.96 0 158.72 0 38.4 0 76.8 0 115.2 0 5.12 0 12.8 0 15.36-5.12 7.68-5.12 10.24-15.36 7.68-25.6s-12.8-15.36-20.48-15.36c-28.16 0-56.32 0-84.48 0-5.12 0-5.12 0-5.12-5.12 0-46.080 0-92.16 0-138.24 0-5.12 0-5.12 5.12-5.12 20.48 0 40.96 0 58.88 0 12.8 0 23.040 0 35.84-2.56 7.68 0 12.8-7.68 10.24-15.36v0c0-7.68-5.12-12.8-12.8-12.8v0c-7.68 0-17.92 0-25.6 0-171.52 0-343.040 0-514.56 0-10.24 0-17.92 0-28.16 2.56-46.080 10.24-87.040 33.28-117.76 71.68-23.040 28.16-38.4 61.44-43.52 97.28-2.56 12.8-2.56 25.6-2.56 38.4 0 7.68 7.68 12.8 15.36 12.8 2.56 0 2.56 0 5.12-2.56 5.12-2.56 7.68-7.68 7.68-15.36 0-10.24 0-17.92 2.56-28.16 5.12-25.6 15.36-51.2 28.16-71.68 12.8-17.92 28.16-33.28 46.080-43.52 20.48-12.8 40.96-23.040 66.56-25.6 23.040-2.56 46.080-2.56 71.68-2.56 5.12 0 5.12 0 5.12 5.12 0 46.080 0 89.6 0 135.68 0 7.68 0 7.68-5.12 7.68-38.4 0-79.36 0-117.76 0-12.8 0-23.040 10.24-23.040 23.040 0 2.56 0 5.12 0 7.68 2.56 10.24 12.8 15.36 25.6 15.36l320-2.56zM739.072 249.19c0 43.52 0 89.6 0 135.68 0 7.68 0 7.68-5.12 7.68h-151.040c-51.2 0-102.4 0-153.6 0-5.12 0-5.12 0-5.12-5.12 0-46.080 0-92.16 0-135.68 0-5.12 2.56-5.12 5.12-5.12 99.84 0 197.12 0 294.4 0 5.12 0 10.24 0 15.36 0 0-2.56 0 0 0 2.56v0z" />
<glyph unicode="&#xe93f;" glyph-name="rent-snow-ski-pack" d="M634.88 529.92c-56.32 0-99.84-2.56-99.84-76.8 0-5.12 2.56-5.12 2.56-5.12 51.2 2.56 51.2-23.040 51.2-23.040s2.56-40.96 2.56-48.64 0-7.68 2.56-7.68l2.56-2.56c0 0-2.56-2.56-2.56-5.12-5.12-7.68-5.12-15.36 0-17.92s10.24 0 15.36 7.68c0 2.56 2.56 2.56 2.56 5.12 0 0 2.56-2.56 5.12-2.56 2.56-2.56 5.12 0 7.68 2.56 10.24 10.24 43.52 38.4 51.2 40.96s28.16 10.24 38.4 12.8c2.56 2.56 5.12 5.12 5.12 7.68v46.080c-2.56 30.72-25.6 66.56-84.48 66.56zM616.96 378.88c-2.56 0-5.12 2.56-7.68 2.56s-2.56 2.56-2.56 2.56c0 7.68 0 30.72 0 30.72 0 2.56 0 2.56 5.12 2.56 7.68 2.56 17.92 2.56 25.6 2.56 5.12-2.56 10.24-5.12 12.8-7.68 0-2.56 2.56-2.56 0-5.12l-33.28-28.16c2.56 0 2.56 0 0 0v0zM423.578 58.88v0c0 0 2.56 12.8 2.56 28.16v0l2.56 17.92 158.72 691.2c5.12 25.6 0 40.96-15.36 43.52v0 0 0 0c-12.8 2.56-25.6-7.68-30.72-33.28l-158.72-691.2-5.12-17.92c-5.12-12.8-7.68-25.6-7.68-25.6v0-2.56c0-5.12 2.56-7.68 5.12-10.24v0l40.96-10.24c0 2.56 5.12 5.12 7.68 10.24v0 0zM559.258 71.68v0c0 0-5.12 12.8-7.68 25.6v0l-5.12 17.92-140.8 693.76c-5.12 25.6-17.92 35.84-30.72 33.28v0 0 0 0c-15.36-2.56-23.040-15.36-17.92-40.96l140.8-693.76 2.56-17.92c2.56-15.36 5.12-28.16 5.12-28.16v0-2.56c0-5.12 5.12-7.68 10.24-5.12v0l40.96 10.24c2.56-2.56 5.12 2.56 2.56 7.68v0zM322.56 158.72c0-2.56 2.56-5.12 5.12-5.12v0h7.68v-12.8l2.56-2.56c2.56 0 2.56 0 2.56 2.56v12.8h7.68c2.56 0 5.12 2.56 5.12 5.12s-2.56 5.12-5.12 5.12v0h-7.68v348.16h5.12c2.56 0 2.56 2.56 2.56 2.56 0 2.56-2.56 2.56-2.56 2.56v0 43.52c5.12-12.8 7.68-25.6 7.68-38.4 2.56-17.92 2.56-33.28 15.36-33.28 2.56 0 5.12 0 7.68 2.56 5.12 2.56 7.68 5.12 7.68 10.24 5.12 12.8-2.56 35.84-10.24 51.2-5.12 10.24-12.8 20.48-25.6 25.6 0 2.56 0 2.56-2.56 5.12v0h-20.48c-2.56 0-2.56-2.56-2.56-2.56 0-2.56 2.56-2.56 2.56-2.56v0-58.88c-2.56 0-2.56-2.56-2.56-2.56 0-2.56 2.56-2.56 2.56-2.56h5.12v-348.16h-7.68c2.56-2.56 0-5.12 0-7.68zM355.84 568.32c7.68-5.12 12.8-10.24 15.36-17.92 7.68-15.36 12.8-33.28 10.24-43.52 0-2.56-2.56-5.12-5.12-5.12 0 0-2.56 0-5.12 0-5.12 0-5.12 12.8-7.68 25.6 0 12.8-2.56 28.16-7.68 40.96zM322.56 163.84h-7.68v348.16h5.12c2.56 0 2.56 2.56 2.56 2.56 0 2.56-2.56 2.56-2.56 2.56v0 58.88c2.56 0 2.56 2.56 2.56 2.56 0 2.56-2.56 2.56-2.56 2.56h-20.48c-2.56 0-2.56-2.56-2.56-2.56v0c-10.24-5.12-20.48-12.8-25.6-25.6-7.68-15.36-15.36-38.4-10.24-51.2 0-5.12 5.12-7.68 7.68-10.24 2.56 0 5.12-2.56 7.68-2.56 12.8 0 12.8 15.36 15.36 33.28 0 12.8 2.56 25.6 7.68 38.4v-43.52c-2.56 0-2.56-2.56-2.56-2.56 0-2.56 2.56-2.56 2.56-2.56h5.12v-348.16h-7.68c-2.56 0-5.12-2.56-5.12-5.12s2.56-5.12 5.12-5.12v0h7.68v-12.8l2.56-2.56c2.56 0 2.56 0 2.56 2.56v12.8h7.68c2.56 0 5.12 2.56 5.12 5.12 5.12 2.56 2.56 5.12 0 5.12v0 0zM284.16 524.8c-2.56-12.8-2.56-25.6-7.68-25.6-2.56 0-2.56 0-5.12 0s-2.56 2.56-5.12 5.12c-2.56 10.24 2.56 30.72 10.24 43.52 2.56 7.68 7.68 12.8 15.36 17.92-2.56-10.24-7.68-25.6-7.68-40.96v0zM568.32 122.88c0-5.12 5.12-7.68 7.68-7.68h66.56c2.56 0 2.56 0 2.56 2.56 5.12 5.12 12.8 7.68 20.48 5.12 7.68 0 15.36-2.56 20.48-5.12l2.56-2.56h66.56c5.12 0 7.68 5.12 7.68 10.24s-2.56 7.68-7.68 7.68c0 7.68-2.56 15.36-7.68 20.48-5.12 7.68-12.8 12.8-20.48 17.92-7.68-10.24-23.040-28.16-25.6-25.6s2.56 23.040 5.12 33.28c-5.12 2.56-7.68 2.56-12.8 2.56-5.12-7.68-25.6-30.72-30.72-28.16-2.56 2.56 2.56 25.6 7.68 35.84-2.56 0-2.56 2.56-5.12 2.56-2.56 5.12-2.56 7.68 0 12.8-12.8 5.12-48.64 23.040-46.080 25.6s40.96-2.56 53.76-5.12c0 2.56 2.56 5.12 2.56 10.24v0c-7.68 2.56-51.2 20.48-48.64 25.6s43.52-2.56 53.76-5.12c0 2.56 0 5.12 0 5.12 0 23.040 5.12 25.6 5.12 35.84-2.56 20.48-35.84-7.68-43.52-5.12s-46.080 33.28-46.080 17.92-5.12-56.32-5.12-71.68c-2.56-23.040-12.8-51.2-17.92-61.44-2.56-12.8-5.12-23.040-5.12-35.84 0-2.56 0-7.68 0-10.24 2.56-2.56 0-5.12 0-7.68zM627.2 171.52c0-7.68-5.12-12.8-12.8-12.8s-12.8 5.12-12.8 12.8 5.12 12.8 12.8 12.8v0c7.68 0 12.8-5.12 12.8-12.8v0 0z" />
<glyph unicode="&#xe940;" glyph-name="rent-snow-ski-boot" d="M227.84 181.76c0-12.8 10.24-25.6 25.6-25.6v0h192c5.12 0 7.68 2.56 10.24 7.68 5.12 7.68 23.040 15.36 58.88 15.36 38.4 0 51.2-10.24 58.88-17.92 2.56-2.56 5.12-5.12 7.68-5.12v0h192c12.8 0 25.6 10.24 25.6 25.6 0 12.8-10.24 23.040-23.040 25.6 0 23.040-7.68 43.52-23.040 61.44-17.92 20.48-38.4 38.4-61.44 51.2-23.040-25.6-69.12-76.8-76.8-71.68-10.24 5.12 7.68 69.12 17.92 99.84-12.8 5.12-23.040 7.68-33.28 10.24-17.92-23.040-74.24-92.16-84.48-84.48-10.24 5.12 10.24 71.68 23.040 102.4-5.12 2.56-7.68 5.12-10.24 7.68-5.12 7.68-2.56 20.48 0 35.84-33.28 12.8-143.36 64-135.68 76.8s120.32-7.68 153.6-15.36c2.56 7.68 5.12 17.92 7.68 25.6h-2.56c-25.6 7.68-145.92 61.44-138.24 74.24s128-5.12 156.16-12.8c0 5.12 0 10.24 0 17.92 0 64 15.36 71.68 12.8 104.96-7.68 61.44-104.96-20.48-125.44-15.36s-133.12 94.72-133.12 51.2-12.8-166.4-15.36-207.36c-5.12-64-38.4-143.36-51.2-179.2-10.24-33.28-15.36-69.12-15.36-104.96 0-10.24 0-17.92 2.56-28.16-10.24-5.12-15.36-15.36-15.36-25.6zM399.36 327.68c0-20.48-15.36-35.84-35.84-35.84s-35.84 15.36-35.84 35.84 15.36 35.84 35.84 35.84v0c20.48 2.56 35.84-15.36 35.84-35.84v0 0z" />
<glyph unicode="&#xe941;" glyph-name="rent-snow-ski-helmet" d="M552.96 847.36c-250.88 0-440.32-10.24-440.32-332.8 0-17.92 12.8-23.040 17.92-23.040 227.84 7.68 220.16-94.72 220.16-94.72s5.12-179.2 5.12-209.92 5.12-30.72 12.8-33.28l12.8-5.12c-5.12-5.12-10.24-12.8-12.8-17.92-17.92-30.72-17.92-64 2.56-76.8s51.2 5.12 69.12 33.28c5.12 7.68 7.68 15.36 10.24 25.6 0 0 12.8-5.12 23.040-12.8 12.8-7.68 17.92 0 28.16 10.24 51.2 43.52 186.88 168.96 222.72 181.76 30.72 12.8 125.44 40.96 168.96 56.32 12.8 5.12 23.040 23.040 23.040 38.4v204.8c-5.12 104.96-110.080 256-363.52 256zM471.040 194.56c-7.68 5.12-23.040 12.8-30.72 12.8-5.12 5.12-5.12 7.68-5.12 17.92 0 35.84 0 130.56 0 133.12 0 5.12 5.12 12.8 23.040 15.36 38.4 12.8 76.8 12.8 115.2 5.12 23.040-5.12 43.52-20.48 58.88-38.4 5.12-7.68 7.68-12.8-5.12-23.040l-140.8-122.88c-2.56-2.56-7.68-5.12-15.36 0v0z" />
<glyph unicode="&#xe942;" glyph-name="rent-snow-ski-poles" d="M645.12 74.24l-17.92-5.12-204.8 665.6 12.8 5.12c2.56 0 5.12 5.12 5.12 7.68s-5.12 5.12-7.68 5.12v0h-2.56l-33.28 112.64h2.56c2.56 0 5.12 5.12 5.12 7.68s-5.12 5.12-7.68 5.12v0l-38.4-10.24c-2.56 0-5.12-5.12-5.12-7.68v0-2.56c-12.8-7.68-25.6-30.72-33.28-61.44-5.12-35.84-5.12-81.92 10.24-104.96 5.12-7.68 12.8-12.8 20.48-12.8 5.12 0 10.24 0 15.36 0 23.040 7.68 17.92 38.4 10.24 71.68-5.12 25.6-7.68 51.2-7.68 79.36l25.6-84.48h-2.56c-2.56 0-5.12-5.12-5.12-7.68s5.12-5.12 7.68-5.12l15.36-2.56 204.8-665.6-17.92-5.12c-5.12-2.56-7.68-7.68-5.12-12.8s7.68-7.68 12.8-5.12v0l17.92 5.12 7.68-25.6c0-2.56 5.12-2.56 7.68-2.56s7.68 5.12 5.12 5.12l-7.68 25.6 17.92 5.12c5.12 2.56 7.68 7.68 5.12 12.8-2.56 7.68-7.68 10.24-12.8 7.68v0zM360.96 744.96c5.12-25.6 10.24-51.2 0-53.76-2.56 0-5.12 0-7.68 0-5.12 0-7.68 2.56-10.24 7.68-12.8 17.92-12.8 58.88-7.68 92.16 2.56 15.36 7.68 30.72 17.92 43.52-5.12-30.72 2.56-64 7.68-89.6v0zM366.080 69.12c-2.56-5.12 0-10.24 5.12-12.8l17.92-5.12-7.68-25.6c0-2.56 2.56-5.12 5.12-5.12 5.12 0 7.68 0 7.68 2.56l7.68 25.6 17.92-5.12c5.12-2.56 10.24 0 12.8 5.12s0 10.24-5.12 12.8v0l-17.92 2.56 204.8 665.6 10.24-2.56c2.56 0 7.68 0 7.68 5.12 0 2.56 0 7.68-5.12 7.68v0h-2.56l25.6 84.48c0-25.6-2.56-53.76-7.68-79.36-7.68-35.84-12.8-64 10.24-71.68 5.12-2.56 10.24-2.56 15.36 0 7.68 2.56 17.92 7.68 20.48 12.8 15.36 23.040 17.92 69.12 10.24 104.96-5.12 33.28-20.48 53.76-33.28 61.44 2.56 2.56 2.56 7.68-2.56 10.24h-2.56l-38.4 10.24c-2.56 0-7.68 0-7.68-5.12 0-2.56 0-7.68 5.12-7.68h2.56l-33.28-112.64h-2.56c-2.56 0-7.68 0-7.68-5.12 0-2.56 0-7.68 5.12-7.68l10.24-2.56-204.8-665.6-17.92 5.12c2.56 5.12-2.56 2.56-5.12-2.56v0zM670.72 834.56c10.24-12.8 15.36-28.16 17.92-43.52 5.12-33.28 5.12-74.24-7.68-92.16-2.56-5.12-5.12-7.68-10.24-7.68-2.56 0-5.12 0-7.68 0-7.68 2.56-2.56 28.16 0 53.76 5.12 25.6 12.8 58.88 7.68 89.6v0z" />
<glyph unicode="&#xe943;" glyph-name="rent-adult" d="M680.96 471.040c5.12 25.6 5.12 53.76 0 79.36s-15.36 51.2-30.72 74.24-35.84 40.96-61.44 53.76c-7.68 2.56-12.8 5.12-20.48 5.12-35.84 15.36-74.24 15.36-110.080 0-7.68-2.56-15.36-2.56-20.48-7.68-25.6-12.8-46.080-30.72-61.44-53.76-17.92-20.48-28.16-46.080-33.28-71.68s-5.12-53.76 0-79.36c2.56 2.56 2.56 2.56 2.56 5.12 12.8 20.48 23.040 40.96 33.28 58.88 10.24 20.48 23.040 38.4 33.28 58.88 5.12 10.24 12.8 17.92 20.48 25.6 2.56-33.28 7.68-64 10.24-97.28-30.72-140.8-40.96-284.16-33.28-427.52 0-10.24 12.8-33.28 15.36-33.28 5.12 7.68 7.68 17.92 10.24 28.16 7.68 35.84 15.36 74.24 23.040 110.080 7.68 40.96 17.92 79.36 28.16 120.32 2.56 10.24 15.36 20.48 20.48 28.16 7.68-10.24 17.92-17.92 20.48-30.72 7.68-17.92 12.8-35.84 15.36-56.32 10.24-53.76 20.48-107.52 30.72-158.72 5.12-15.36 10.24-28.16 15.36-43.52 2.56 0 17.92 33.28 15.36 48.64-2.56 92.16-5.12 186.88-12.8 279.040-5.12 43.52-12.8 87.040-20.48 130.56 5.12 33.28 7.68 66.56 12.8 99.84v2.56c7.68-7.68 12.8-15.36 20.48-25.6 12.8-17.92 23.040-38.4 33.28-58.88 10.24-17.92 20.48-35.84 30.72-56.32 7.68-2.56 10.24-5.12 12.8-7.68v0 0c0 0 0-2.56 0 0v0zM509.44 714.24c35.84 0 64 25.6 64 61.44v0c0 35.84-25.6 64-61.44 64s-64-25.6-64-61.44 28.16-64 61.44-64v0z" />
<glyph unicode="&#xe944;" glyph-name="rent-junior" d="M512 593.92c30.72 0 56.32 23.040 56.32 53.76v0c0 30.72-23.040 56.32-53.76 56.32s-56.32-23.040-56.32-53.76c-2.56-30.72 23.040-56.32 53.76-56.32v0zM686.080 622.080c-30.72-10.24-61.44-20.48-89.6-35.84-2.56-2.56-5.12-2.56-7.68-5.12-23.040-2.56-46.080-5.12-71.68-2.56-33.28 0-64 2.56-94.72 10.24-25.6 12.8-53.76 25.6-81.92 33.28 7.68-15.36 20.48-28.16 33.28-38.4s25.6-20.48 40.96-28.16c0 0 2.56 0 2.56-2.56 10.24-5.12 17.92-12.8 28.16-17.92 15.36-7.68 23.040-20.48 20.48-35.84-5.12-28.16-7.68-58.88-12.8-87.040-5.12-51.2-12.8-148.48-12.8-161.28 0-20.48 0-38.4 2.56-58.88 0 0 0 0 0 2.56 5.12 10.24 20.48 46.080 23.040 51.2v2.56c7.68 20.48 17.92 40.96 25.6 61.44 5.12 12.8 10.24 53.76 25.6 53.76v0c15.36 0 20.48-40.96 25.6-53.76 10.24-25.6 17.92-35.84 25.6-64 7.68-17.92 15.36-35.84 23.040-51.2 2.56 17.92 5.12 38.4 2.56 58.88 0 15.36-10.24 115.2-15.36 161.28-2.56 28.16-7.68 58.88-12.8 87.040-2.56 17.92 5.12 28.16 20.48 35.84 25.6 15.36 20.48 10.24 46.080 28.16 7.68 5.12 12.8 12.8 20.48 20.48 12.8 7.68 25.6 20.48 33.28 35.84z" />
<glyph unicode="&#xe945;" glyph-name="rent-snow-snowflake" d="M540.134 71.68v752.64c0 15.36-12.8 28.16-28.16 28.16v0c-15.36 0-28.16-12.8-28.16-28.16v0-752.64c0-15.36 12.8-28.16 28.16-28.16s28.16 12.8 28.16 28.16zM632.294 776.986c-12.8 12.8-28.16 12.8-40.96 0v0l-81.92-81.92-79.36 81.92c-12.8 12.8-28.16 12.8-40.96 0v0c-10.24-12.8-10.24-28.16 2.56-40.96v0l99.84-99.84c5.12-5.12 15.36-7.68 23.040-7.68s15.36 2.56 23.040 7.68l94.72 99.84c10.24 12.8 10.24 30.72 0 40.96v0zM391.654 119.066c12.8-12.8 28.16-12.8 40.96 0v0l81.92 81.92 81.92-81.92c12.8-12.8 28.16-12.8 40.96 0v0c12.8 12.8 12.8 28.16 0 40.96v0l-99.84 99.84c-5.12 5.12-15.36 7.68-23.040 7.68s-15.36-2.56-23.040-7.68l-99.84-99.84c-10.24-12.8-10.24-30.72 0-40.96v0zM852.48 284.365l-652.8 376.32c-12.8 7.68-30.72 5.12-38.4-10.24v0c-7.68-15.36-2.56-30.72 10.24-38.4v0l650.24-376.32c15.36-7.68 30.72-5.12 38.4 10.24v0c10.24 12.8 5.12 30.72-7.68 38.4v0zM287.078 717.005c-15.36-5.12-23.040-20.48-20.48-33.28v0l30.72-110.080-110.080-30.72c-15.36-5.12-23.040-20.48-20.48-33.28 5.12-15.36 20.48-23.040 33.28-20.48l135.68 35.84c7.68 2.56 15.36 7.68 17.92 15.36 5.12 5.12 5.12 15.36 5.12 23.040l-35.84 135.68c-5.12 15.36-20.48 23.040-35.84 17.92zM737.638 179.405c15.36 5.12 23.040 20.48 20.48 33.28v0l-30.72 110.080 110.080 30.72c15.36 5.12 23.040 20.48 20.48 33.28-5.12 15.36-20.48 23.040-33.28 20.48v0l-135.68-35.84c-7.68-2.56-15.36-7.68-17.92-15.36-5.12-5.12-5.12-15.36-5.12-23.040l35.84-135.68c5.12-15.36 17.92-23.040 35.84-17.92zM824.32 660.659l-652.8-376.32c-15.36-7.68-17.92-25.6-10.24-38.4 7.68-15.36 23.040-17.92 38.4-10.24v0l652.8 376.32c15.36 7.68 17.92 25.6 10.24 38.4v0c-7.68 15.36-25.6 17.92-38.4 10.24v0zM166.758 386.739c-5.12-15.36 2.56-30.72 20.48-33.28l110.080-30.72-30.72-110.080c-5.12-15.36 5.12-30.72 20.48-33.28v0c15.36-5.12 30.72 5.12 33.28 20.48l35.84 135.68c2.56 7.68 0 15.36-5.12 23.040-5.12 5.12-10.24 12.8-17.92 15.36l-135.68 35.84c-10.24 5.12-28.16-5.12-30.72-23.040 0 2.56 0 0 0 0zM857.958 507.059c5.12 15.36-5.12 30.72-20.48 33.28l-110.080 30.72 30.72 110.080c5.12 15.36-5.12 30.72-20.48 33.28v0c-15.36 5.12-30.72-5.12-33.28-20.48v0l-35.84-135.68c-2.56-7.68 0-15.36 5.12-23.040s10.24-12.8 17.92-15.36l135.68-35.84c10.24-2.56 28.16 7.68 30.72 23.040v0z" />
</font>
</defs>
</svg>
