<?xml version="1.0" encoding="utf-8"?>
<!-- Generator: Adobe Illustrator 22.0.1, SVG Export Plug-In . SVG Version: 6.00 Build 0)  -->
<svg version="1.1" id="Capa_1" xmlns="http://www.w3.org/2000/svg" xmlns:xlink="http://www.w3.org/1999/xlink" x="0px" y="0px"
	 viewBox="0 0 158.3 40" style="enable-background:new 0 0 158.3 40;" xml:space="preserve">
<style type="text/css">
	.st0{fill:#AA8215;}
</style>
<g>
	<polygon class="st0" points="15.7,25.9 21.8,40 36.5,40 28.8,22.4 23.8,18.7 36,0 22.3,0 13,15.9 14.2,7.9 14.2,0 0.3,0 0.3,40 
		14.2,40 14.2,29.1 	"/>
	<rect x="38.2" class="st0" width="14.2" height="10.4"/>
	<polygon class="st0" points="56.9,40 82.6,40 82.6,30.1 70.8,30.1 70.8,0 56.9,0 	"/>
	<polygon class="st0" points="87.9,40 99.6,40 112.1,0 99.4,0 95.6,17.2 94.7,27.9 93.4,17.2 89.1,0 74.7,0 	"/>
	<rect x="113.8" class="st0" width="14.2" height="40"/>
	<polygon class="st0" points="132.6,40 158.3,40 158.3,30.1 146.6,30.1 146.6,0 132.6,0 	"/>
	<rect x="38.2" y="14.1" class="st0" width="14.2" height="25.9"/>
</g>
</svg>
