<?xml version="1.0" encoding="utf-8"?>
<!-- Generator: Adobe Illustrator 22.0.1, SVG Export Plug-In . SVG Version: 6.00 Build 0)  -->
<svg version="1.1"
	 id="Capa_1" xmlns:cc="http://creativecommons.org/ns#" xmlns:dc="http://purl.org/dc/elements/1.1/" xmlns:rdf="http://www.w3.org/1999/02/22-rdf-syntax-ns#"
	 xmlns="http://www.w3.org/2000/svg" xmlns:xlink="http://www.w3.org/1999/xlink" x="0px" y="0px" viewBox="0 0 25.7 20"
	 style="enable-background:new 0 0 25.7 20;" xml:space="preserve">
<style type="text/css">
	.st0{fill:#0099DF;}
	.st1{fill:#6C6BBD;}
	.st2{fill:#EB001B;}
	.st3{fill:#231F20;}
</style>
<g transform="translate(-1837.7 -1267.9)">
	<g transform="matrix(3.1437 0 0 3.1437 -1661.1 -866.42)">
		<g transform="matrix(1.25 0 0 -1.25 1176 710.77)">
			<path class="st0" d="M-44,22.2L-44,22.2L-44,22.2L-44,22.2L-44,22.2L-44,22.2L-44,22.2L-44,22.2L-44,22.2L-44,22.2L-44,22.2
				L-44,22.2L-44,22.2L-44,22.2z M-44.1,22.2L-44.1,22.2L-44.1,22.2L-44.1,22.2L-44.1,22.2L-44.1,22.2L-44.1,22.2L-44.1,22.2
				L-44.1,22.2z"/>
		</g>
		<path class="st1" d="M1118.2,683.4h-2.2v-4h2.2V683.4z"/>
		<g transform="matrix(1.25 0 0 -1.25 1137.3 698.59)">
			<path class="st2" d="M-17,13.7c0,0.6,0.3,1.2,0.8,1.6c-0.3,0.3-0.8,0.4-1.2,0.4c-1.1,0-2-0.9-2-2s0.9-2,2-2
				c0.5,0,0.9,0.2,1.2,0.4C-16.7,12.5-17,13.1-17,13.7"/>
		</g>
		<g transform="matrix(1.25 0 0 -1.25 1176.6 698.59)">
			<path class="st0" d="M-44.4,13.7c0-1.1-0.9-2-2-2c-0.5,0-0.9,0.2-1.2,0.4c0.5,0.4,0.8,0.9,0.8,1.6c0,0.6-0.3,1.2-0.8,1.6
				c0.3,0.3,0.8,0.4,1.2,0.4C-45.3,15.7-44.4,14.8-44.4,13.7"/>
		</g>
		<g transform="matrix(1.25 0 0 -1.25 1159.2 722.78)">
			<path class="st3" d="M-32.2,30.6C-32.2,30.6-32.2,30.6-32.2,30.6l0-0.1c0,0,0,0-0.1,0c-0.1,0-0.1,0-0.1-0.1V30h-0.1v0.5h0.1v-0.1
				C-32.4,30.5-32.3,30.6-32.2,30.6 M-32.7,30.5h-0.2v-0.2c0-0.1,0-0.1,0.1-0.1c0,0,0.1,0,0.1,0l0-0.1c0,0-0.1,0-0.1,0
				c-0.1,0-0.2,0.1-0.2,0.2v0.2h-0.1v0.1h0.1v0.2h0.1v-0.2h0.2V30.5z M-34.2,30.3c0,0.1,0.1,0.1,0.1,0.1c0.1,0,0.1,0,0.1-0.1H-34.2z
				 M-33.8,30.3c0,0.2-0.1,0.3-0.3,0.3c-0.2,0-0.3-0.1-0.3-0.3c0-0.2,0.1-0.3,0.3-0.3c0.1,0,0.2,0,0.2,0.1l-0.1,0.1
				c0,0-0.1-0.1-0.2-0.1c-0.1,0-0.1,0-0.2,0.1L-33.8,30.3C-33.8,30.3-33.8,30.3-33.8,30.3 M-33.3,30.4c0,0-0.1,0-0.2,0
				c-0.1,0-0.1,0-0.1-0.1c0,0,0,0,0.1-0.1l0.1,0c0.1,0,0.2-0.1,0.2-0.2c0-0.1-0.1-0.2-0.2-0.2c-0.1,0-0.2,0-0.2,0.1l0.1,0.1
				c0,0,0.1-0.1,0.2-0.1c0.1,0,0.1,0,0.1,0.1c0,0,0,0-0.1,0.1l-0.1,0c-0.1,0-0.2,0.1-0.2,0.2c0,0.1,0.1,0.2,0.2,0.2
				C-33.3,30.6-33.3,30.6-33.3,30.4L-33.3,30.4z M-31.8,30.5C-31.8,30.5-31.9,30.5-31.8,30.5c-0.1,0-0.1,0-0.1,0s0,0,0-0.1
				c0,0,0,0,0-0.1c0,0,0,0,0-0.1c0,0,0,0,0-0.1s0,0,0.1,0c0,0,0,0,0.1,0s0,0,0.1,0c0,0,0,0,0.1,0c0,0,0,0,0,0.1c0,0,0,0,0,0.1
				c0,0,0,0,0,0.1c0,0,0,0,0,0.1C-31.7,30.4-31.7,30.4-31.8,30.5C-31.8,30.5-31.8,30.5-31.8,30.5 M-31.8,30.6c0,0,0.1,0,0.1,0
				c0,0,0.1,0,0.1-0.1c0,0,0-0.1,0.1-0.1c0,0,0-0.1,0-0.1s0-0.1,0-0.1c0,0,0-0.1-0.1-0.1c0,0-0.1,0-0.1-0.1c0,0-0.1,0-0.1,0
				s-0.1,0-0.1,0c0,0-0.1,0-0.1,0.1c0,0,0,0.1-0.1,0.1c0,0,0,0.1,0,0.1s0,0.1,0,0.1c0,0,0,0.1,0.1,0.1c0,0,0.1,0,0.1,0.1
				C-31.9,30.6-31.9,30.6-31.8,30.6 M-34.9,30.3c0,0.1,0.1,0.2,0.2,0.2c0.1,0,0.2-0.1,0.2-0.2c0-0.1-0.1-0.2-0.2-0.2
				C-34.8,30.1-34.9,30.2-34.9,30.3 M-34.4,30.3v0.3h-0.1v-0.1c0,0-0.1,0.1-0.2,0.1c-0.2,0-0.3-0.1-0.3-0.3c0-0.2,0.1-0.3,0.3-0.3
				c0.1,0,0.1,0,0.2,0.1V30h0.1V30.3z M-35.1,30v0.3c0,0.1-0.1,0.2-0.2,0.2c-0.1,0-0.1,0-0.2-0.1c0,0.1-0.1,0.1-0.2,0.1
				c-0.1,0-0.1,0-0.2-0.1v0.1h-0.1V30h0.1v0.3c0,0.1,0.1,0.1,0.1,0.1c0.1,0,0.1-0.1,0.1-0.1V30h0.1v0.3c0,0.1,0.1,0.1,0.1,0.1
				c0.1,0,0.1-0.1,0.1-0.1V30H-35.1z"/>
		</g>
		<g transform="matrix(1.25 0 0 -1.25 1167.4 727.74)">
			<path class="st3" d="M-38,34L-38,34L-38,34C-37.9,34-37.9,34-38,34C-37.9,34-37.9,34-38,34C-37.9,34-37.9,34-38,34
				C-37.9,34-37.9,34-38,34L-38,34z M-37.9,34C-37.9,34-37.9,34-37.9,34C-37.9,34-37.9,34-37.9,34C-37.9,34-37.9,34-37.9,34
				C-37.9,34-37.9,34-37.9,34L-37.9,34L-37.9,34L-37.9,34L-37.9,34L-37.9,34L-37.9,34L-37.9,34L-37.9,34z M-38,34
				C-37.9,34-37.9,34-38,34C-37.9,34-37.9,34-38,34C-37.9,34-37.9,34-38,34C-37.9,34-37.9,34-38,34C-37.9,34-37.9,34-38,34
				C-37.9,34-37.9,34-38,34C-37.9,34.1-37.9,34.1-38,34C-37.9,34.1-37.9,34.1-38,34C-38,34.1-38,34.1-38,34C-38,34.1-38,34.1-38,34
				C-38,34-38,34-38,34C-38,34-38,34-38,34C-38,34-38,34-38,34C-38,34-38,34-38,34C-38,34-38,34-38,34C-38,34-38,34-38,34 M-38,34.1
				C-37.9,34.1-37.9,34.1-38,34.1C-37.9,34.1-37.9,34.1-38,34.1C-37.9,34.1-37.9,34-38,34.1C-37.9,34-37.9,34-38,34.1
				C-37.9,34-37.9,34-38,34.1C-37.9,34-37.9,34-38,34.1c0-0.1,0-0.1,0-0.1c0,0,0,0,0,0c0,0,0,0,0,0C-38,34-38,34-38,34.1
				C-38,34-38,34-38,34.1C-38,34-38,34-38,34.1C-38,34-38,34-38,34.1C-38,34-38,34.1-38,34.1C-38,34.1-38,34.1-38,34.1
				C-38,34.1-38,34.1-38,34.1"/>
		</g>
	</g>
</g>
</svg>
