<?xml version="1.0" encoding="utf-8"?>
<!-- Generator: Adobe Illustrator 22.0.1, SVG Export Plug-In . SVG Version: 6.00 Build 0)  -->
<svg version="1.1"
	 id="Capa_1" xmlns:cc="http://creativecommons.org/ns#" xmlns:dc="http://purl.org/dc/elements/1.1/" xmlns:rdf="http://www.w3.org/1999/02/22-rdf-syntax-ns#"
	 xmlns="http://www.w3.org/2000/svg" xmlns:xlink="http://www.w3.org/1999/xlink" x="0px" y="0px" viewBox="0 0 25.8 20"
	 style="enable-background:new 0 0 25.8 20;" xml:space="preserve">
<style type="text/css">
	.st0{fill:#231F20;}
	.st1{fill:#FF5F00;}
	.st2{fill:#EB001B;}
	.st3{fill:#F79E1B;}
</style>
<g>
	<path class="st0" d="M4.9,19.9v-1.2c0-0.5-0.3-0.8-0.8-0.8c-0.3,0-0.5,0.1-0.7,0.3C3.3,18,3,17.9,2.8,17.9c-0.2,0-0.5,0.1-0.6,0.3
		V18H1.8v2h0.4v-1.1c0-0.3,0.2-0.5,0.5-0.5s0.4,0.2,0.4,0.5v1.1h0.4v-1.1c0-0.3,0.2-0.5,0.5-0.5c0.3,0,0.4,0.2,0.4,0.5v1.1L4.9,19.9
		L4.9,19.9z M11.3,18h-0.7v-0.6h-0.4V18H9.8v0.4h0.4v0.9c0,0.5,0.2,0.7,0.7,0.7c0.2,0,0.4-0.1,0.5-0.2l-0.1-0.4
		c-0.1,0.1-0.2,0.1-0.4,0.1c-0.2,0-0.3-0.1-0.3-0.3v-0.9h0.7L11.3,18z M14.9,17.9c-0.2,0-0.4,0.1-0.5,0.3V18H14v2h0.4v-1.1
		c0-0.3,0.1-0.5,0.4-0.5c0.1,0,0.2,0,0.3,0.1l0.1-0.4C15.1,17.9,15,17.9,14.9,17.9z M9.4,18.1c-0.2-0.1-0.5-0.2-0.8-0.2
		c-0.5,0-0.8,0.2-0.8,0.6c0,0.3,0.2,0.5,0.7,0.6l0.2,0c0.2,0,0.3,0.1,0.3,0.2c0,0.2-0.2,0.2-0.5,0.2c-0.2,0-0.5-0.1-0.7-0.2
		l-0.2,0.3C8,19.9,8.3,20,8.6,20c0.6,0,0.9-0.3,0.9-0.6c0-0.3-0.3-0.5-0.7-0.6l-0.2,0c-0.2,0-0.3-0.1-0.3-0.2c0-0.1,0.1-0.2,0.4-0.2
		c0.2,0,0.4,0.1,0.6,0.2L9.4,18.1z M20.9,17.9c-0.2,0-0.4,0.1-0.5,0.3V18h-0.4v2h0.4v-1.1c0-0.3,0.1-0.5,0.4-0.5
		c0.1,0,0.2,0,0.3,0.1l0.1-0.4C21.1,17.9,21,17.9,20.9,17.9z M15.4,18.9c0,0.6,0.4,1,1,1c0.3,0,0.5-0.1,0.7-0.2l-0.2-0.3
		c-0.1,0.1-0.3,0.2-0.5,0.2c-0.3,0-0.6-0.2-0.6-0.6c0-0.4,0.2-0.6,0.6-0.6c0.2,0,0.4,0.1,0.5,0.2l0.2-0.3c-0.2-0.2-0.5-0.2-0.7-0.2
		C15.8,17.9,15.4,18.3,15.4,18.9L15.4,18.9z M19.4,18.9v-1h-0.4v0.2c-0.1-0.2-0.4-0.3-0.6-0.3c-0.6,0-1,0.4-1,1c0,0.6,0.4,1,1,1
		c0.2,0,0.5-0.1,0.6-0.3v0.2h0.4V18.9z M17.8,18.9c0-0.3,0.2-0.6,0.6-0.6c0.3,0,0.6,0.3,0.6,0.6s-0.2,0.6-0.6,0.6
		C18,19.6,17.8,19.3,17.8,18.9z M12.6,17.9c-0.6,0-1,0.4-1,1c0,0.6,0.4,1,1,1c0.3,0,0.6-0.1,0.8-0.3l-0.2-0.3
		c-0.2,0.1-0.4,0.2-0.6,0.2c-0.3,0-0.5-0.1-0.6-0.5h1.5c0-0.1,0-0.1,0-0.2C13.5,18.3,13.2,17.9,12.6,17.9L12.6,17.9z M12.6,18.3
		c0.3,0,0.5,0.2,0.5,0.5h-1C12.1,18.5,12.3,18.3,12.6,18.3L12.6,18.3z M23.3,18.9v-1.8h-0.4v1c-0.1-0.2-0.4-0.3-0.6-0.3
		c-0.6,0-1,0.4-1,1c0,0.6,0.4,1,1,1c0.2,0,0.5-0.1,0.6-0.3v0.2h0.4V18.9z M23.8,19.7C23.8,19.7,23.9,19.7,23.8,19.7
		C23.9,19.8,23.9,19.8,23.8,19.7c0.1,0.1,0.1,0.1,0.1,0.1c0,0,0,0.1,0,0.1c0,0,0,0,0,0c0,0,0,0,0,0c0,0,0,0-0.1,0
		c-0.1,0-0.1,0-0.1-0.1c0,0,0-0.1,0-0.1C23.7,19.8,23.7,19.8,23.8,19.7C23.8,19.7,23.8,19.7,23.8,19.7L23.8,19.7z M23.8,20
		C23.8,20,23.9,20,23.8,20C23.9,19.9,23.9,19.9,23.8,20c0.1-0.1,0.1-0.1,0.1-0.2c0,0,0,0,0,0c0,0,0,0,0,0s0,0,0,0
		C23.7,19.8,23.7,19.8,23.8,20C23.7,19.9,23.7,19.9,23.8,20C23.8,19.9,23.8,19.9,23.8,20C23.8,20,23.8,20,23.8,20L23.8,20z
		 M23.8,19.8C23.9,19.8,23.9,19.8,23.8,19.8C23.9,19.8,23.9,19.8,23.8,19.8C23.9,19.9,23.9,19.9,23.8,19.8
		C23.9,19.9,23.9,19.9,23.8,19.8l0.1,0.1h0L23.8,19.8L23.8,19.8l0,0.1h0L23.8,19.8L23.8,19.8z M23.8,19.8L23.8,19.8L23.8,19.8
		L23.8,19.8L23.8,19.8L23.8,19.8L23.8,19.8L23.8,19.8z M21.7,18.9c0-0.3,0.2-0.6,0.6-0.6c0.3,0,0.6,0.3,0.6,0.6s-0.2,0.6-0.6,0.6
		S21.7,19.3,21.7,18.9z M7.3,18.9v-1H6.9v0.2c-0.1-0.2-0.4-0.3-0.6-0.3c-0.6,0-1,0.4-1,1c0,0.6,0.4,1,1,1c0.2,0,0.5-0.1,0.6-0.3v0.2
		h0.4V18.9z M5.7,18.9c0-0.3,0.2-0.6,0.6-0.6c0.3,0,0.6,0.3,0.6,0.6s-0.2,0.6-0.6,0.6C5.9,19.6,5.7,19.3,5.7,18.9L5.7,18.9z"/>
	<g>
		<rect x="9.4" y="1.7" class="st1" width="7" height="12.5"/>
		<g>
			<path id="_Path_" class="st2" d="M9.8,8c0-2.4,1.1-4.8,3-6.3C9.4-1,4.4-0.4,1.7,3.1S-0.4,11.5,3,14.2c2.9,2.3,7,2.3,9.8,0
				C11,12.7,9.8,10.4,9.8,8z"/>
			<path class="st3" d="M25.8,8c0,4.4-3.6,8-8,8c-1.8,0-3.5-0.6-4.9-1.7c3.5-2.7,4.1-7.7,1.3-11.2c-0.4-0.5-0.8-1-1.3-1.3
				C16.3-1,21.3-0.4,24.1,3C25.2,4.4,25.8,6.2,25.8,8z"/>
			<path class="st3" d="M25,12.9v-0.3h0.1v-0.1h-0.3v0.1h0.1L25,12.9L25,12.9z M25.5,12.9v-0.3h-0.1l-0.1,0.2l-0.1-0.2h-0.1v0.3h0.1
				v-0.2l0.1,0.2h0.1l0.1-0.2L25.5,12.9L25.5,12.9z"/>
		</g>
	</g>
</g>
</svg>
