<?xml version="1.0" encoding="utf-8"?>
<!-- Generator: Adobe Illustrator 22.0.1, SVG Export Plug-In . SVG Version: 6.00 Build 0)  -->
<svg version="1.1" id="Capa_1" xmlns="http://www.w3.org/2000/svg" xmlns:xlink="http://www.w3.org/1999/xlink" x="0px" y="0px"
	 viewBox="0 0 81.9 20" style="enable-background:new 0 0 81.9 20;" xml:space="preserve">
<style type="text/css">
	.st0{fill:#253B80;}
	.st1{fill:#179BD7;}
	.st2{fill:#222D65;}
</style>
<g>
	<path class="st0" d="M30.6,4.5h-4.5c-0.3,0-0.6,0.2-0.6,0.5l-1.8,11.6c0,0.2,0.1,0.4,0.3,0.4c0,0,0,0,0.1,0h2.2
		c0.3,0,0.6-0.2,0.6-0.5l0.5-3.1c0-0.3,0.3-0.5,0.6-0.5h1.4c3,0,4.7-1.4,5.2-4.3c0.2-1.3,0-2.2-0.6-2.9C33.3,4.9,32.1,4.5,30.6,4.5z
		 M31.1,8.7c-0.2,1.6-1.5,1.6-2.7,1.6h-0.7l0.5-3c0-0.2,0.2-0.3,0.4-0.3h0.3c0.8,0,1.6,0,2,0.5C31.2,7.7,31.2,8.1,31.1,8.7z
		 M44.2,8.7H42c-0.2,0-0.3,0.1-0.4,0.3l-0.1,0.6l-0.2-0.2c-0.5-0.7-1.5-0.9-2.6-0.9c-2.4,0-4.4,1.8-4.8,4.4
		c-0.2,1.3,0.1,2.5,0.8,3.3c0.7,0.8,1.6,1.1,2.7,1.1c1.9,0,3-1.2,3-1.2l-0.1,0.6c0,0.2,0.1,0.4,0.3,0.4c0,0,0,0,0.1,0h2
		c0.3,0,0.6-0.2,0.6-0.5l1.2-7.4C44.6,8.9,44.4,8.7,44.2,8.7C44.2,8.7,44.2,8.7,44.2,8.7z M41.1,12.9C40.9,14.1,40,15,38.7,15
		c-0.6,0-1.1-0.2-1.5-0.6c-0.3-0.4-0.4-0.9-0.3-1.5c0.2-1.2,1.2-2.1,2.4-2.1c0.6,0,1.1,0.2,1.4,0.6C41.1,11.7,41.2,12.3,41.1,12.9z
		 M55.7,8.7h-2.2c-0.2,0-0.4,0.1-0.5,0.3l-3,4.4l-1.3-4.3c-0.1-0.3-0.3-0.4-0.6-0.4H46c-0.2,0-0.4,0.2-0.4,0.4c0,0,0,0.1,0,0.1
		l2.4,7.1l-2.3,3.2c-0.1,0.2-0.1,0.4,0.1,0.5c0.1,0,0.1,0.1,0.2,0.1h2.2c0.2,0,0.4-0.1,0.5-0.3L56,9.3c0.1-0.2,0.1-0.4-0.1-0.5
		C55.9,8.7,55.8,8.7,55.7,8.7L55.7,8.7z"/>
	<path class="st1" d="M63,4.5h-4.5c-0.3,0-0.6,0.2-0.6,0.5L56,16.6c0,0.2,0.1,0.4,0.3,0.4c0,0,0,0,0.1,0h2.3c0.2,0,0.4-0.2,0.4-0.4
		l0.5-3.3c0-0.3,0.3-0.5,0.6-0.5h1.4c3,0,4.7-1.4,5.2-4.3c0.2-1.3,0-2.2-0.6-2.9C65.6,4.9,64.5,4.5,63,4.5z M63.5,8.7
		c-0.2,1.6-1.5,1.6-2.7,1.6h-0.7l0.5-3C60.6,7.1,60.8,7,61,7h0.3c0.8,0,1.6,0,2,0.5C63.5,7.7,63.6,8.1,63.5,8.7z M76.5,8.7h-2.2
		C74.1,8.7,74,8.8,74,9l-0.1,0.6l-0.2-0.2c-0.5-0.7-1.5-0.9-2.6-0.9c-2.4,0-4.4,1.8-4.8,4.4c-0.2,1.3,0.1,2.5,0.8,3.3
		c0.7,0.8,1.6,1.1,2.7,1.1c1.9,0,3-1.2,3-1.2l-0.1,0.6c0,0.2,0.1,0.4,0.3,0.4c0,0,0,0,0.1,0h2c0.3,0,0.6-0.2,0.6-0.5l1.2-7.4
		C76.9,8.9,76.8,8.7,76.5,8.7C76.5,8.7,76.5,8.7,76.5,8.7z M73.5,12.9C73.3,14.1,72.3,15,71,15c-0.6,0-1.1-0.2-1.5-0.6
		c-0.3-0.4-0.4-0.9-0.3-1.5c0.2-1.2,1.2-2.1,2.4-2.1c0.6,0,1.1,0.2,1.4,0.6C73.4,11.7,73.6,12.3,73.5,12.9z M79.1,4.8l-1.9,11.8
		c0,0.2,0.1,0.4,0.3,0.4c0,0,0,0,0.1,0h1.9c0.3,0,0.6-0.2,0.6-0.5l1.8-11.6c0-0.2-0.1-0.4-0.3-0.4c0,0,0,0-0.1,0h-2.1
		C79.2,4.5,79.1,4.6,79.1,4.8z"/>
	<path class="st0" d="M4.8,19.3l0.3-2.2l-0.8,0H0.7L3.3,0.9c0-0.1,0.1-0.2,0.2-0.2h6.2c2.1,0,3.5,0.4,4.2,1.3
		c0.3,0.4,0.6,0.8,0.7,1.3c0.1,0.5,0.1,1.1,0,1.8l0,0.1v0.4l0.3,0.2c0.3,0.1,0.5,0.3,0.7,0.5c0.3,0.3,0.5,0.8,0.6,1.3
		c0.1,0.5,0.1,1.2-0.1,1.9c-0.2,0.8-0.4,1.5-0.8,2.1c-0.3,0.5-0.7,1-1.2,1.3c-0.5,0.3-1,0.6-1.6,0.7c-0.6,0.2-1.3,0.2-2,0.2H10
		c-0.3,0-0.7,0.1-0.9,0.3c-0.3,0.2-0.4,0.5-0.5,0.9l0,0.2l-0.6,3.9l0,0.1c0,0,0,0.1,0,0.1c0,0,0,0-0.1,0C7.8,19.3,4.8,19.3,4.8,19.3
		z"/>
	<path class="st1" d="M15.3,5.1c0,0.1,0,0.2-0.1,0.4c-0.8,4.2-3.6,5.7-7.2,5.7H6.2c-0.4,0-0.8,0.3-0.9,0.8l-0.9,5.9l-0.3,1.7
		c0,0.3,0.1,0.5,0.4,0.5c0,0,0,0,0.1,0h3.2c0.4,0,0.7-0.3,0.8-0.7l0-0.2l0.6-3.9l0-0.2c0.1-0.4,0.4-0.7,0.8-0.7h0.5
		c3.1,0,5.6-1.3,6.3-5C17.1,8,17,6.7,16.2,5.8C15.9,5.5,15.6,5.3,15.3,5.1z"/>
	<path class="st2" d="M14.4,4.7c-0.3-0.1-0.5-0.1-0.8-0.2c-0.5-0.1-1.1-0.1-1.6-0.1H7.1c-0.4,0-0.7,0.3-0.8,0.7l-1,6.6l0,0.2
		c0.1-0.4,0.4-0.8,0.9-0.8H8c3.6,0,6.4-1.5,7.2-5.7c0-0.1,0-0.2,0.1-0.4c-0.2-0.1-0.4-0.2-0.7-0.3C14.5,4.8,14.5,4.8,14.4,4.7z"/>
	<path class="st0" d="M6.4,5.1c0.1-0.4,0.4-0.7,0.8-0.7H12c0.6,0,1.1,0,1.6,0.1c0.3,0.1,0.7,0.1,1,0.2c0.2,0.1,0.5,0.2,0.7,0.3
		c0.2-1.6,0-2.6-0.8-3.6C13.5,0.5,11.8,0,9.7,0H3.5C3,0,2.7,0.3,2.6,0.8L0,17.2c0,0.3,0.2,0.6,0.4,0.6c0,0,0.1,0,0.1,0h3.8l1-6.1
		C5.3,11.7,6.4,5.1,6.4,5.1z"/>
</g>
</svg>
