<?xml version="1.0" encoding="utf-8"?>
<!-- Generator: Adobe Illustrator 22.0.1, SVG Export Plug-In . SVG Version: 6.00 Build 0)  -->
<svg version="1.1" id="Capa_1" xmlns="http://www.w3.org/2000/svg" xmlns:xlink="http://www.w3.org/1999/xlink" x="0px" y="0px"
	 viewBox="0 0 200 40" style="enable-background:new 0 0 200 40;" xml:space="preserve">
<style type="text/css">
	.st0{fill:#0063BD;}
</style>
<g>
	<path class="st0" d="M7.8,29.7l-2.6-7.8h0H3v7.8H0.4v-19h4.7c2.9,0,4.6,1.2,4.6,4v3.2c0,1.9-0.8,3.1-2.2,3.6l2.9,8.2H7.8z M3,19.7
		h2.1c1.4,0,2.2-0.6,2.2-2.2v-2.2c0-1.7-0.8-2.3-2.2-2.3H3V19.7z"/>
	<polygon class="st0" points="18.1,29.7 18.1,10.7 26.1,10.7 26.1,12.9 20.6,12.9 20.6,18.9 25.2,18.9 25.2,21.2 20.6,21.2 
		20.6,27.4 26.2,27.4 26.2,29.7 	"/>
	<polygon class="st0" points="34,29.7 34,10.7 36.6,10.7 41.4,23.8 41.4,10.7 43.7,10.7 43.7,29.7 41.3,29.7 36.4,16.2 36.4,29.7 	
		"/>
	<polygon class="st0" points="60.2,12.9 56.9,12.9 56.9,29.7 54.3,29.7 54.3,12.9 51,12.9 51,10.7 60.2,10.7 	"/>
	<path class="st0" d="M72.4,25.2h-4.1l-0.8,4.5h-2.5l3.8-19H72l3.8,19h-2.6L72.4,25.2z M72,23.1l-1.6-9.2l-1.7,9.2H72z"/>
	<polygon class="st0" points="90.8,29.7 83.2,29.7 83.2,10.7 85.7,10.7 85.7,27.4 90.8,27.4 	"/>
	<path class="st0" d="M116.8,25.9c0,2.8-1.7,4-4.6,4h-0.1c-2.9,0-4.6-1.1-4.6-4V14.5c0-2.7,1.7-4,4.6-4h0.1c2.9,0,4.6,1.3,4.6,4v3.4
		h-2.5V15c0-1.7-0.7-2.3-2.1-2.3c-1.4,0-2.1,0.6-2.1,2.3v10.4c0,1.7,0.7,2.2,2.1,2.2c1.4,0,2.1-0.6,2.1-2.2V22h2.5V25.9z"/>
	<polygon class="st0" points="125.1,29.7 125.1,10.7 133,10.7 133,12.9 127.6,12.9 127.6,18.9 132.2,18.9 132.2,21.2 127.6,21.2 
		127.6,27.4 133.1,27.4 133.1,29.7 	"/>
	<polygon class="st0" points="141,29.7 141,10.7 143.6,10.7 148.3,23.8 148.3,10.7 150.7,10.7 150.7,29.7 148.3,29.7 143.4,16.2 
		143.4,29.7 	"/>
	<polygon class="st0" points="167.1,12.9 163.8,12.9 163.8,29.7 161.3,29.7 161.3,12.9 158,12.9 158,10.7 167.1,10.7 	"/>
	<polygon class="st0" points="174.4,29.7 174.4,10.7 182.4,10.7 182.4,12.9 177,12.9 177,18.9 181.6,18.9 181.6,21.2 177,21.2 
		177,27.4 182.5,27.4 182.5,29.7 	"/>
	<path class="st0" d="M197.8,29.7l-2.6-7.8h0h-2.2v7.8h-2.5v-19h4.7c2.9,0,4.6,1.2,4.6,4v3.2c0,1.9-0.8,3.1-2.2,3.6l2.9,8.2H197.8z
		 M192.9,19.7h2.1c1.4,0,2.2-0.6,2.2-2.2v-2.2c0-1.7-0.8-2.3-2.2-2.3h-2.1V19.7z"/>
</g>
</svg>
