<?xml version="1.0" encoding="utf-8"?>
<!-- Generator: Adobe Illustrator 22.0.1, SVG Export Plug-In . SVG Version: 6.00 Build 0)  -->
<svg version="1.1" id="Layer_1" xmlns="http://www.w3.org/2000/svg" xmlns:xlink="http://www.w3.org/1999/xlink" x="0px" y="0px"
	 viewBox="0 0 51.8 20" style="enable-background:new 0 0 51.8 20;" xml:space="preserve">
<style type="text/css">
	.st0{fill:#F3F3F3;}
	.st1{fill:#50959F;}
	.st2{fill:#7B7D7C;}
	.st3{fill:#161616;}
	.st4{fill:#E4E4E8;}
	.st5{fill:#09AF30;}
	.st6{opacity:0.1;clip-path:url(#SVGID_2_);fill:#124B00;enable-background:new    ;}
	.st7{fill:#FFFFFF;}
	.st8{font-family:'DINPro-Bold';}
	.st9{font-size:8.7111px;}
	.st10{font-family:'DINPro';}
	.st11{font-size:7.083px;}
</style>
<g>
	<g>
		<g>
			<path class="st0" d="M15.8,14.1l-6.2,5.4c-0.8,0.7-2,0.7-2.8,0l-6.2-5.4c-0.5-0.4-0.7-1-0.7-1.6V3C0,1.9,0.8,1,1.8,0.9L8,0
				c0.2,0,0.4,0,0.6,0l6.2,0.9c1,0.1,1.8,1,1.8,2.1v9.5C16.5,13.1,16.3,13.7,15.8,14.1z"/>
			<path class="st1" d="M13.6,8.8c0,2.9-2.4,5.3-5.3,5.3s-5.3-2.4-5.3-5.3s2.4-5.3,5.3-5.3S13.6,5.8,13.6,8.8z"/>
			<path class="st2" d="M14.4,13.4l-5,4.5c-0.6,0.6-1.6,0.6-2.2,0l-5-4.5c-0.4-0.3-0.6-0.8-0.6-1.3V4c0-0.9,0.6-1.6,1.5-1.7l5-0.7
				c0.2,0,0.3,0,0.5,0l5,0.7c0.8,0.1,1.5,0.9,1.5,1.7v8C14.9,12.6,14.7,13,14.4,13.4z"/>
			<path class="st3" d="M13.9,13.1l-4.6,4.2c-0.6,0.5-1.5,0.5-2.1,0l-4.6-4.2c-0.3-0.3-0.5-0.8-0.5-1.2V4.4c0-0.8,0.6-1.5,1.4-1.6
				L8,2.1c0.1,0,0.3,0,0.4,0l4.6,0.7c0.8,0.1,1.4,0.8,1.4,1.6v7.4C14.4,12.3,14.3,12.8,13.9,13.1z"/>
		</g>
		<g>
			<g>
				<g>
					<path class="st4" d="M11.7,7.9h-1.2V7c0-1.3-1-2.3-2.3-2.3S6,5.7,6,7v0.9H4.8V7c0-1.9,1.6-3.5,3.5-3.5c1.9,0,3.5,1.6,3.5,3.5
						V7.9z"/>
					<path class="st5" d="M8.6,14.6H7.9c-2,0-3.6-1.6-3.6-3.6V8.2c0-0.2,0.2-0.4,0.4-0.4h7.1c0.2,0,0.4,0.2,0.4,0.4V11
						C12.2,13,10.6,14.6,8.6,14.6z"/>
					<g>
						<g>
							<defs>
								<path id="SVGID_1_" d="M11.7,7.9V7.1c0-2-1.5-3.5-3.2-3.6C6.5,3.4,4.8,5,4.8,7v0.9H4.7C4.5,7.9,4.3,8,4.3,8.2v2.5
									c0,2.2,1.8,3.9,3.9,3.9l0,0c2.2,0,3.9-1.8,3.9-3.9V8.2c0-0.2-0.1-0.3-0.3-0.3H11.7z M6,7c0-1.3,1-2.3,2.3-2.3s2.3,1,2.3,2.3
									v0.9H6V7z"/>
							</defs>
							<clipPath id="SVGID_2_">
								<use xlink:href="#SVGID_1_"  style="overflow:visible;"/>
							</clipPath>
							<rect x="8.3" y="7.9" class="st6" width="3.9" height="6.7"/>
						</g>
					</g>
				</g>
			</g>
			<g>
				<polygon class="st7" points="7.9,12.6 6.1,10.8 6.9,10.1 7.9,11.1 10,9.1 10.8,9.8 				"/>
			</g>
		</g>
	</g>
	<text transform="matrix(1.0414 0 0 1 17.8431 9.0399)" class="st8 st9">SECURE</text>
	<text transform="matrix(1.0969 0 0 1 17.5858 15.5047)" class="st10 st11">PAYMENT</text>
</g>
</svg>
