<?xml version="1.0" encoding="utf-8"?>
<!-- Generator: Adobe Illustrator 22.0.1, SVG Export Plug-In . SVG Version: 6.00 Build 0)  -->
<svg version="1.1" id="Capa_1" xmlns="http://www.w3.org/2000/svg" xmlns:xlink="http://www.w3.org/1999/xlink" x="0px" y="0px"
	 viewBox="0 0 147.5 40" style="enable-background:new 0 0 147.5 40;" xml:space="preserve">
<style type="text/css">
	.st0{fill:#6F6F6E;}
</style>
<g>
	<path class="st0" d="M43.3,12.4c1,0.5,2.4-0.2,3.1-1.5c0.7-1.4,0.4-2.9-0.6-3.4S43.4,7.7,42.7,9C42,10.4,42.3,11.9,43.3,12.4"/>
	<path class="st0" d="M127.3,19.6c-1,2.6-2.5,4.5-3.3,4.2c-0.8-0.3-0.6-2.7,0.4-5.3s2.5-4.5,3.3-4.2C128.5,14.6,128.3,17,127.3,19.6
		 M91.2,19.6c-1,2.6-2.5,4.5-3.3,4.2c-0.8-0.3-0.6-2.7,0.4-5.3s2.5-4.5,3.3-4.2C92.4,14.6,92.3,17,91.2,19.6 M75.9,19.6
		c-1,2.6-2.5,4.5-3.3,4.2c-0.8-0.3-0.6-2.7,0.4-5.3s2.5-4.5,3.3-4.2C77.1,14.6,77,17,75.9,19.6 M61.5,19.6c-1,2.6-2.5,4.5-3.3,4.2
		c-0.8-0.3-0.6-2.7,0.4-5.3s2.5-4.5,3.3-4.2S62.5,17,61.5,19.6 M146.3,9.9c-1,0.1-1.8,0.4-3.2,0.3c0.9-1.8,1.5-3,1.5-3
		c0.5-0.9,0-2.3-0.9-2.6c-1-0.4-2.4-0.1-3.1,1.3c0,0-0.8,1.7-1.9,4c-0.7,0-1.2-0.2-2-0.3s-1.6,0.5-1.7,1.3c0,0.9,0.6,1.9,1.8,2
		c0,0,0.2,0,0.5,0.1c-0.8,1.9-1.6,4-2.3,5.9l0,0c-0.9,2-4.7,5.7-4.7,4.2c0.1-2.5,3.2-9.5,3.2-9.5c0.4-0.7,0.2-1.8-0.4-2.1
		c-0.6-0.4-1.6-0.3-2.2,0.8c0,0,0,0,0,0.1c-0.3-0.5-0.7-0.9-1.2-1.2c-2.6-1.5-6.5,0.9-8.8,5.2c-0.7,1.3-1.1,2.6-1.4,3.9
		c-1,1.2-2.7,3.1-3.3,3.2c1-2.5,2.4-6.3,2.7-9.6c0.6-5.2-5.8-2-7.6,0c0.5-4.9-5.1-2.3-7.2-0.3c0.3-5-6.5-1.5-7.8,0.6l-0.5,0.6
		c0-0.4-0.1-0.8-0.2-1.1c-0.3-1.1-0.9-2-1.8-2.5c-2.6-1.5-6.5,0.9-8.8,5.2c-0.6,1.2-1.1,2.5-1.3,3.7c-1,1.3-3.8,4.5-3.6,2.9
		c0.5-4.6,6.5-16.7,6.5-16.7c0.5-0.9,0-2.3-0.9-2.6c-1-0.4-2.4-0.1-3.1,1.3c0,0-1.6,3.4-3.4,7.4c-0.3-0.5-0.7-0.9-1.2-1.2
		c-2.6-1.5-6.5,0.9-8.8,5.2c-0.4,0.8-0.8,1.7-1,2.5l0,0c0,0.1,0,0.1-0.1,0.2c0,0.1-0.1,0.3-0.1,0.4c-0.9,2.7-3.6,4.8-3.6,3.6
		c0.1-2.5,3.2-9.5,3.2-9.5c0.4-0.7,0.2-1.8-0.4-2.1c-0.6-0.4-1.6-0.3-2.2,0.8c0,0,0,0,0,0.1c-0.3-0.5-0.7-0.9-1.2-1.2
		c-2.6-1.5-6.5,0.9-8.8,5.2c-0.1,0.3-0.3,0.5-0.4,0.8l0,0l0,0v0.1C54.5,18,53.5,20,53.5,20c-0.4,0.9-3.9,4.7-3.7,3
		c0.5-4.6,6.7-16.9,6.7-16.9c0.5-0.9,0-2.2-0.9-2.6c-1-0.4-2.4-0.1-3.1,1.3c0,0-3.8,7.9-6.1,14.1v-0.1c-0.9,2.1-5,6.2-4.8,4.5
		c0.5-4.4,1.5-5.5,2.4-7.2c0.5-0.9,0.1-2.1-0.8-2.5c-1-0.4-2.4-0.1-3.1,1.3c0,0-2.6,4.4-3.1,9.7c-0.6,5.5,6.5,1.6,7.8-0.3
		c0,0.1,0,0.2,0,0.3c-0.2,2.1,0.7,2.8,1.9,2.8c2,0,4.7-1.7,5.9-3.1c0.2-0.3,0.7-0.8,0.9-1.4c0.1,1.9,0.8,3.4,2.1,4.1
		c1.2,0.7,2.7,0.5,4.2-0.3c1.4,2.3,7-0.9,8-2.9c0.3,1.4,0.9,2.6,2,3.2c1.3,0.7,2.9,0.5,4.5-0.4c0.3-0.2,0.6-0.4,0.9-0.7
		c0.7,3.4,6.6,0.1,7.8-1.6l0.6-0.7c0.2,1.6,0.9,2.8,2,3.4c1.3,0.7,2.9,0.5,4.5-0.4s3.2-2.6,4.3-4.8c0.3-0.6,0.6-1.3,0.8-1.9
		c0.1-0.4,0.2-0.7,0.3-1c0-0.1,0.1-0.2,0.1-0.4c1-1.2,3.9-4.6,3.7-3c-0.5,4.6-3.4,9.2-3.4,9.2c-0.5,0.9,0,2.3,0.9,2.6
		c1,0.4,2.4,0.1,3.1-1.3c0,0,2.2-4,3.5-8.2c1.2-1.5,3.4-3.8,3.2-2.4c-0.5,4.6-2.8,9.2-2.8,9.2c-0.5,0.9,0,2.3,0.9,2.6
		c1,0.4,2.4,0.1,3.1-1.3c0,0,1.8-3.7,2.9-7.8c1.1-1.3,3.7-4.4,3.5-2.8c-0.5,4.6-2.8,9.2-2.8,9.2c-0.4,0.7-0.2,1.6,0.3,2.2l0.1,0.1
		c0.1,0.1,0.2,0.1,0.2,0.2c0,0,0.1,0,0.1,0.1c0,0,0.1,0,0.1,0.1h0.1c0.1,0,0.1,0,0.2,0.1c0.1,0,0.2,0,0.2,0c0.1,0,0.2,0,0.2,0l0,0
		c2.1,0.1,5.3-2,6.5-3.7c0.3,1.5,0.9,2.6,2,3.2c1.2,0.7,2.7,0.5,4.2-0.3c1.3,2.3,6.7-0.7,7.9-2.8c0,0.2-0.1,0.4-0.1,0.6
		c-0.2,2,0.6,2.8,1.8,2.8c0,0,3.2,1,8-4.1c0.9-1,1-1.9,0.4-2.3c-1-0.7-1.8,0.6-2.3,1c-1,1.1-3.6,2.9-3.5,1.2
		c0.3-2.3,1.9-6.3,3.5-9.8c2.6,0.1,4.5-0.2,4.5-0.2c1.2-0.1,1.9-1.1,1.8-2C147.9,10.4,147.1,9.8,146.3,9.9"/>
	<g>
		<path class="st0" d="M35.9,6.6c-2.1,0.6-1.4,2.3-1.2,4c0.4,2.7-1.3,6.6-2.4,8.6c-1.2,2-3.6,4.6-4.7,5.2c0.7-5.1,3.3-10.8,4.1-16
			c0.6-3.5-2.2-5.8-4-6.8c-7.4-3.5-20-1-25.2,3.3c-1.2,1.1-3,3.3-2.6,5.4c0.5,2.8,8,4.1,7,1.2l0,0c-0.9-0.2-1.5-0.5-1.6-1
			C5,9,9.4,6.7,15.2,5.3c4.9-1.2,9.3-1.3,10.7-0.5c2.7,1.4-0.4,6.8-1.2,9.1c-1.1,2.9-2.1,5.8-2.2,8.7c-0.1,4.4,3.8,5.9,7.2,4
			c8.8-5.1,9.1-16.4,9.1-16.4C38.9,8.8,38.9,5.8,35.9,6.6"/>
		<g>
			<g>
				<path class="st0" d="M31.3,35c-0.3-0.2-0.6-0.4-0.9-0.6c-0.3-0.1-0.7-0.3-1-0.3C29.2,34,29,34,28.7,33.9
					c-0.2-0.1-0.4-0.2-0.6-0.3c-0.2-0.1-0.3-0.3-0.5-0.5c-0.1-0.2-0.2-0.5-0.2-0.7c0-0.3,0.1-0.5,0.2-0.7c0.1-0.2,0.2-0.4,0.4-0.5
					s0.4-0.2,0.6-0.3c0.6-0.2,1.2-0.1,1.7,0.2c0.4,0.2,0.6,0.5,0.8,0.8V32l0.7-0.4v-0.1c-0.1-0.3-0.3-0.5-0.5-0.7s-0.4-0.4-0.6-0.5
					c-0.2-0.1-0.5-0.2-0.7-0.3c-0.6-0.2-1.2-0.1-1.8,0c-0.3,0.1-0.6,0.3-0.8,0.5s-0.5,0.5-0.6,0.8c-0.2,0.3-0.2,0.7-0.3,1.1
					c0,0.4,0.1,0.8,0.2,1.1c0.2,0.3,0.4,0.6,0.6,0.8c0.2,0.2,0.5,0.4,0.8,0.5s0.6,0.2,0.9,0.3c0.2,0.1,0.5,0.1,0.7,0.2
					c0.3,0.1,0.5,0.2,0.7,0.4s0.4,0.4,0.5,0.6c0.1,0.2,0.2,0.5,0.1,0.9c0,0.5-0.2,0.9-0.6,1.2c-0.4,0.3-0.8,0.4-1.4,0.4l0,0
					c-0.5,0-0.9-0.1-1.2-0.4c-0.4-0.2-0.7-0.6-0.8-1v-0.1l-0.4,0.2c-0.1,0.1-0.2,0.1-0.3,0.1h-0.1v0.1c0.1,0.3,0.3,0.6,0.5,0.8
					s0.4,0.4,0.7,0.6c0.3,0.2,0.5,0.3,0.8,0.4c0.3,0.1,0.6,0.1,0.8,0.1c0.3,0,0.7-0.1,1-0.2c0.3-0.1,0.6-0.3,0.9-0.5
					c0.3-0.2,0.5-0.5,0.7-0.8s0.3-0.7,0.3-1c0-0.5,0-0.9-0.2-1.2C31.7,35.5,31.5,35.2,31.3,35"/>
				<path class="st0" d="M29.2,40c-0.3,0-0.6,0-1-0.1c-0.3-0.1-0.6-0.2-0.9-0.4c-0.3-0.2-0.6-0.4-0.8-0.7s-0.4-0.6-0.6-0.9
					c-0.1-0.2,0-0.6,0.2-0.7c0.2-0.1,0.3-0.1,0.3-0.2l0.3-0.2c0.1-0.1,0.3-0.1,0.4,0c0.1,0,0.2,0.1,0.3,0.3c0.2,0.4,0.4,0.7,0.7,0.9
					s0.6,0.3,1,0.3c0.5,0,0.8-0.1,1.1-0.3s0.4-0.5,0.4-0.8c0-0.2,0-0.4-0.1-0.6c-0.1-0.2-0.2-0.3-0.4-0.4c-0.2-0.1-0.4-0.2-0.6-0.3
					c-0.2-0.1-0.5-0.2-0.7-0.2c-0.3-0.1-0.6-0.2-0.9-0.3c-0.4-0.1-0.7-0.3-1-0.6c-0.3-0.2-0.6-0.5-0.7-0.9c-0.2-0.4-0.3-0.8-0.3-1.4
					c0-0.5,0.1-0.9,0.3-1.3s0.4-0.7,0.7-0.9c0.3-0.2,0.6-0.4,1-0.5c0.7-0.2,1.4-0.2,2,0c0.3,0.1,0.6,0.2,0.9,0.4
					c0.3,0.2,0.5,0.4,0.7,0.6s0.4,0.5,0.5,0.9c0.1,0.2,0,0.6-0.2,0.7l-0.7,0.4c-0.2,0.1-0.5,0-0.7-0.2c-0.2-0.4-0.4-0.6-0.7-0.7
					c-0.4-0.2-0.9-0.3-1.4-0.2c-0.1,0-0.3,0.1-0.4,0.2c-0.1,0.1-0.2,0.2-0.3,0.4c0.4-0.3,0.3-0.1,0.3,0.1s0,0.4,0.1,0.5
					s0.2,0.3,0.3,0.4c0.2,0.1,0.3,0.2,0.5,0.3s0.4,0.1,0.6,0.2c0.3,0.1,0.7,0.2,1.1,0.4c0.4,0.2,0.7,0.4,1,0.7l0,0
					c0.3,0.3,0.6,0.6,0.8,1s0.3,0.9,0.2,1.5c0,0.5-0.2,0.9-0.4,1.3c-0.2,0.4-0.5,0.7-0.8,0.9s-0.7,0.4-1.1,0.5
					C30,39.9,29.6,40,29.2,40z"/>
			</g>
			<g>
				<rect x="39.3" y="30" class="st0" width="0.9" height="9.4"/>
				<path class="st0" d="M40.1,39.9h-0.9c-0.3,0-0.5-0.2-0.5-0.5V30c0-0.3,0.2-0.5,0.5-0.5h0.9c0.3,0,0.5,0.2,0.5,0.5v9.4
					C40.6,39.7,40.4,39.9,40.1,39.9z"/>
			</g>
			<g>
				<path class="st0" d="M51.7,35.6h4.1c-0.1,0.4-0.2,0.8-0.4,1.2c-0.2,0.4-0.5,0.7-0.8,1s-0.7,0.5-1.1,0.7s-0.8,0.2-1.2,0.2
					c-0.6,0-1.1-0.1-1.6-0.4c-0.5-0.2-0.9-0.5-1.2-0.9c-0.3-0.4-0.6-0.8-0.7-1.3c-0.2-0.5-0.3-0.9-0.3-1.4s0.1-0.9,0.3-1.4
					c0.2-0.5,0.4-0.9,0.7-1.3c0.3-0.4,0.7-0.7,1.2-0.9c0.5-0.2,1-0.4,1.6-0.4c0.5,0,1.1,0.1,1.5,0.3c0.5,0.2,0.9,0.5,1.3,0.9
					l0.1,0.1l0.7-0.5l-0.1-0.1c-0.4-0.5-0.9-0.9-1.5-1.1c-0.6-0.3-1.2-0.4-1.9-0.4c-0.7,0-1.4,0.1-2,0.4s-1.1,0.7-1.5,1.1
					c-0.4,0.5-0.7,1-0.9,1.6c-0.2,0.6-0.3,1.2-0.3,1.8s0.1,1.2,0.3,1.7c0.2,0.6,0.5,1.1,0.9,1.5c0.4,0.5,0.9,0.8,1.5,1.1
					s1.2,0.4,2,0.4c0.7,0,1.3-0.1,1.9-0.4c0.6-0.2,1-0.6,1.4-1s0.7-0.9,0.9-1.5c0.2-0.6,0.3-1.2,0.4-1.8v-0.1h-5.1v0.9H51.7z"/>
				<path class="st0" d="M52.3,40c-0.8,0-1.6-0.2-2.2-0.5s-1.2-0.7-1.6-1.2s-0.8-1.1-1-1.7c-0.2-0.6-0.3-1.3-0.3-1.9
					s0.1-1.3,0.3-1.9c0.2-0.6,0.5-1.2,1-1.7c0.4-0.5,1-0.9,1.6-1.3c1.2-0.6,3-0.7,4.3,0c0.7,0.3,1.2,0.7,1.7,1.3
					c0.1,0.1,0.2,0.3,0.2,0.4s0,0.3-0.1,0.4l-0.7,0.5c-0.2,0.2-0.5,0.1-0.7,0c-0.4-0.4-0.7-0.7-1.2-0.9c-0.9-0.4-2-0.4-2.7,0
					c-0.4,0.2-0.7,0.5-1,0.8c-0.3,0.3-0.5,0.7-0.6,1.1c-0.1,0.4-0.2,0.8-0.2,1.2s0.1,0.8,0.2,1.2s0.4,0.8,0.6,1.1
					c0.3,0.3,0.6,0.6,1,0.8c0.6,0.3,1.6,0.4,2.4,0.1c0.4-0.1,0.7-0.3,1-0.6c0.3-0.2,0.5-0.5,0.7-0.9c0.1-0.1,0.1-0.3,0.2-0.4h-3.5
					c-0.3,0-0.5-0.2-0.5-0.5v-0.9c0-0.3,0.2-0.5,0.5-0.5h5.2c0.1,0,0.3,0.1,0.4,0.2c0.1,0.1,0.1,0.2,0.1,0.4c0,0.8-0.2,1.4-0.4,2.1
					c-0.2,0.6-0.6,1.2-1,1.7s-1,0.8-1.6,1.1C53.7,39.9,53,40,52.3,40z M56.2,35.2C56.2,35.2,56.2,35.3,56.2,35.2
					c0.1,0.1,0.1,0.1,0.1,0.2C56.3,35.3,56.3,35.3,56.2,35.2L56.2,35.2z"/>
			</g>
			<g>
				<polygon class="st0" points="70.3,38.3 65.4,30 64.3,30 64.3,39.4 65.2,39.4 65.2,31.5 69.9,39.3 69.9,39.4 71.2,39.4 71.2,30 
					70.3,30 				"/>
				<path class="st0" d="M71.2,39.9h-1.3c-0.2,0-0.3-0.1-0.4-0.2l-3.8-6.4v6.1c0,0.3-0.2,0.5-0.5,0.5h-0.9c-0.3,0-0.5-0.2-0.5-0.5
					V30c0-0.3,0.2-0.5,0.5-0.5h1c0.2,0,0.3,0.1,0.4,0.2l4,6.8V30c0-0.3,0.2-0.5,0.5-0.5h0.9c0.3,0,0.5,0.2,0.5,0.5v9.4
					C71.7,39.7,71.4,39.9,71.2,39.9z M70.2,38.9h0.5v-0.3c-0.1,0.1-0.2,0.1-0.3,0.2c-0.1,0-0.2,0-0.3,0L70.2,38.9z M64.8,30.5v0.7
					c0.1-0.1,0.2-0.1,0.3-0.2c0.1,0,0.2,0,0.3,0l-0.3-0.5H64.8z"/>
			</g>
			<g>
				<path class="st0" d="M84.3,35.5h-3.2l1.6-4.8L84.3,35.5z M84.9,34.6c-0.5-1.6-1.1-3.1-1.7-4.7v-0.1H82l-3.3,9.5h0.9l1.1-3.1h3.8
					l1.1,3v0.1h0.9v-0.1C86,37.8,85.5,36.2,84.9,34.6"/>
				<path class="st0" d="M86.6,39.9h-0.9c-0.2,0-0.4-0.1-0.5-0.3l-1-2.7h-3.1l-1,2.7c-0.1,0.2-0.3,0.3-0.5,0.3h-0.9
					c-0.2,0-0.3-0.1-0.4-0.2c-0.1-0.1-0.1-0.3-0.1-0.4l3.3-9.5c0.1-0.2,0.3-0.3,0.5-0.3h1.2c0.2,0,0.4,0.1,0.5,0.3
					c0.6,1.6,1.1,3.2,1.7,4.7l0,0c0.6,1.6,1.1,3.1,1.7,4.7v0.1c0.1,0.2,0,0.3-0.1,0.5C86.9,39.8,86.8,39.9,86.6,39.9z M84.7,35.8
					c0.1,0,0.1,0,0.2,0.1c0-0.1-0.1-0.2-0.1-0.2C84.7,35.7,84.7,35.7,84.7,35.8L84.7,35.8z M80.6,35.6l-0.1,0.3
					c0.1,0,0.1-0.1,0.2-0.1c0,0,0,0,0-0.1C80.6,35.7,80.6,35.7,80.6,35.6z M81.7,35h1.9l-0.9-2.7L81.7,35z"/>
			</g>
			<g>
				<polygon class="st0" points="92.6,30.9 94.9,30.9 94.9,39.4 95.8,39.4 95.8,30.9 98.1,30.9 98.1,30 92.6,30 				"/>
				<path class="st0" d="M95.8,39.9h-0.9c-0.3,0-0.5-0.2-0.5-0.5v-8h-1.8c-0.3,0-0.5-0.2-0.5-0.5V30c0-0.3,0.2-0.5,0.5-0.5h5.5
					c0.3,0,0.5,0.2,0.5,0.5v0.9c0,0.3-0.2,0.5-0.5,0.5h-1.8v8C96.2,39.7,96,39.9,95.8,39.9z M95.2,30.5l0.1,0.1
					c0-0.1,0.1-0.1,0.1-0.1H95.2z"/>
			</g>
			<g>
				<path class="st0" d="M110.7,36.7c0,0.3-0.1,0.6-0.2,0.8c-0.1,0.2-0.3,0.4-0.5,0.6c-0.2,0.2-0.4,0.3-0.7,0.4
					c-0.5,0.2-1.1,0.2-1.6,0c-0.3-0.1-0.5-0.2-0.7-0.4s-0.4-0.4-0.5-0.6c-0.1-0.2-0.2-0.5-0.2-0.8V30h-0.9v6.7
					c0,0.5,0.1,0.9,0.3,1.2s0.4,0.6,0.7,0.9c0.3,0.2,0.6,0.4,1,0.5s0.7,0.2,1.1,0.2c0.4,0,0.7-0.1,1.1-0.2c0.4-0.1,0.7-0.3,1-0.5
					s0.5-0.5,0.7-0.9c0.2-0.3,0.3-0.8,0.3-1.2V30h-0.9L110.7,36.7L110.7,36.7z"/>
				<path class="st0" d="M108.5,40c-0.4,0-0.9-0.1-1.3-0.2c-0.4-0.1-0.8-0.3-1.1-0.6s-0.6-0.6-0.8-1s-0.3-0.9-0.3-1.4V30
					c0-0.3,0.2-0.5,0.5-0.5h0.9c0.3,0,0.5,0.2,0.5,0.5v6.7c0,0.2,0,0.4,0.1,0.6c0.1,0.2,0.2,0.3,0.4,0.4c0.2,0.1,0.3,0.2,0.5,0.3
					c0.4,0.1,0.8,0.1,1.3,0c0.2-0.1,0.4-0.2,0.5-0.3s0.3-0.3,0.4-0.5c0.1-0.2,0.1-0.4,0.1-0.6V30c0-0.3,0.2-0.5,0.5-0.5h0.9
					c0.3,0,0.5,0.2,0.5,0.5v6.7c0,0.5-0.1,1-0.3,1.5c-0.2,0.4-0.5,0.8-0.8,1c-0.3,0.3-0.7,0.5-1.1,0.6C109.4,39.9,109,40,108.5,40z"
					/>
			</g>
			<g>
				<path class="st0" d="M123,34.7h-2v-3.8h2c0.3,0,0.6,0,0.9,0.1c0.3,0.1,0.5,0.2,0.7,0.4c0.2,0.2,0.3,0.4,0.5,0.6
					c0.1,0.2,0.2,0.5,0.2,0.9c0,0.6-0.2,1.1-0.6,1.4C124.2,34.5,123.7,34.7,123,34.7 M124.3,35.3c0.4-0.1,0.7-0.3,1-0.5
					s0.5-0.5,0.6-0.8s0.2-0.7,0.2-1.2c0-0.4-0.1-0.9-0.3-1.2c-0.2-0.3-0.4-0.6-0.6-0.9c-0.3-0.2-0.6-0.4-1-0.5S123.4,30,123,30h-2.9
					v9.4h0.9v-3.9h1.1l3,3.9l0,0h1.1l-3.1-3.9C123.6,35.4,124,35.4,124.3,35.3"/>
				<path class="st0" d="M126.3,39.9h-1.1c-0.2,0-0.3-0.1-0.4-0.2l-2.9-3.7h-0.4v3.4c0,0.3-0.2,0.5-0.5,0.5h-0.9
					c-0.3,0-0.5-0.2-0.5-0.5V30c0-0.3,0.2-0.5,0.5-0.5h2.9c0.5,0,0.9,0.1,1.3,0.2c0.4,0.1,0.8,0.3,1.1,0.6c0.3,0.3,0.6,0.6,0.8,1
					s0.3,0.9,0.3,1.4s-0.1,1-0.3,1.4s-0.4,0.7-0.8,1c-0.3,0.3-0.7,0.5-1.1,0.6l0,0c-0.1,0-0.2,0.1-0.3,0.1l2.5,3.3
					c0.1,0.1,0.1,0.4,0.1,0.5C126.7,39.8,126.5,39.9,126.3,39.9z M122.5,35.2C122.6,35.2,122.6,35.2,122.5,35.2l0.2,0.3
					c0-0.1,0-0.1,0-0.2c0,0,0-0.1,0.1-0.1H122.5z M124.3,35.3L124.3,35.3L124.3,35.3z M120.7,35v0.2l0.1-0.1
					C120.7,35,120.7,35,120.7,35z M121.5,34.2h1.5c0.5,0,1-0.1,1.3-0.4c0.3-0.2,0.4-0.6,0.4-1c0-0.3,0-0.5-0.1-0.6
					c-0.1-0.2-0.2-0.3-0.3-0.4s-0.3-0.2-0.5-0.3c-0.2-0.1-0.5-0.1-0.7-0.1h-1.5L121.5,34.2L121.5,34.2z M120.7,30.5L120.7,30.5
					L120.7,30.5L120.7,30.5z"/>
			</g>
			<g>
				<polygon class="st0" points="138.7,30.8 138.7,30 133.9,30 133.9,39.4 138.7,39.4 138.7,38.5 134.8,38.5 134.8,35.1 138.6,35.1 
					138.6,34.2 134.8,34.2 134.8,30.8 				"/>
				<path class="st0" d="M138.7,39.9h-4.8c-0.3,0-0.5-0.2-0.5-0.5V30c0-0.3,0.2-0.5,0.5-0.5h4.8c0.3,0,0.5,0.2,0.5,0.5v0.9
					c0,0.3-0.2,0.5-0.5,0.5h-3.4v2.4h3.3c0.3,0,0.5,0.2,0.5,0.5v0.8c0,0.3-0.2,0.5-0.5,0.5h-3.3V38h3.4c0.3,0,0.5,0.2,0.5,0.5v0.9
					C139.2,39.6,138.9,39.9,138.7,39.9z M134.4,38.9L134.4,38.9C134.4,38.9,134.4,38.8,134.4,38.9L134.4,38.9z M134.4,34.5v0.3
					c0-0.1,0.1-0.1,0.1-0.1C134.5,34.6,134.4,34.6,134.4,34.5z M134.4,30.5L134.4,30.5L134.4,30.5L134.4,30.5z"/>
			</g>
		</g>
	</g>
</g>
</svg>
