<?xml version="1.0" encoding="utf-8"?>
<!-- Generator: Adobe Illustrator 22.0.1, SVG Export Plug-In . SVG Version: 6.00 Build 0)  -->
<svg version="1.1" id="Capa_1" xmlns="http://www.w3.org/2000/svg" xmlns:xlink="http://www.w3.org/1999/xlink" x="0px" y="0px"
	 viewBox="0 0 200 40" style="enable-background:new 0 0 200 40;" xml:space="preserve">
<style type="text/css">
	.st0{fill:#0063BD;}
</style>
<path class="st0" d="M56.8,13.6c0.9-1.8,2.8-2.7,4.1-2c1.4,0.7,1.7,2.7,0.8,4.5c-0.9,1.8-2.8,2.7-4.1,2
	C56.3,17.4,55.9,15.4,56.8,13.6z M47.6,10.5c-2.8,0.8-1.8,3-1.5,5.3c0.5,3.5-1.7,8.7-3.2,11.4c-1.5,2.7-4.8,6.1-6.2,6.9
	c1-6.8,4.4-14.3,5.4-21.1c0.7-4.6-2.9-7.7-5.3-9.1C27-0.7,10.3,2.6,3.5,8.3c-1.6,1.4-3.9,4.3-3.4,7.2c0.6,3.7,10.2,5.5,9.3,1.7
	c-0.2-0.8-2.4-0.5-1.9-1.3c1.8-2.9,5.9-4.4,9.6-5.7c4.6-1.7,10-2.5,15.6-2.2c6.6,0.3,1.5,9,0.2,12.5c-1.4,3.8-2.8,7.7-2.9,11.5
	c-0.1,5.8,5.1,7.8,9.5,5.2c11.6-6.8,12-21.6,12-21.6C51.5,13.3,51.6,9.4,47.6,10.5z M200,16.3c0,1.2-0.8,2.5-2.4,2.6
	c0,0-5.6,0.7-9,0.5c-2.1,4.6-4.3,10-4.7,13c-0.2,2.3,3.3-0.1,4.6-1.6c0.6-0.6,1.7-2.3,3-1.4c0.7,0.5,0.6,1.9-0.6,3.1
	c-6.4,6.8-10.7,5.4-10.7,5.4c-1.6-0.1-2.6-1.1-2.4-3.8c0-0.3,0.1-0.6,0.1-0.9c-1.6,2.7-8.8,6.7-10.5,3.7c-2,1.1-4,1.3-5.6,0.4
	c-1.4-0.8-2.3-2.3-2.6-4.3c-1.6,2.4-5.9,5.1-8.7,5c0,0,0,0-0.1,0c-0.1,0-0.2,0-0.3,0c-0.1,0-0.2,0-0.3,0c-0.1,0-0.2-0.1-0.3-0.1
	c-0.1,0-0.1,0-0.2-0.1c0,0-0.1-0.1-0.1-0.1c-0.1,0-0.1-0.1-0.2-0.1c-0.1-0.1-0.2-0.2-0.3-0.3c0,0-0.1-0.1-0.1-0.1
	c-0.7-0.8-0.9-2-0.4-2.9c0,0,3.1-6.2,3.8-12.3c0.2-2.1-3.2,1.9-4.7,3.7c-1.5,5.4-3.9,10.4-3.9,10.4c-0.8,1.9-2.8,2.2-4.1,1.7
	c-1.2-0.5-1.8-2.3-1.2-3.5c0,0,3.1-6.2,3.8-12.3c0.2-1.9-2.7,1.3-4.3,3.2c-1.7,5.6-4.7,10.9-4.7,10.9c-0.8,1.9-2.8,2.2-4.1,1.7
	c-1.2-0.5-1.8-2.3-1.2-3.5c0,0,3.9-6.2,4.5-12.3c0.2-2.2-3.6,2.3-4.9,3.9c0,0.2-0.1,0.3-0.1,0.5c-0.1,0.4-0.3,0.9-0.4,1.4
	c-0.3,0.9-0.7,1.7-1.1,2.6c-1.5,2.9-3.6,5.1-5.7,6.4c-2.1,1.2-4.3,1.5-6,0.6c-1.5-0.8-2.4-2.5-2.7-4.6l-0.8,1
	c-1.6,2.3-9.5,6.8-10.4,2.2c-0.4,0.3-0.8,0.6-1.3,0.9c-2.1,1.2-4.3,1.5-6,0.6c-1.4-0.8-2.3-2.3-2.6-4.2c-1.4,2.7-8.8,7-10.6,3.9
	c-2,1.1-4,1.3-5.6,0.4c-1.7-1-2.6-3-2.8-5.5c-0.3,0.7-0.9,1.5-1.2,1.9c-1.5,2-5.1,4.2-7.8,4.2c-1.7,0-2.9-1-2.6-3.8
	c0-0.1,0-0.3,0.1-0.4c-1.8,2.6-11.2,7.7-10.4,0.4c0.8-7,4.2-12.9,4.2-12.9c0.8-1.9,2.8-2.2,4.1-1.7c1.2,0.5,1.7,2.1,1.1,3.3
	c-1.2,2.3-2.6,3.7-3.2,9.6c-0.3,2.2,5.2-3.2,6.4-6l0,0.1c3-8.3,8.1-18.8,8.1-18.8c0.8-1.9,2.8-2.3,4.1-1.7c1.2,0.5,1.8,2.3,1.2,3.5
	c0,0-8.2,16.4-8.9,22.5c-0.2,2.2,4.5-2.9,5-4.1c0,0,1.2-2.6,1.6-3.6c0,0,0-0.1,0.1-0.1c0,0,0,0,0,0v0c0.2-0.3,0.3-0.7,0.5-1
	c3-5.8,8.3-8.9,11.7-6.9c0.7,0.4,1.2,0.9,1.6,1.6c0-0.1,0.1-0.1,0.1-0.1c0.7-1.4,2-1.6,2.9-1c0.7,0.5,1,1.9,0.5,2.8
	c0,0-4.2,9.2-4.3,12.6c0,1.6,3.6-1.2,4.8-4.8c0-0.2,0.1-0.4,0.1-0.5c0-0.1,0.1-0.2,0.1-0.3v0c0.3-1.1,0.8-2.2,1.4-3.3
	c3.1-5.8,8.3-8.9,11.7-6.9c0.7,0.4,1.2,0.9,1.6,1.6c2.3-5.4,4.5-9.9,4.5-9.9c0.8-1.9,2.8-2.2,4.1-1.7c1.2,0.5,1.8,2.3,1.2,3.5
	c0,0-8.1,16.1-8.7,22.2c-0.2,2.2,3.5-2.2,4.8-3.9c0.3-1.6,0.9-3.3,1.8-4.9c3-5.8,8.3-8.9,11.7-6.9c1.2,0.7,2,1.8,2.4,3.3
	c0.1,0.5,0.2,1,0.3,1.5l0.7-0.7c2.1-2.8,10.8-7.5,10.4-0.9c2.8-2.7,10.3-6.1,9.6,0.4c2.4-2.7,10.8-6.9,10.1,0
	c-0.5,4.3-2.3,9.5-3.6,12.8c0.8-0.2,3-2.6,4.4-4.2c0.3-1.7,0.9-3.5,1.8-5.2c3-5.8,8.3-8.9,11.7-6.9c0.7,0.4,1.2,0.9,1.6,1.6
	c0-0.1,0.1-0.1,0.1-0.1c0.7-1.4,2-1.6,2.9-1c1,0.7,1,1.8,0.5,2.8c0,0-4.2,9.2-4.3,12.6c-0.1,2,5.1-3,6.3-5.6l0,0
	c0.9-2.6,2-5.3,3.1-7.9c-0.4,0-0.7-0.1-0.7-0.1c-1.6-0.1-2.6-1.5-2.4-2.6c0.1-1,1.1-1.9,2.2-1.7c1.1,0.1,1.7,0.4,2.7,0.3
	c1.4-3.2,2.5-5.4,2.5-5.4c0.8-1.9,2.8-2.2,4.1-1.7c1.2,0.5,1.8,2.3,1.2,3.5c0,0-0.8,1.6-2,3.9c1.8,0.1,5.9-0.5,7.2-0.7
	C198.9,14.4,200,15.3,200,16.3z M82.4,20.7c-1.1-0.4-3,2.1-4.4,5.6c-1.4,3.5-1.6,6.7-0.5,7.1c1.1,0.4,3-2.1,4.4-5.6
	C83.2,24.3,83.5,21.1,82.4,20.7z M101.6,20.7c-1.1-0.4-3,2.1-4.4,5.6c-1.3,3.5-1.6,6.7-0.5,7.1c1.1,0.4,3-2.1,4.4-5.6
	C102.5,24.3,102.7,21.1,101.6,20.7z M122,20.7c-1.1-0.4-3,2.1-4.4,5.6c-1.4,3.5-1.6,6.7-0.5,7.1c1.1,0.4,3-2.1,4.4-5.6
	C122.9,24.3,123.1,21.1,122,20.7z M170.1,20.7c-1.1-0.4-3,2.1-4.4,5.6c-1.4,3.5-1.6,6.7-0.5,7.1c1.1,0.4,3-2.1,4.4-5.6
	C171,24.3,171.2,21.1,170.1,20.7z"/>
</svg>
