<?xml version="1.0" encoding="utf-8"?>
<!-- Generator: Adobe Illustrator 16.0.3, SVG Export Plug-In . SVG Version: 6.00 Build 0)  -->
<!DOCTYPE svg PUBLIC "-//W3C//DTD SVG 1.1//EN" "http://www.w3.org/Graphics/SVG/1.1/DTD/svg11.dtd">
<svg version="1.1" id="Capa_1" xmlns="http://www.w3.org/2000/svg" xmlns:xlink="http://www.w3.org/1999/xlink" x="0px" y="0px"
	 width="595.281px" height="108.911px" viewBox="0 366.564 595.281 108.911" enable-background="new 0 366.564 595.281 108.911"
	 xml:space="preserve">
<path fill="#FFFFFF" d="M169.06,401.896c2.679-5.357,8.334-8.036,12.203-5.953c4.167,2.084,5.06,8.036,2.381,13.394
	c-2.679,5.358-8.334,8.037-12.203,5.953C167.571,413.207,166.381,407.254,169.06,401.896z M141.677,392.67
	c-8.334,2.381-5.357,8.929-4.465,15.774c1.488,10.418-5.06,25.896-9.524,33.932c-4.464,8.036-14.287,18.155-18.454,20.537
	c2.977-20.24,13.096-42.563,16.073-62.803c2.083-13.691-8.632-22.918-15.775-27.085c-29.169-13.691-78.875-3.869-99.114,13.096
	c-4.762,4.167-11.608,12.799-10.12,21.431c1.786,11.013,30.359,16.37,27.68,5.06c-0.595-2.381-7.143-1.488-5.655-3.869
	c5.357-8.632,17.561-13.097,28.573-16.966c13.691-5.06,29.764-7.44,46.432-6.548c19.645,0.893,4.465,26.788,0.596,37.205
	c-4.167,11.311-8.334,22.918-8.632,34.229c-0.297,17.264,15.18,23.216,28.276,15.478c34.526-20.239,35.717-64.29,35.717-64.29
	C153.285,401.004,153.583,389.395,141.677,392.67z M595.281,409.932c0,3.571-2.381,7.441-7.145,7.738c0,0-16.668,2.084-26.787,1.488
	c-6.25,13.692-12.799,29.765-13.988,38.693c-0.596,6.846,9.822-0.297,13.691-4.762c1.785-1.786,5.059-6.846,8.928-4.167
	c2.084,1.488,1.787,5.655-1.785,9.227c-19.049,20.239-31.848,16.072-31.848,16.072c-4.762-0.297-7.738-3.273-7.143-11.31
	c0-0.894,0.297-1.786,0.297-2.679c-4.762,8.036-26.191,19.941-31.252,11.013c-5.953,3.273-11.906,3.869-16.668,1.19
	c-4.166-2.381-6.846-6.846-7.738-12.799c-4.762,7.144-17.561,15.18-25.895,14.882c0,0,0,0-0.299,0c-0.297,0-0.594,0-0.893,0
	c-0.297,0-0.594,0-0.893,0c-0.297,0-0.596-0.297-0.893-0.297s-0.297,0-0.596-0.298l-0.297-0.298c-0.299,0-0.299-0.298-0.596-0.298
	c-0.297-0.298-0.596-0.595-0.893-0.893l-0.299-0.298c-2.082-2.381-2.678-5.953-1.189-8.632c0,0,9.227-18.453,11.311-36.609
	c0.594-6.251-9.525,5.655-13.99,11.013c-4.465,16.072-11.607,30.954-11.607,30.954c-2.381,5.655-8.334,6.549-12.203,5.061
	c-3.572-1.488-5.357-6.846-3.572-10.418c0,0,9.227-18.453,11.311-36.609c0.596-5.655-8.035,3.869-12.799,9.524
	c-5.059,16.668-13.988,32.442-13.988,32.442c-2.381,5.655-8.334,6.549-12.203,5.061c-3.572-1.488-5.357-6.846-3.572-10.418
	c0,0,11.607-18.453,13.395-36.609c0.596-6.548-10.715,6.846-14.584,11.608c0,0.595-0.299,0.893-0.299,1.487
	c-0.297,1.191-0.893,2.68-1.189,4.167c-0.895,2.679-2.084,5.061-3.275,7.739c-4.465,8.631-10.715,15.18-16.965,19.049
	c-6.25,3.571-12.799,4.465-17.859,1.786c-4.463-2.382-7.143-7.441-8.035-13.691l-2.381,2.976
	c-4.764,6.846-28.275,20.24-30.955,6.549c-1.19,0.893-2.381,1.785-3.869,2.679c-6.25,3.571-12.799,4.464-17.858,1.785
	c-4.167-2.381-6.846-6.846-7.739-12.501c-4.167,8.037-26.192,20.835-31.55,11.608c-5.953,3.274-11.906,3.869-16.668,1.19
	c-5.06-2.977-7.739-8.929-8.334-16.37c-0.893,2.084-2.679,4.465-3.572,5.655c-4.464,5.953-15.18,12.501-23.216,12.501
	c-5.06,0-8.631-2.977-7.739-11.311c0-0.298,0-0.893,0.298-1.19c-5.357,7.738-33.336,22.918-30.955,1.19
	c2.381-20.835,12.501-38.396,12.501-38.396c2.381-5.655,8.334-6.548,12.203-5.06c3.572,1.487,5.06,6.25,3.274,9.822
	c-3.571,6.846-7.738,11.013-9.524,28.573c-0.893,6.548,15.478-9.524,19.049-17.858v0.298c8.929-24.705,24.109-55.957,24.109-55.957
	c2.381-5.655,8.334-6.846,12.204-5.06c3.571,1.488,5.357,6.846,3.571,10.417c0,0-24.406,48.813-26.49,66.97
	c-0.595,6.548,13.394-8.632,14.882-12.203c0,0,3.572-7.739,4.762-10.716c0,0,0-0.297,0.298-0.297l0,0l0,0
	c0.595-0.894,0.893-2.084,1.488-2.977c8.929-17.264,24.704-26.49,34.824-20.538c2.083,1.191,3.572,2.68,4.762,4.763
	c0-0.298,0.298-0.298,0.298-0.298c2.083-4.167,5.953-4.762,8.631-2.977c2.083,1.488,2.977,5.655,1.488,8.334
	c0,0-12.501,27.384-12.798,37.503c0,4.763,10.715-3.571,14.287-14.286c0-0.596,0.297-1.19,0.297-1.488s0.298-0.596,0.298-0.894l0,0
	c0.893-3.273,2.381-6.548,4.167-9.821c9.227-17.264,24.705-26.49,34.824-20.538c2.084,1.19,3.572,2.679,4.762,4.763
	C321.451,399.812,328,386.419,328,386.419c2.381-5.655,8.334-6.548,12.203-5.06c3.572,1.488,5.357,6.846,3.572,10.417
	c0,0-24.109,47.921-25.895,66.077c-0.596,6.548,10.416-6.549,14.285-11.608c0.895-4.763,2.68-9.822,5.357-14.584
	c8.93-17.264,24.705-26.49,34.824-20.538c3.572,2.084,5.953,5.357,7.145,9.822c0.297,1.488,0.596,2.977,0.893,4.465l2.084-2.083
	c6.25-8.335,32.145-22.323,30.953-2.68c8.334-8.036,30.658-18.155,28.574,1.19c7.143-8.036,32.145-20.537,30.063,0
	c-1.488,12.799-6.846,28.276-10.717,38.099c2.383-0.596,8.93-7.738,13.098-12.501c0.893-5.06,2.678-10.417,5.357-15.478
	c8.93-17.263,24.703-26.49,34.824-20.537c2.082,1.19,3.57,2.679,4.762,4.763c0-0.298,0.297-0.298,0.297-0.298
	c2.084-4.167,5.953-4.763,8.633-2.977c2.977,2.083,2.977,5.357,1.488,8.334c0,0-12.502,27.383-12.799,37.503
	c-0.299,5.953,15.18-8.93,18.75-16.668l0,0c2.68-7.738,5.953-15.775,9.229-23.514c-1.191,0-2.084-0.298-2.084-0.298
	c-4.762-0.298-7.738-4.465-7.145-7.738c0.299-2.977,3.275-5.655,6.549-5.061c3.273,0.298,5.061,1.191,8.037,0.894
	c4.166-9.524,7.439-16.073,7.439-16.073c2.383-5.654,8.334-6.548,12.203-5.06c3.572,1.488,5.359,6.846,3.572,10.418
	c0,0-2.381,4.762-5.953,11.607c5.357,0.298,17.561-1.488,21.432-2.083C592.005,404.277,595.281,406.956,595.281,409.932z
	 M245.255,423.029c-3.274-1.191-8.929,6.25-13.096,16.668c-4.167,10.417-4.762,19.941-1.488,21.132
	c3.274,1.19,8.929-6.25,13.096-16.668C247.637,433.744,248.529,424.219,245.255,423.029z M302.402,423.029
	c-3.273-1.191-8.929,6.25-13.096,16.668c-3.869,10.417-4.762,19.941-1.488,21.132s8.929-6.25,13.096-16.668
	C305.082,433.744,305.677,424.219,302.402,423.029z M363.121,423.029c-3.273-1.191-8.93,6.25-13.096,16.668
	c-4.168,10.417-4.762,19.941-1.488,21.132s8.93-6.25,13.096-16.668C365.8,433.744,366.394,424.219,363.121,423.029z
	 M506.287,423.029c-3.275-1.191-8.93,6.25-13.098,16.668c-4.166,10.417-4.762,19.941-1.488,21.132
	c3.275,1.19,8.93-6.25,13.098-16.668C508.964,433.744,509.56,424.219,506.287,423.029z"/>
</svg>
