<?xml version="1.0" encoding="utf-8"?>
<!-- Generator: Adobe Illustrator 22.0.1, SVG Export Plug-In . SVG Version: 6.00 Build 0)  -->
<svg version="1.1"
	 id="Layer_1" inkscape:version="0.91 r13725" sodipodi:docname="Visa_2006.svg" xmlns:cc="http://creativecommons.org/ns#" xmlns:dc="http://purl.org/dc/elements/1.1/" xmlns:inkscape="http://www.inkscape.org/namespaces/inkscape" xmlns:rdf="http://www.w3.org/1999/02/22-rdf-syntax-ns#" xmlns:sodipodi="http://sodipodi.sourceforge.net/DTD/sodipodi-0.dtd" xmlns:svg="http://www.w3.org/2000/svg"
	 xmlns="http://www.w3.org/2000/svg" xmlns:xlink="http://www.w3.org/1999/xlink" x="0px" y="0px" viewBox="0 0 61.8 20"
	 style="enable-background:new 0 0 61.8 20;" xml:space="preserve">
<style type="text/css">
	.st0{fill:#00579F;}
	.st1{fill:#FAA61A;}
</style>
<sodipodi:namedview  bordercolor="#666666" borderopacity="1" gridtolerance="10" guidetolerance="10" id="namedview19" inkscape:current-layer="Layer_1" inkscape:cx="34.690897" inkscape:cy="131.15483" inkscape:pageopacity="0" inkscape:pageshadow="2" inkscape:window-height="705" inkscape:window-maximized="1" inkscape:window-width="1366" inkscape:window-x="-8" inkscape:window-y="-8" inkscape:zoom="0.35355339" objecttolerance="10" pagecolor="#ffffff" showgrid="false">
	</sodipodi:namedview>
<g id="g4158" transform="matrix(4.4299631,0,0,4.4299631,-81.165783,-105.04783)">
	<polygon id="polygon9" class="st0" points="24.4,28.2 23.2,28.2 23.9,23.8 25.1,23.8 	"/>
	<path id="path11" inkscape:connector-curvature="0" class="st0" d="M28.5,23.9c-0.2-0.1-0.6-0.2-1-0.2c-1.1,0-1.9,0.6-1.9,1.4
		c0,0.6,0.6,1,1,1.2c0.4,0.2,0.6,0.4,0.6,0.5c0,0.3-0.4,0.4-0.7,0.4c-0.5,0-0.7-0.1-1.1-0.2L25.2,27l-0.2,1c0.3,0.1,0.8,0.2,1.3,0.2
		c1.2,0,2-0.6,2-1.5c0-0.5-0.3-0.9-0.9-1.2c-0.4-0.2-0.6-0.3-0.6-0.5c0-0.2,0.2-0.4,0.7-0.4c0.4,0,0.6,0.1,0.8,0.2l0.1,0L28.5,23.9
		C28.5,23.9,28.5,23.9,28.5,23.9z"/>
	<path id="path13" inkscape:connector-curvature="0" class="st0" d="M30,26.6c0.1-0.3,0.5-1.2,0.5-1.2c0,0,0.1-0.3,0.1-0.4l0.1,0.4
		c0,0,0.2,1,0.3,1.3C30.7,26.6,30.2,26.6,30,26.6L30,26.6z M31.4,23.8h-0.9c-0.3,0-0.5,0.1-0.6,0.4l-1.7,4h1.2c0,0,0.2-0.5,0.2-0.7
		c0.1,0,1.3,0,1.5,0c0,0.2,0.1,0.7,0.1,0.7h1L31.4,23.8L31.4,23.8L31.4,23.8z"/>
	<path id="path15" inkscape:connector-curvature="0" class="st0" d="M22.3,23.8l-1.1,3l-0.1-0.6c-0.2-0.7-0.8-1.5-1.6-1.8l1,3.8h1.2
		l1.8-4.4L22.3,23.8L22.3,23.8L22.3,23.8z"/>
	<path id="path17" inkscape:connector-curvature="0" class="st1" d="M20.2,23.8h-1.8l0,0.1c1.4,0.4,2.4,1.2,2.7,2.3l-0.4-2
		C20.6,23.9,20.4,23.8,20.2,23.8L20.2,23.8z"/>
</g>
</svg>
