<?xml version="1.0" encoding="utf-8"?>
<!-- Generator: Adobe Illustrator 22.0.1, SVG Export Plug-In . SVG Version: 6.00 Build 0)  -->
<svg version="1.1"
	 id="Layer_1" inkscape:version="0.91 r13725" sodipodi:docname="Visa_2006.svg" xmlns:cc="http://creativecommons.org/ns#" xmlns:dc="http://purl.org/dc/elements/1.1/" xmlns:inkscape="http://www.inkscape.org/namespaces/inkscape" xmlns:rdf="http://www.w3.org/1999/02/22-rdf-syntax-ns#" xmlns:sodipodi="http://sodipodi.sourceforge.net/DTD/sodipodi-0.dtd" xmlns:svg="http://www.w3.org/2000/svg"
	 xmlns="http://www.w3.org/2000/svg" xmlns:xlink="http://www.w3.org/1999/xlink" x="0px" y="0px" viewBox="0 0 44.9 20"
	 style="enable-background:new 0 0 44.9 20;" xml:space="preserve">
<style type="text/css">
	.st0{fill:#00579F;}
	.st1{fill:#FAA61A;}
</style>
<sodipodi:namedview  bordercolor="#666666" borderopacity="1" gridtolerance="10" guidetolerance="10" id="namedview19" inkscape:current-layer="Layer_1" inkscape:cx="34.690897" inkscape:cy="131.15483" inkscape:pageopacity="0" inkscape:pageshadow="2" inkscape:window-height="705" inkscape:window-maximized="1" inkscape:window-width="1366" inkscape:window-x="-8" inkscape:window-y="-8" inkscape:zoom="0.35355339" objecttolerance="10" pagecolor="#ffffff" showgrid="false">
	</sodipodi:namedview>
<g>
	<g id="g4158" transform="matrix(4.4299631,0,0,4.4299631,-81.165783,-105.04783)">
		<polygon id="polygon9" class="st0" points="22.7,26.9 21.9,26.9 22.4,23.8 23.2,23.8 		"/>
		<path id="path11" inkscape:connector-curvature="0" class="st0" d="M25.7,23.8c-0.2-0.1-0.4-0.1-0.7-0.1c-0.8,0-1.4,0.4-1.4,1.1
			c0,0.5,0.4,0.7,0.7,0.9c0.3,0.2,0.4,0.3,0.4,0.4c0,0.2-0.3,0.3-0.5,0.3c-0.3,0-0.5,0-0.8-0.2l-0.1,0l-0.1,0.7
			c0.2,0.1,0.5,0.2,0.9,0.2c0.9,0,1.4-0.4,1.4-1.1c0-0.4-0.2-0.6-0.7-0.9c-0.3-0.1-0.5-0.2-0.5-0.4c0-0.1,0.1-0.3,0.5-0.3
			c0.3,0,0.5,0.1,0.6,0.1l0.1,0L25.7,23.8L25.7,23.8z"/>
		<path id="path13" inkscape:connector-curvature="0" class="st0" d="M26.8,25.8c0.1-0.2,0.3-0.9,0.3-0.9c0,0,0.1-0.2,0.1-0.3
			l0.1,0.3c0,0,0.2,0.8,0.2,0.9C27.3,25.8,26.9,25.8,26.8,25.8L26.8,25.8z M27.8,23.8h-0.6c-0.2,0-0.3,0.1-0.4,0.3l-1.2,2.9h0.9
			c0,0,0.1-0.4,0.2-0.5c0.1,0,0.9,0,1.1,0c0,0.1,0.1,0.5,0.1,0.5h0.8L27.8,23.8L27.8,23.8L27.8,23.8z"/>
		<path id="path15" inkscape:connector-curvature="0" class="st0" d="M21.2,23.8l-0.8,2.2l-0.1-0.4c-0.1-0.5-0.6-1.1-1.1-1.3
			l0.7,2.8h0.9l1.3-3.2H21.2L21.2,23.8L21.2,23.8z"/>
		<path id="path17" inkscape:connector-curvature="0" class="st1" d="M19.7,23.8h-1.3l0,0.1c1,0.3,1.7,0.9,2,1.7L20,24
			C20,23.8,19.8,23.8,19.7,23.8L19.7,23.8z"/>
	</g>
	<path class="st0" d="M26.9,18.2h-1.5v1.4H27v0.4h-2.1v-3.8H27v0.4h-1.6v1.2h1.5L26.9,18.2L26.9,18.2z M27.8,15.9h0.5v4h-0.5V15.9z
		 M29.5,18.7c0,0.7,0.4,0.9,0.9,0.9c0.4,0,0.6-0.1,0.8-0.1l0.1,0.4c-0.2,0.1-0.5,0.2-0.9,0.2c-0.8,0-1.3-0.6-1.3-1.4
		c0-0.8,0.5-1.5,1.3-1.5c0.9,0,1.1,0.8,1.1,1.3c0,0.1,0,0.2,0,0.2L29.5,18.7L29.5,18.7z M31,18.3c0-0.3-0.1-0.8-0.7-0.8
		c-0.5,0-0.7,0.5-0.8,0.8H31z M34.2,19.8C34,19.9,33.8,20,33.4,20c-0.8,0-1.4-0.6-1.4-1.4c0-0.8,0.6-1.5,1.5-1.5
		c0.3,0,0.6,0.1,0.7,0.1l-0.1,0.4c-0.1-0.1-0.3-0.1-0.6-0.1c-0.6,0-1,0.5-1,1c0,0.6,0.4,1,0.9,1c0.3,0,0.5-0.1,0.6-0.1L34.2,19.8z
		 M35.6,16.6v0.7h0.7v0.4h-0.7v1.5c0,0.3,0.1,0.5,0.4,0.5c0.1,0,0.2,0,0.3,0l0,0.4C36.2,20,36,20,35.8,20c-0.2,0-0.4-0.1-0.5-0.2
		c-0.1-0.2-0.2-0.4-0.2-0.7v-1.5h-0.4v-0.4h0.4v-0.5L35.6,16.6z M37,18.1c0-0.3,0-0.6,0-0.9h0.4l0,0.5h0c0.1-0.4,0.4-0.6,0.8-0.6
		c0,0,0.1,0,0.1,0v0.5c0,0-0.1,0-0.2,0c-0.4,0-0.6,0.3-0.7,0.6c0,0.1,0,0.2,0,0.2v1.5H37L37,18.1L37,18.1z M41.4,18.6
		c0,1-0.7,1.4-1.4,1.4c-0.7,0-1.3-0.5-1.3-1.4c0-0.9,0.6-1.4,1.4-1.4C40.8,17.2,41.4,17.7,41.4,18.6z M39.2,18.6
		c0,0.6,0.3,1.1,0.8,1.1c0.5,0,0.8-0.4,0.8-1.1c0-0.5-0.2-1-0.8-1C39.5,17.5,39.2,18.1,39.2,18.6z M42.1,17.9c0-0.3,0-0.5,0-0.7h0.4
		l0,0.5h0c0.1-0.3,0.5-0.5,0.9-0.5c0.4,0,1,0.2,1,1.2v1.6h-0.5v-1.6c0-0.4-0.2-0.8-0.6-0.8c-0.3,0-0.6,0.2-0.7,0.5
		c0,0.1,0,0.1,0,0.2v1.6h-0.5L42.1,17.9L42.1,17.9z"/>
</g>
</svg>
